<?xml version="1.0" standalone="no"?>
<!DOCTYPE svg PUBLIC "-//W3C//DTD SVG 20010904//EN"
 "http://www.w3.org/TR/2001/REC-SVG-20010904/DTD/svg10.dtd">
<svg version="1.0" xmlns="http://www.w3.org/2000/svg"
 width="1536.000000pt" height="596.000000pt" viewBox="0 0 1536.000000 596.000000"
 preserveAspectRatio="xMidYMid meet">
<metadata>
Created by potrace 1.16, written by Peter Selinger 2001-2019
</metadata>
<g transform="translate(0.000000,596.000000) scale(0.100000,-0.100000)"
fill="#000000" stroke="none">
<path d="M7495 5949 c-902 -53 -1789 -292 -2620 -706 -892 -446 -1776 -1153
-2560 -2049 -278 -317 -499 -605 -806 -1045 -100 -144 -205 -285 -234 -314
-59 -61 -49 -57 -410 -149 -194 -50 -315 -88 -538 -172 -159 -59 -298 -115
-310 -124 -18 -15 -19 -20 -8 -34 18 -22 66 -34 211 -51 286 -35 475 -115 706
-297 74 -57 167 -108 200 -108 30 0 50 -31 58 -91 8 -57 61 -148 126 -214 26
-27 128 -156 226 -285 244 -324 247 -327 265 -299 5 8 9 156 9 329 0 423 29
683 105 946 36 121 67 173 151 254 284 269 1129 645 1959 870 514 139 711 177
1190 231 l370 41 1280 -10 1280 -10 585 -81 c1034 -144 1333 -212 1566 -353
356 -216 557 -209 894 32 178 127 230 145 625 220 1201 226 1919 414 3087 808
l437 147 7 85 c4 47 7 272 8 500 1 357 -1 428 -17 508 -35 186 -77 268 -211
409 -99 105 -181 167 -294 223 -116 58 -185 77 -437 120 -225 38 -517 64 -965
85 -74 4 -439 36 -810 71 -371 35 -841 80 -1045 99 -203 20 -449 47 -545 61
-96 14 -501 72 -900 129 -399 57 -795 115 -880 129 -573 92 -1215 126 -1755
95z"/>
</g>
</svg>
