<?xml version="1.0" standalone="no"?>
<!DOCTYPE svg PUBLIC "-//W3C//DTD SVG 20010904//EN"
 "http://www.w3.org/TR/2001/REC-SVG-20010904/DTD/svg10.dtd">
<svg version="1.0" xmlns="http://www.w3.org/2000/svg"
 width="1536.000000pt" height="488.000000pt" viewBox="0 0 1536.000000 488.000000"
 preserveAspectRatio="xMidYMid meet">
<metadata>
Created by potrace 1.16, written by Peter Selinger 2001-2019
</metadata>
<g transform="translate(0.000000,488.000000) scale(0.100000,-0.100000)"
fill="#000000" stroke="none">
<path d="M8470 4867 c-35 -18 -47 -57 -29 -99 7 -18 59 -80 114 -138 174 -181
215 -247 215 -347 -1 -78 -24 -126 -106 -213 -130 -137 -317 -265 -725 -496
-307 -173 -408 -226 -564 -289 -816 -334 -1627 -501 -2750 -565 -324 -18 -377
-20 -670 -30 -418 -14 -807 -46 -1040 -85 -207 -35 -361 -92 -483 -179 -132
-94 -857 -503 -920 -519 -52 -13 -64 -11 -317 39 -210 42 -292 53 -412 59
-155 8 -193 2 -193 -31 0 -8 14 -44 30 -81 41 -89 45 -127 26 -204 -42 -163
-171 -328 -440 -563 -185 -163 -214 -192 -198 -209 34 -33 420 -7 647 45 50
11 208 63 353 114 145 52 278 94 296 94 21 0 48 -11 73 -29 189 -137 679 -239
1513 -315 449 -42 621 -51 1503 -81 648 -23 823 -25 2066 -25 1347 0 1361 0
1692 25 184 13 527 38 763 55 398 29 477 38 1093 125 364 52 750 110 855 130
158 30 862 171 946 190 12 3 22 1 22 -4 0 -31 -123 -102 -545 -313 -288 -144
-611 -316 -865 -461 -569 -323 -685 -407 -626 -456 11 -9 94 12 372 94 198 59
490 144 649 191 434 127 1319 419 1395 461 100 54 212 147 361 299 146 149
231 258 353 452 43 67 97 139 121 160 35 30 149 81 626 276 520 214 631 263
1014 454 244 121 458 235 495 262 36 26 79 55 96 63 64 33 84 146 84 480 0
213 -3 266 -20 341 -23 105 -44 143 -143 262 -176 213 -328 299 -626 353 -109
20 -158 21 -1125 26 -1045 6 -1431 15 -1766 40 -721 54 -1111 125 -1625 294
-116 38 -283 92 -372 120 -216 69 -883 219 -1028 231 -142 12 -155 12 -185 -3z"/>
</g>
</svg>
