<?xml version="1.0" standalone="no"?>
<!DOCTYPE svg PUBLIC "-//W3C//DTD SVG 20010904//EN"
 "http://www.w3.org/TR/2001/REC-SVG-20010904/DTD/svg10.dtd">
<svg version="1.0" xmlns="http://www.w3.org/2000/svg"
 width="1536.000000pt" height="907.000000pt" viewBox="0 0 1536.000000 907.000000"
 preserveAspectRatio="xMidYMid meet">
<metadata>
Created by potrace 1.16, written by Peter Selinger 2001-2019
</metadata>
<g transform="translate(0.000000,907.000000) scale(0.100000,-0.100000)"
fill="#000000" stroke="none">
<path d="M14046 9045 c-140 -49 -328 -187 -380 -278 -15 -28 -27 -73 -35 -134
-12 -95 -47 -211 -84 -273 -33 -57 -68 -89 -137 -128 -36 -19 -119 -72 -185
-117 -66 -45 -178 -115 -250 -155 -170 -94 -247 -154 -391 -302 -113 -116
-171 -190 -379 -473 -48 -66 -129 -160 -179 -210 -84 -83 -105 -98 -271 -187
-99 -53 -376 -196 -615 -318 -239 -123 -543 -280 -675 -350 -701 -372 -1135
-595 -1203 -620 -120 -44 -219 -62 -997 -180 -1097 -167 -1167 -179 -1540
-261 -691 -152 -1663 -448 -2200 -669 -403 -167 -1066 -555 -1386 -814 -196
-158 -442 -402 -647 -642 -141 -167 -198 -218 -265 -240 -88 -28 -199 -91
-280 -158 -85 -71 -109 -81 -211 -91 -38 -3 -95 -17 -128 -31 -82 -34 -240
-58 -618 -94 -615 -59 -968 -118 -987 -166 -16 -43 96 -99 222 -110 l77 -7
-36 -34 c-20 -19 -36 -38 -36 -43 0 -23 62 -40 142 -40 46 0 93 -3 105 -6 22
-6 22 -7 7 -36 -23 -45 -8 -50 126 -44 165 8 283 28 560 96 425 103 686 146
817 136 48 -3 183 -32 335 -70 339 -86 533 -116 1038 -161 356 -32 475 -47
720 -90 107 -19 257 -42 332 -50 75 -8 183 -26 240 -40 77 -19 150 -28 293
-35 299 -16 441 -29 560 -50 91 -17 180 -22 505 -30 217 -5 411 -11 430 -14
19 -3 76 -11 125 -17 50 -6 215 -31 367 -55 638 -101 754 -109 1388 -101 261
4 666 11 900 17 463 11 651 5 696 -25 24 -15 25 -21 19 -63 -24 -169 -216
-569 -359 -747 -61 -77 -87 -122 -79 -140 2 -7 23 -17 46 -22 26 -5 41 -14 39
-22 -4 -19 15 -38 70 -68 34 -18 50 -34 54 -52 12 -59 37 -67 130 -44 35 9 48
7 85 -10 24 -11 65 -22 92 -25 47 -5 47 -5 47 -42 0 -45 33 -83 87 -101 100
-33 319 34 648 198 169 85 252 140 296 200 136 181 223 471 249 824 15 206 18
215 83 234 79 23 311 60 625 100 438 55 660 108 946 225 144 58 209 68 512 80
293 10 351 17 494 58 l95 27 435 1 c365 0 447 3 507 16 130 30 158 69 76 108
-71 33 -204 59 -366 70 -175 12 -239 25 -412 81 -124 40 -137 42 -295 48 -110
4 -173 11 -190 20 -65 36 -140 93 -140 107 0 9 26 51 59 94 128 170 180 266
335 620 108 248 142 336 167 433 11 43 33 112 50 154 16 41 34 109 39 151 15
109 26 157 81 332 96 312 223 771 263 950 14 63 32 169 41 234 19 138 33 177
91 263 54 79 151 272 159 317 5 25 -1 50 -23 102 -17 38 -35 88 -41 110 -8 31
-18 45 -39 53 -58 24 -192 270 -200 369 -4 49 -3 54 30 85 19 17 64 43 99 55
35 13 78 30 94 37 50 21 134 94 216 189 177 203 222 368 223 821 1 242 0 254
-27 360 -40 160 -103 340 -145 420 -44 82 -116 146 -232 203 l-74 37 -141 0
c-77 0 -147 4 -155 8 -9 4 -46 40 -82 80 -73 80 -149 131 -247 164 -84 29
-120 28 -205 -2z"/>
</g>
</svg>
