<?xml version="1.0" standalone="no"?>
<!DOCTYPE svg PUBLIC "-//W3C//DTD SVG 20010904//EN"
 "http://www.w3.org/TR/2001/REC-SVG-20010904/DTD/svg10.dtd">
<svg version="1.0" xmlns="http://www.w3.org/2000/svg"
 width="1536.000000pt" height="517.000000pt" viewBox="0 0 1536.000000 517.000000"
 preserveAspectRatio="xMidYMid meet">
<metadata>
Created by potrace 1.16, written by Peter Selinger 2001-2019
</metadata>
<g transform="translate(0.000000,517.000000) scale(0.100000,-0.100000)"
fill="#000000" stroke="none">
<path d="M10387 5139 l-837 -29 -987 -196 c-1036 -206 -1096 -220 -1573 -372
-1958 -624 -3634 -1616 -5025 -2974 l-141 -137 -64 -10 c-36 -6 -138 -20 -228
-31 -303 -38 -716 -149 -993 -266 -165 -69 -539 -315 -539 -354 0 -13 59 -30
120 -36 30 -2 186 -9 345 -14 287 -10 408 -24 488 -55 58 -23 311 -75 365 -75
75 0 96 -16 103 -77 9 -70 43 -125 142 -230 106 -112 159 -186 166 -231 14
-86 80 -61 235 88 60 58 134 137 166 175 96 118 205 293 270 436 l62 136 156
6 c189 7 268 21 692 126 315 77 336 84 655 209 182 71 370 146 419 167 104 43
425 150 581 194 272 76 624 130 1190 183 186 17 1150 15 2125 -6 l735 -15 525
59 c289 33 707 80 930 105 223 25 425 49 450 54 25 5 46 8 48 7 1 -2 -43 -97
-98 -212 -109 -223 -252 -611 -265 -715 -8 -69 6 -109 38 -109 73 0 248 84
432 208 174 117 187 127 410 330 93 83 172 152 177 152 25 0 -7 -177 -60 -328
-34 -98 -37 -115 -25 -128 17 -17 24 -17 93 -4 187 35 407 233 761 685 69 88
143 184 164 213 20 29 49 59 64 66 14 7 69 17 121 21 76 5 912 166 994 191 63
19 774 313 855 353 240 121 470 271 577 376 123 121 160 228 150 432 -25 483
-228 817 -610 1003 -201 98 -411 162 -656 199 -69 10 -393 80 -721 155 l-597
136 -701 85 c-385 47 -733 84 -773 84 -40 -1 -450 -14 -911 -30z"/>
</g>
</svg>
