<?xml version="1.0" standalone="no"?>
<!DOCTYPE svg PUBLIC "-//W3C//DTD SVG 20010904//EN"
 "http://www.w3.org/TR/2001/REC-SVG-20010904/DTD/svg10.dtd">
<svg version="1.0" xmlns="http://www.w3.org/2000/svg"
 width="1536.000000pt" height="887.000000pt" viewBox="0 0 1536.000000 887.000000"
 preserveAspectRatio="xMidYMid meet">
<metadata>
Created by potrace 1.16, written by Peter Selinger 2001-2019
</metadata>
<g transform="translate(0.000000,887.000000) scale(0.100000,-0.100000)"
fill="#000000" stroke="none">
<path d="M1995 8859 c-79 -12 -135 -31 -295 -102 -183 -80 -365 -140 -544
-177 -205 -42 -272 -67 -493 -180 -138 -71 -228 -111 -323 -141 -164 -51 -264
-92 -307 -125 -45 -34 -44 -65 12 -231 25 -73 45 -144 45 -156 0 -28 51 -137
85 -181 14 -18 25 -40 25 -49 0 -9 21 -33 46 -54 25 -21 50 -48 55 -60 5 -13
14 -20 22 -18 7 3 41 -17 75 -45 35 -27 83 -61 107 -76 36 -21 58 -48 117
-142 106 -173 200 -311 248 -365 53 -59 94 -79 515 -247 407 -163 589 -250
770 -370 176 -117 237 -146 361 -170 134 -26 173 -41 440 -168 358 -171 387
-187 581 -313 210 -138 263 -164 450 -220 76 -23 180 -59 232 -81 124 -52 210
-73 381 -93 79 -9 181 -28 229 -41 172 -50 385 -170 452 -256 41 -53 340 -675
413 -861 103 -261 128 -302 286 -470 125 -134 168 -200 360 -552 84 -154 163
-296 175 -316 75 -117 140 -284 169 -429 26 -129 38 -365 34 -656 -4 -310 -8
-330 -69 -377 -19 -14 -99 -50 -178 -81 -79 -31 -165 -68 -192 -81 -93 -47
-149 -115 -149 -178 0 -47 29 -59 200 -84 l35 -5 -25 -20 c-34 -27 -149 -85
-368 -184 -101 -45 -194 -89 -207 -98 -52 -34 -79 -111 -68 -195 l6 -43 67 4
68 4 6 -50 c7 -62 28 -94 74 -113 33 -14 107 -15 677 -7 352 5 773 9 935 9
318 1 340 4 433 58 63 37 157 142 198 222 20 39 62 140 94 225 71 191 75 199
185 366 49 74 108 174 131 222 22 48 83 158 135 244 113 188 140 244 159 335
28 131 20 222 -55 628 -18 95 -22 167 -27 524 -5 357 -4 412 8 405 8 -5 49
-32 90 -60 179 -123 433 -243 789 -372 222 -81 333 -110 684 -182 229 -47 366
-82 440 -110 l29 -10 -5 -103 c-3 -56 -17 -165 -31 -242 -15 -77 -33 -228 -41
-335 -15 -198 -55 -444 -82 -509 -19 -46 -68 -97 -116 -122 -21 -11 -88 -36
-150 -56 -140 -45 -246 -93 -275 -124 -40 -44 -56 -98 -61 -210 -4 -93 -2
-110 17 -146 26 -51 65 -80 143 -104 144 -45 311 -45 639 1 253 36 552 62 782
67 l229 6 -26 -26 c-51 -51 -25 -125 63 -185 106 -72 321 -121 701 -159 218
-22 704 -24 825 -4 44 7 222 16 395 21 329 8 381 15 477 61 100 48 176 147
214 279 18 65 22 114 29 370 6 207 18 383 40 590 24 236 32 373 40 685 15 590
17 597 145 801 115 183 156 290 285 735 50 173 122 406 160 519 112 330 140
514 140 915 0 506 -37 814 -136 1150 -76 257 -205 534 -349 750 -93 140 -144
204 -264 335 -48 52 -166 190 -263 305 -262 314 -335 377 -538 465 -41 18 -93
47 -115 65 -51 41 -120 76 -259 130 -61 24 -194 80 -296 125 -561 247 -870
288 -1880 245 -475 -20 -625 -34 -835 -75 -55 -11 -174 -29 -265 -40 -220 -28
-267 -40 -456 -115 -286 -114 -416 -139 -839 -160 -194 -10 -361 -25 -500 -45
-231 -34 -301 -40 -427 -41 -201 0 -255 17 -466 149 -167 104 -167 104 -663
99 -461 -4 -430 0 -702 -101 -278 -103 -439 -130 -782 -130 -333 -1 -477 24
-890 149 -315 96 -443 132 -580 160 -66 14 -185 48 -265 75 -164 56 -242 69
-418 70 -67 0 -213 11 -325 25 -351 42 -697 56 -852 34z"/>
</g>
</svg>
