<?xml version="1.0" standalone="no"?>
<!DOCTYPE svg PUBLIC "-//W3C//DTD SVG 20010904//EN"
 "http://www.w3.org/TR/2001/REC-SVG-20010904/DTD/svg10.dtd">
<svg version="1.0" xmlns="http://www.w3.org/2000/svg"
 width="1536.000000pt" height="383.000000pt" viewBox="0 0 1536.000000 383.000000"
 preserveAspectRatio="xMidYMid meet">
<metadata>
Created by potrace 1.16, written by Peter Selinger 2001-2019
</metadata>
<g transform="translate(0.000000,383.000000) scale(0.100000,-0.100000)"
fill="#000000" stroke="none">
<path d="M7555 3824 c-38 -2 -207 -11 -375 -19 -168 -9 -381 -25 -475 -35
-194 -22 -811 -84 -990 -99 -66 -6 -228 -15 -360 -21 -281 -12 -701 -37 -765
-46 -61 -7 -303 -57 -485 -100 -142 -33 -163 -41 -405 -159 -252 -123 -257
-125 -390 -149 -147 -28 -284 -46 -340 -46 -57 0 -150 63 -294 200 -137 130
-394 329 -482 373 -63 32 -123 43 -346 62 -293 25 -384 23 -524 -15 -291 -77
-521 -155 -694 -235 -166 -77 -225 -96 -410 -135 -186 -39 -176 -35 -200 -74
-25 -42 -25 -63 0 -188 22 -107 36 -142 80 -198 15 -19 30 -51 34 -70 9 -52
112 -151 196 -189 125 -56 458 -179 583 -215 191 -55 240 -75 392 -163 184
-107 216 -131 273 -205 128 -168 517 -569 653 -673 131 -101 142 -106 340
-179 96 -35 221 -82 279 -104 103 -39 581 -167 810 -216 67 -15 183 -29 280
-36 237 -16 394 -37 480 -64 125 -40 229 -58 345 -58 l110 -1 225 84 225 84
190 -2 190 -2 674 -261 c543 -210 682 -268 715 -296 74 -63 240 -127 428 -163
57 -11 168 -34 248 -52 141 -31 151 -32 385 -31 186 1 294 -5 480 -24 295 -30
320 -30 392 -2 55 22 70 23 276 20 241 -3 344 9 442 53 59 26 129 85 168 143
46 68 45 76 -17 138 -46 46 -67 59 -132 80 -43 14 -108 41 -145 59 -70 36 -89
62 -89 125 0 42 -33 75 -99 99 -48 17 -68 32 -101 74 -50 62 -48 61 -157 98
-52 17 -99 41 -122 61 -21 18 -46 39 -57 46 -16 11 -12 12 31 8 360 -35 522
-30 744 25 118 29 167 38 726 134 357 62 404 72 525 110 74 23 111 27 280 35
184 7 201 9 285 40 183 65 170 64 563 45 l352 -17 123 -57 c67 -32 187 -86
267 -119 80 -34 164 -75 187 -90 24 -16 115 -97 203 -181 152 -145 352 -375
462 -532 79 -112 173 -177 463 -319 289 -142 360 -168 475 -175 112 -7 141 3
151 53 15 73 -50 147 -200 227 -105 56 -211 153 -211 192 0 38 48 30 120 -19
84 -58 107 -70 168 -84 48 -11 53 -11 62 7 16 29 -11 71 -72 115 -71 50 -146
122 -165 158 l-15 29 41 -7 c22 -3 86 -30 141 -58 81 -42 104 -51 118 -42 37
24 21 56 -53 106 -86 59 -125 100 -125 133 0 41 35 40 151 -4 57 -23 114 -41
125 -41 18 0 54 36 54 55 0 3 -42 25 -92 49 -51 23 -99 50 -106 58 -11 14 -42
101 -42 121 0 13 121 7 176 -9 30 -8 74 -32 100 -54 49 -40 158 -76 195 -65
31 10 41 39 24 72 -8 15 -17 40 -20 55 -4 20 -32 49 -98 101 -220 175 -285
216 -599 373 -168 84 -360 176 -425 203 -135 57 -948 367 -978 373 -22 5 82
14 320 28 83 5 200 18 260 29 307 56 986 173 1086 187 88 12 134 24 199 53 47
21 110 46 140 54 101 29 261 154 246 192 -5 14 -17 16 -84 10 -42 -4 -111 -16
-152 -27 -124 -34 -266 -13 -247 35 3 8 44 28 91 45 122 45 205 89 215 115 8
19 4 24 -21 35 -17 7 -38 10 -47 7 -9 -4 -79 -15 -156 -25 l-140 -18 -23 23
-24 22 84 16 c103 19 233 77 243 108 10 30 -11 41 -65 34 -25 -3 -103 -7 -175
-10 l-130 -6 24 21 c13 11 35 23 50 26 114 25 211 75 211 108 0 8 -14 25 -31
37 l-31 22 -42 -20 c-89 -43 -197 -63 -196 -35 1 7 19 41 55 99 17 28 34 37
110 62 50 16 124 37 165 47 88 20 105 27 143 62 35 33 34 54 -5 87 -31 26 -35
27 -113 20 -127 -11 -311 -60 -386 -104 -47 -27 -86 -36 -307 -70 -405 -64
-544 -113 -932 -333 -102 -57 -219 -118 -260 -135 -167 -70 -419 -162 -475
-174 -92 -21 -579 -18 -765 4 -194 24 -236 37 -362 113 -60 36 -145 80 -190
99 -372 149 -1958 731 -2128 780 -169 49 -247 57 -540 60 -152 2 -334 10 -425
19 -153 16 -593 28 -740 20z"/>
</g>
</svg>
