<?xml version="1.0" standalone="no"?>
<!DOCTYPE svg PUBLIC "-//W3C//DTD SVG 20010904//EN"
 "http://www.w3.org/TR/2001/REC-SVG-20010904/DTD/svg10.dtd">
<svg version="1.0" xmlns="http://www.w3.org/2000/svg"
 width="1536.000000pt" height="366.000000pt" viewBox="0 0 1536.000000 366.000000"
 preserveAspectRatio="xMidYMid meet">
<metadata>
Created by potrace 1.16, written by Peter Selinger 2001-2019
</metadata>
<g transform="translate(0.000000,366.000000) scale(0.100000,-0.100000)"
fill="#000000" stroke="none">
<path d="M5143 3641 c-43 -27 -63 -69 -63 -131 0 -56 35 -170 76 -253 34 -65
43 -160 21 -203 -8 -16 -38 -51 -65 -77 -163 -151 -541 -329 -1207 -567 -840
-300 -1322 -538 -1851 -916 -72 -52 -136 -94 -143 -94 -6 0 -64 26 -129 59
-175 88 -330 137 -491 156 -73 9 -134 15 -136 13 -1 -2 -12 -50 -24 -108 -102
-474 -374 -855 -931 -1307 -96 -78 -181 -151 -188 -163 -20 -32 -3 -43 73 -48
250 -16 694 111 1129 322 131 64 240 116 242 116 2 0 56 26 121 58 195 96 152
94 377 12 l196 -71 218 -19 c119 -10 237 -16 262 -14 25 2 189 13 365 24 176
11 415 28 530 36 285 21 3489 33 3867 15 178 -9 508 -42 1238 -123 l995 -111
445 -7 c356 -6 617 -3 1305 16 1086 29 1119 31 1360 60 430 53 733 113 968
194 148 50 176 63 282 125 50 30 117 60 150 69 33 8 146 19 250 25 203 11 340
32 529 81 229 60 352 124 390 204 24 51 21 114 -9 158 -14 20 -25 42 -25 48 0
6 20 30 45 53 52 50 59 89 26 143 -23 38 -94 74 -145 74 -52 0 -178 52 -261
108 -53 35 -82 64 -117 117 -106 157 -315 316 -656 498 -455 243 -853 386
-1589 573 -476 120 -513 128 -1145 238 -359 63 -680 117 -713 120 -33 3 -368
35 -745 70 l-685 64 -1315 11 c-723 6 -1445 14 -1603 17 -371 8 -399 14 -624
139 -87 49 -186 104 -220 122 -151 82 -316 114 -380 74z"/>
</g>
</svg>
