<?xml version="1.0" standalone="no"?>
<!DOCTYPE svg PUBLIC "-//W3C//DTD SVG 20010904//EN"
 "http://www.w3.org/TR/2001/REC-SVG-20010904/DTD/svg10.dtd">
<svg version="1.0" xmlns="http://www.w3.org/2000/svg"
 width="1536.000000pt" height="340.000000pt" viewBox="0 0 1536.000000 340.000000"
 preserveAspectRatio="xMidYMid meet">
<metadata>
Created by potrace 1.16, written by Peter Selinger 2001-2019
</metadata>
<g transform="translate(0.000000,340.000000) scale(0.100000,-0.100000)"
fill="#000000" stroke="none">
<path d="M5895 3385 c-340 -15 -493 -32 -717 -80 -300 -66 -416 -79 -693 -79
-224 -1 -256 1 -310 19 -52 17 -88 20 -267 20 -231 0 -247 -4 -212 -52 21 -28
82 -79 166 -138 32 -23 44 -38 46 -61 6 -60 -90 -156 -284 -284 -102 -67 -140
-90 -579 -340 -277 -158 -355 -209 -528 -347 -286 -229 -464 -444 -622 -756
l-80 -159 -300 -122 c-311 -127 -834 -376 -1060 -504 -162 -92 -370 -229 -420
-277 -58 -54 -40 -59 116 -30 235 43 390 58 609 58 180 1 225 -3 365 -27 178
-31 160 -32 346 24 90 27 109 23 109 -23 0 -73 99 -206 165 -223 40 -10 200
103 307 214 108 115 177 215 263 385 l70 139 220 73 c325 107 585 215 980 405
542 261 695 292 1425 293 607 0 679 -8 1470 -168 261 -53 522 -105 580 -116
143 -27 1477 -228 1828 -275 234 -32 282 -41 280 -54 -3 -14 -74 -73 -419
-345 -62 -50 -115 -98 -117 -107 -5 -27 33 -33 188 -30 305 5 481 48 783 191
l108 51 -66 -73 c-88 -95 -93 -105 -59 -113 35 -9 224 12 337 36 108 24 256
88 407 176 l115 67 444 -23 c400 -21 499 -23 1000 -17 582 7 930 25 1596 82
160 14 452 39 650 55 1008 86 1028 88 1132 135 126 57 118 162 -25 325 -87
100 -350 247 -867 485 -499 231 -1308 556 -1503 604 -42 10 -129 22 -192 25
-125 7 -387 42 -600 81 -274 51 -886 190 -1275 290 -1430 369 -2316 515 -3550
585 -298 17 -1029 20 -1360 5z"/>
</g>
</svg>
