<?xml version="1.0" standalone="no"?>
<!DOCTYPE svg PUBLIC "-//W3C//DTD SVG 20010904//EN"
 "http://www.w3.org/TR/2001/REC-SVG-20010904/DTD/svg10.dtd">
<svg version="1.0" xmlns="http://www.w3.org/2000/svg"
 width="1536.000000pt" height="499.000000pt" viewBox="0 0 1536.000000 499.000000"
 preserveAspectRatio="xMidYMid meet">
<metadata>
Created by potrace 1.16, written by Peter Selinger 2001-2019
</metadata>
<g transform="translate(0.000000,499.000000) scale(0.100000,-0.100000)"
fill="#000000" stroke="none">
<path d="M6540 4979 c-410 -16 -725 -60 -1290 -181 -413 -88 -893 -215 -1120
-297 -187 -67 -233 -73 -570 -70 -168 1 -311 1 -317 0 -7 0 -20 -12 -28 -25
-15 -22 -15 -28 0 -63 9 -21 30 -52 47 -70 40 -42 34 -67 -35 -129 -88 -81
-203 -151 -618 -377 -219 -118 -448 -249 -511 -291 -483 -320 -854 -769 -1079
-1306 -29 -69 -57 -130 -63 -136 -6 -6 -67 -35 -136 -64 -173 -72 -336 -157
-485 -250 -166 -104 -335 -228 -335 -245 0 -25 152 -168 219 -207 36 -21 70
-39 75 -41 6 -2 -3 -30 -21 -63 -95 -179 -159 -502 -183 -914 -11 -195 -6
-231 32 -244 49 -17 80 2 194 119 145 147 305 348 584 731 123 170 275 378
338 463 l113 153 172 83 c95 45 246 112 337 148 91 36 325 129 520 207 422
168 878 316 1305 425 380 97 507 123 955 195 332 54 414 64 720 85 680 48
1123 31 2145 -80 731 -80 1924 -205 1957 -205 11 0 18 -5 16 -12 -2 -6 -103
-69 -224 -140 -120 -70 -234 -139 -252 -153 -31 -25 -32 -27 -17 -56 18 -35
82 -83 131 -99 19 -6 34 -15 34 -18 0 -4 -52 -45 -116 -91 -63 -45 -113 -88
-111 -94 8 -27 64 -42 169 -45 118 -4 211 15 418 84 184 63 523 233 809 407
l164 100 126 -6 c69 -3 236 -13 371 -23 201 -13 335 -15 745 -10 489 5 658 14
975 51 480 56 728 96 1136 185 240 53 296 61 480 75 586 42 900 130 1006 282
44 64 46 140 6 226 -35 74 -215 260 -346 359 -400 299 -749 461 -1277 594
-201 51 -234 56 -385 64 -382 21 -672 64 -1051 154 -58 14 -211 41 -340 61
-1447 221 -2401 393 -3779 680 -117 24 -407 57 -670 75 -161 11 -655 11 -940
-1z"/>
</g>
</svg>
