<?xml version="1.0" standalone="no"?>
<!DOCTYPE svg PUBLIC "-//W3C//DTD SVG 20010904//EN"
 "http://www.w3.org/TR/2001/REC-SVG-20010904/DTD/svg10.dtd">
<svg version="1.0" xmlns="http://www.w3.org/2000/svg"
 width="1536.000000pt" height="509.000000pt" viewBox="0 0 1536.000000 509.000000"
 preserveAspectRatio="xMidYMid meet">
<metadata>
Created by potrace 1.16, written by Peter Selinger 2001-2019
</metadata>
<g transform="translate(0.000000,509.000000) scale(0.100000,-0.100000)"
fill="#000000" stroke="none">
<path d="M7525 5073 l-300 -14 -595 -100 -595 -100 -360 -101 c-297 -83 -420
-123 -710 -233 -376 -142 -530 -207 -750 -318 -802 -400 -1454 -863 -2141
-1518 l-122 -117 -113 -6 c-63 -3 -197 -8 -299 -11 -221 -7 -588 -39 -679 -61
-294 -67 -615 -207 -595 -259 3 -8 52 -45 107 -84 123 -83 131 -91 162 -170
42 -107 118 -195 190 -218 l30 -10 -77 -78 c-122 -122 -126 -133 -193 -590
-28 -195 -75 -371 -136 -513 -67 -157 -123 -249 -266 -439 -110 -145 -104
-157 49 -103 333 117 774 396 1137 719 297 264 498 468 855 870 208 234 232
256 311 288 202 84 474 142 750 163 187 14 1265 -12 1440 -35 66 -9 318 -60
560 -115 789 -177 1390 -291 1895 -359 502 -68 1170 -130 1507 -140 116 -3
214 -8 216 -11 3 -3 2 -65 -2 -138 -31 -539 146 -735 500 -556 211 106 568
354 816 568 l111 96 509 0 c659 0 1073 13 1578 50 1588 116 2458 335 2941 740
102 86 111 107 96 210 -28 198 -163 464 -358 710 -93 117 -307 328 -439 433
-338 270 -1062 687 -1484 853 -229 91 -426 133 -739 159 -200 16 -336 41 -632
115 -666 166 -1228 273 -1875 355 -438 55 -576 64 -1200 75 -682 12 -710 11
-1100 -7z"/>
</g>
</svg>
