<?xml version="1.0" standalone="no"?>
<!DOCTYPE svg PUBLIC "-//W3C//DTD SVG 20010904//EN"
 "http://www.w3.org/TR/2001/REC-SVG-20010904/DTD/svg10.dtd">
<svg version="1.0" xmlns="http://www.w3.org/2000/svg"
 width="1536.000000pt" height="297.000000pt" viewBox="0 0 1536.000000 297.000000"
 preserveAspectRatio="xMidYMid meet">
<metadata>
Created by potrace 1.16, written by Peter Selinger 2001-2019
</metadata>
<g transform="translate(0.000000,297.000000) scale(0.100000,-0.100000)"
fill="#000000" stroke="none">
<path d="M4307 2959 c-49 -19 -46 -57 18 -169 14 -25 25 -54 25 -65 0 -23 -24
-62 -55 -87 -81 -67 -311 -138 -590 -183 -323 -51 -403 -66 -539 -101 -691
-174 -1344 -561 -1813 -1073 -76 -83 -324 -382 -338 -408 -1 -2 -138 -52 -304
-113 -167 -61 -364 -140 -438 -176 -114 -55 -146 -75 -204 -132 -38 -37 -69
-76 -69 -85 0 -28 34 -34 215 -41 469 -19 707 -58 1083 -177 68 -21 132 -39
144 -39 36 0 91 70 130 166 43 104 58 171 58 258 l0 64 108 20 c59 12 213 41
342 66 l235 45 620 7 c779 8 1228 -5 1460 -41 88 -13 660 -76 1270 -140 l1110
-115 1230 -50 c1048 -42 1356 -59 2085 -109 804 -56 1058 -80 1105 -104 11 -5
44 -34 74 -65 78 -78 138 -103 264 -109 129 -6 195 8 368 83 159 67 179 70
609 84 602 19 892 81 1585 336 l130 47 260 7 c232 7 279 11 430 39 190 36 286
62 360 99 64 31 85 50 85 75 0 33 -73 93 -133 111 -29 9 -62 25 -73 37 -27 31
-72 51 -219 99 -217 71 -311 125 -475 270 -145 129 -249 204 -317 230 -511
192 -1623 554 -2108 685 -1100 299 -2328 521 -3396 615 -659 57 -1019 63
-3044 50 l-770 -5 -52 28 c-29 15 -90 36 -135 47 -99 24 -291 35 -331 19z"/>
</g>
</svg>
