<?xml version="1.0" standalone="no"?>
<!DOCTYPE svg PUBLIC "-//W3C//DTD SVG 20010904//EN"
 "http://www.w3.org/TR/2001/REC-SVG-20010904/DTD/svg10.dtd">
<svg version="1.0" xmlns="http://www.w3.org/2000/svg"
 width="1536.000000pt" height="501.000000pt" viewBox="0 0 1536.000000 501.000000"
 preserveAspectRatio="xMidYMid meet">
<metadata>
Created by potrace 1.16, written by Peter Selinger 2001-2019
</metadata>
<g transform="translate(0.000000,501.000000) scale(0.100000,-0.100000)"
fill="#000000" stroke="none">
<path d="M6340 4914 l-1225 -95 -415 6 c-449 6 -526 12 -727 52 -149 29 -172
26 -218 -29 -48 -56 -24 -119 72 -190 31 -24 77 -62 102 -85 41 -37 46 -46 45
-82 -1 -25 -15 -69 -35 -109 -59 -121 -169 -217 -704 -620 -264 -198 -518
-395 -565 -437 -126 -114 -1120 -1126 -1203 -1226 -40 -47 -108 -129 -151
-183 -46 -56 -97 -108 -122 -122 -24 -14 -104 -40 -186 -59 -209 -49 -648
-200 -808 -278 -128 -62 -205 -117 -197 -141 7 -23 130 -78 322 -142 110 -37
201 -68 203 -69 2 -2 -15 -40 -38 -85 -23 -46 -59 -123 -81 -172 -42 -95 -181
-530 -205 -638 -16 -77 -18 -196 -3 -205 15 -10 67 27 299 209 255 200 371
318 633 641 l203 250 205 6 c254 8 361 23 679 95 215 49 423 110 910 269 1098
359 1945 529 3210 645 321 30 580 38 1385 44 569 5 810 2 1212 -12 276 -9 505
-21 509 -25 16 -15 -31 -79 -147 -202 -144 -152 -150 -161 -112 -176 44 -17
306 -3 473 25 347 59 592 159 913 370 l142 94 485 6 c626 7 944 31 1362 100
542 90 1093 244 1743 486 851 317 1079 462 1051 669 -3 24 -20 73 -38 108 -82
167 -206 248 -668 436 -993 404 -1894 635 -3200 821 -441 63 -542 72 -1177
111 l-563 35 -1072 -1 -1073 -1 -1225 -94z"/>
</g>
</svg>
