<?xml version="1.0" standalone="no"?>
<!DOCTYPE svg PUBLIC "-//W3C//DTD SVG 20010904//EN"
 "http://www.w3.org/TR/2001/REC-SVG-20010904/DTD/svg10.dtd">
<svg version="1.0" xmlns="http://www.w3.org/2000/svg"
 width="1536.000000pt" height="584.000000pt" viewBox="0 0 1536.000000 584.000000"
 preserveAspectRatio="xMidYMid meet">
<metadata>
Created by potrace 1.16, written by Peter Selinger 2001-2019
</metadata>
<g transform="translate(0.000000,584.000000) scale(0.100000,-0.100000)"
fill="#000000" stroke="none">
<path d="M6903 5816 c-19 -16 -35 -40 -38 -59 -9 -51 21 -168 81 -316 110
-269 108 -260 108 -481 l1 -195 -38 -80 c-63 -131 -162 -248 -288 -338 -125
-88 -327 -181 -1329 -608 l-1015 -433 -689 -408 c-894 -531 -1000 -610 -1526
-1137 -168 -168 -321 -314 -340 -323 -27 -13 -143 -27 -495 -58 -253 -23 -507
-50 -565 -61 -129 -25 -551 -160 -640 -205 -174 -88 -170 -162 10 -164 215 -2
531 -77 745 -175 163 -76 239 -96 396 -104 80 -5 155 -13 166 -19 13 -7 25
-30 32 -59 7 -26 53 -127 103 -223 l92 -175 -2 -92 c0 -51 3 -95 8 -98 19 -12
95 38 209 135 103 88 332 376 440 554 21 33 63 109 95 168 57 106 57 107 99
113 23 3 321 30 662 60 341 31 845 76 1120 101 1312 118 1124 105 1880 129
l450 15 1075 -39 1075 -40 680 -76 c374 -41 684 -77 688 -78 4 -1 -61 -43
-145 -92 -312 -183 -438 -278 -478 -361 -19 -39 -21 -49 -10 -75 18 -42 57
-59 168 -71 232 -24 525 15 874 118 127 37 153 41 145 22 -65 -147 -73 -205
-36 -264 41 -66 136 -67 314 -3 159 58 269 142 550 420 178 176 266 272 305
330 106 158 91 150 330 169 120 9 288 41 970 181 l825 170 370 34 c204 19 409
35 456 35 143 0 419 54 491 97 94 55 103 173 20 265 -19 21 -54 50 -76 63 -85
49 -280 114 -441 145 -300 60 -309 65 -570 320 -419 408 -794 672 -1325 934
-615 303 -1233 495 -1965 611 -192 30 -413 62 -490 70 -416 47 -821 131 -1125
233 -291 99 -621 250 -791 365 -46 31 -311 237 -589 457 -527 419 -640 501
-779 571 -66 33 -99 43 -150 47 -61 4 -69 2 -98 -22z"/>
</g>
</svg>
