<?xml version="1.0" standalone="no"?>
<!DOCTYPE svg PUBLIC "-//W3C//DTD SVG 20010904//EN"
 "http://www.w3.org/TR/2001/REC-SVG-20010904/DTD/svg10.dtd">
<svg version="1.0" xmlns="http://www.w3.org/2000/svg"
 width="1536.000000pt" height="870.000000pt" viewBox="0 0 1536.000000 870.000000"
 preserveAspectRatio="xMidYMid meet">
<metadata>
Created by potrace 1.16, written by Peter Selinger 2001-2019
</metadata>
<g transform="translate(0.000000,870.000000) scale(0.100000,-0.100000)"
fill="#000000" stroke="none">
<path d="M1950 8678 c-58 -11 -139 -33 -180 -50 -41 -16 -114 -43 -161 -59
-82 -29 -87 -32 -132 -93 l-46 -63 -73 -12 c-120 -21 -155 -52 -227 -197 -25
-50 -54 -93 -78 -113 -21 -18 -48 -41 -60 -51 -15 -11 -23 -30 -23 -48 0 -38
-66 -100 -135 -126 l-50 -19 33 -11 32 -11 -25 -38 c-24 -34 -24 -37 -7 -37
30 0 40 -21 30 -58 -7 -26 -20 -38 -67 -62 l-59 -29 -12 -66 c-15 -77 -17 -74
100 -167 41 -34 79 -67 84 -76 5 -8 6 -53 3 -100 -5 -64 -13 -98 -33 -138 -26
-51 -27 -58 -22 -166 3 -62 11 -126 18 -143 13 -34 44 -214 90 -537 l31 -217
-43 -40 c-30 -28 -38 -41 -26 -41 29 0 30 -18 3 -57 l-25 -38 30 -3 c38 -4 38
-3 -41 -176 -90 -197 -113 -220 -231 -240 l-73 -13 40 -21 c103 -55 113 -92
25 -92 -27 0 -50 -3 -50 -6 0 -3 16 -36 35 -73 23 -42 46 -72 66 -84 l32 -18
-6 -77 c-4 -62 -26 -140 -111 -397 -121 -365 -136 -420 -136 -513 0 -100 -2
-103 -86 -141 -41 -19 -77 -37 -79 -42 -3 -4 17 -56 45 -114 27 -59 47 -112
43 -118 -3 -5 -27 -38 -53 -72 -42 -56 -76 -129 -155 -336 -5 -13 11 -27 69
-59 65 -35 75 -45 71 -63 -27 -115 -105 -473 -105 -483 0 -7 9 -16 20 -19 25
-8 26 -35 3 -178 -15 -94 -15 -129 -6 -275 8 -118 19 -196 38 -267 17 -66 39
-216 65 -445 32 -285 44 -359 67 -425 25 -73 28 -93 28 -221 0 -136 -1 -142
-26 -175 -44 -58 -310 -349 -318 -349 -5 0 -25 -24 -46 -54 -34 -50 -37 -60
-39 -131 -3 -91 2 -97 110 -120 98 -21 140 -18 214 13 60 25 71 27 145 20 156
-14 302 31 388 120 l38 39 54 -15 c53 -15 55 -14 146 17 100 35 258 111 276
133 6 7 30 68 53 135 l42 122 35 -14 c37 -16 55 -13 49 8 -2 7 -9 44 -16 82
-11 60 -10 78 4 124 9 30 16 79 16 109 0 47 5 59 35 96 19 24 35 49 35 57 0 8
4 20 9 28 7 11 30 1 115 -53 155 -99 240 -131 421 -156 83 -11 244 -36 359
-56 l209 -36 79 -49 c68 -43 100 -55 236 -89 86 -22 164 -40 172 -40 8 0 21
-4 29 -9 11 -7 4 -21 -34 -67 -67 -83 -107 -174 -103 -238 l3 -51 38 -3 c32
-3 37 -7 37 -28 0 -20 9 -29 47 -46 54 -24 77 -25 120 -7 27 11 37 10 72 -5
37 -17 50 -18 153 -6 91 9 128 19 191 46 l77 35 74 -12 c65 -11 82 -10 142 6
38 10 85 30 104 45 19 15 53 30 74 33 46 7 85 32 232 148 93 74 115 96 133
138 l21 50 35 -15 c46 -19 45 -19 45 21 l0 35 35 -14 35 -15 0 59 c0 65 -2 63
85 75 28 4 70 19 95 35 39 23 65 29 165 39 135 14 151 16 575 100 1040 205
942 188 1220 206 697 44 720 46 1003 90 251 40 312 46 557 56 l275 10 485 100
c472 98 499 102 1010 164 554 67 1084 112 1655 140 171 8 400 24 510 35 110
11 218 20 240 20 21 0 125 -24 230 -54 104 -30 298 -78 430 -107 l240 -52 430
6 c460 7 794 -4 936 -28 98 -17 131 -13 245 30 36 14 84 25 105 25 36 0 39 2
39 29 0 20 6 30 20 34 16 4 18 10 12 28 -6 15 -47 43 -128 86 l-119 63 51 0
c63 0 84 20 84 76 -1 37 -6 43 -114 136 -98 83 -136 108 -267 174 -162 81
-249 136 -249 160 0 18 28 18 74 -1 57 -24 116 -3 116 40 0 12 -6 27 -12 32
-38 30 -331 100 -538 128 -63 9 -145 25 -181 35 -106 32 -276 59 -465 75 -96
8 -195 20 -221 26 -26 5 -75 9 -108 7 -57 -2 -63 0 -115 39 -30 22 -64 45 -75
51 -18 9 -106 22 -262 38 -48 4 -79 16 -140 51 -225 131 -302 171 -343 178
-25 4 -71 16 -102 26 -31 10 -110 25 -175 34 -108 15 -131 22 -268 85 -187 85
-552 222 -671 251 -49 12 -138 41 -199 64 -60 24 -171 57 -245 75 -124 29
-331 106 -452 166 -86 44 -242 101 -348 129 -188 49 -263 75 -385 135 -142 71
-230 94 -552 145 -122 19 -313 57 -425 84 -219 53 -420 95 -508 106 -30 4 -83
20 -116 37 -57 27 -78 30 -255 44 -284 21 -360 31 -389 54 -57 44 -189 116
-284 155 -210 87 -519 197 -761 270 -137 42 -340 105 -450 140 -110 35 -272
82 -360 104 -88 22 -212 54 -275 71 -63 17 -160 40 -215 51 -177 35 -162 26
-237 143 -38 57 -68 107 -68 110 0 3 14 3 30 0 37 -8 37 2 -1 46 -23 27 -26
36 -14 38 26 6 17 25 -57 112 -94 113 -148 198 -209 328 -46 96 -56 134 -106
367 -48 230 -55 279 -61 424 l-7 164 95 80 c52 44 116 94 141 110 40 24 48 35
53 68 10 65 -17 92 -118 124 l-84 25 -27 70 c-19 49 -25 79 -20 100 6 28 4 31
-42 51 -26 11 -80 41 -119 67 -60 39 -79 58 -118 122 -99 162 -142 219 -206
270 -36 29 -92 79 -125 111 -52 50 -84 69 -245 143 -247 114 -485 206 -655
254 -136 39 -147 41 -375 51 -276 13 -248 14 -380 -11z"/>
</g>
</svg>
