<?xml version="1.0" standalone="no"?>
<!DOCTYPE svg PUBLIC "-//W3C//DTD SVG 20010904//EN"
 "http://www.w3.org/TR/2001/REC-SVG-20010904/DTD/svg10.dtd">
<svg version="1.0" xmlns="http://www.w3.org/2000/svg"
 width="1536.000000pt" height="539.000000pt" viewBox="0 0 1536.000000 539.000000"
 preserveAspectRatio="xMidYMid meet">
<metadata>
Created by potrace 1.16, written by Peter Selinger 2001-2019
</metadata>
<g transform="translate(0.000000,539.000000) scale(0.100000,-0.100000)"
fill="#000000" stroke="none">
<path d="M5425 5383 c-315 -7 -402 -19 -917 -123 -692 -140 -931 -216 -1391
-446 -399 -200 -620 -361 -1070 -781 -131 -123 -257 -234 -281 -248 -24 -14
-162 -61 -307 -104 -315 -95 -304 -91 -499 -176 -217 -93 -606 -302 -645 -344
-15 -18 -15 -20 17 -43 18 -14 64 -42 101 -62 90 -50 186 -141 225 -215 39
-72 40 -92 3 -150 -52 -84 -535 -1005 -582 -1111 -88 -197 -104 -365 -36 -378
27 -5 140 52 241 122 287 200 678 546 1152 1020 305 306 373 377 645 686 75
85 175 196 221 245 l85 90 269 -3 c276 -2 691 -24 824 -43 110 -15 496 -131
662 -198 141 -57 335 -163 992 -541 989 -569 1976 -1000 2851 -1244 283 -79
834 -190 1060 -214 l70 -7 7 -65 c16 -144 30 -222 52 -287 66 -196 125 -240
284 -216 75 11 65 23 113 -137 45 -149 87 -236 149 -303 146 -159 214 -144
448 98 212 219 431 493 612 765 56 85 106 159 110 163 4 4 105 23 226 42 423
66 717 128 1052 221 912 254 1708 637 2502 1203 l135 96 171 0 170 0 57 38
c80 52 124 122 142 223 17 96 19 201 4 297 -11 70 -102 316 -156 422 -38 76
-124 177 -195 230 -163 123 -345 175 -610 175 -136 0 -173 -8 -183 -39 -15
-47 -167 -57 -250 -16 -40 20 -66 24 -129 25 -69 0 -83 3 -104 23 -20 19 -38
23 -125 28 -77 4 -113 11 -144 27 -27 14 -61 22 -95 22 -32 0 -71 9 -98 21
-52 24 -97 27 -131 8 -88 -47 -1392 6 -1784 72 -33 6 -292 87 -575 180 -682
225 -1354 427 -1790 538 -580 147 -1459 315 -1985 380 -261 33 -976 48 -1570
34z"/>
</g>
</svg>
