<?xml version="1.0" standalone="no"?>
<!DOCTYPE svg PUBLIC "-//W3C//DTD SVG 20010904//EN"
 "http://www.w3.org/TR/2001/REC-SVG-20010904/DTD/svg10.dtd">
<svg version="1.0" xmlns="http://www.w3.org/2000/svg"
 width="1060.000000pt" height="1585.000000pt" viewBox="0 0 1060.000000 1585.000000"
 preserveAspectRatio="xMidYMid meet">
<metadata>
Created by potrace 1.16, written by Peter Selinger 2001-2019
</metadata>
<g transform="translate(0.000000,1585.000000) scale(0.100000,-0.100000)"
fill="#000000" stroke="none">
<path d="M10010 15820 c-94 -13 -223 -72 -407 -189 -151 -95 -177 -107 -263
-125 -285 -60 -441 -125 -725 -306 -355 -226 -611 -408 -765 -546 -30 -27 -82
-72 -115 -99 -189 -156 -448 -403 -550 -525 -185 -221 -289 -467 -374 -882
-145 -710 -158 -756 -259 -958 -42 -86 -35 -81 -297 -196 -305 -134 -393 -183
-660 -364 -38 -26 -106 -69 -150 -97 -550 -342 -680 -430 -880 -596 -287 -239
-549 -491 -737 -707 -378 -435 -488 -544 -878 -874 -331 -280 -423 -361 -660
-590 -586 -564 -835 -853 -1187 -1381 -223 -333 -618 -1068 -733 -1361 -117
-297 -231 -658 -275 -867 -74 -348 -82 -551 -34 -880 40 -284 48 -316 140
-558 86 -228 103 -266 159 -349 20 -30 65 -104 100 -165 34 -60 116 -189 181
-285 104 -156 136 -195 286 -346 126 -128 203 -196 311 -275 153 -112 432
-287 528 -331 313 -145 639 -256 859 -293 77 -13 183 -35 235 -49 52 -14 147
-33 210 -42 63 -8 180 -27 260 -41 136 -23 158 -24 365 -18 255 7 308 13 505
60 80 18 188 39 240 45 52 6 148 18 213 26 101 14 138 15 247 4 71 -6 134 -8
140 -5 13 8 240 -14 241 -24 0 -3 2 -76 4 -161 8 -280 61 -490 207 -820 28
-63 68 -143 89 -177 47 -79 160 -224 221 -286 60 -60 93 -62 186 -11 187 105
602 461 782 672 52 61 99 111 103 111 17 2 37 -71 37 -132 0 -75 -34 -273 -56
-325 -8 -20 -24 -46 -35 -58 -12 -13 -19 -32 -17 -45 2 -19 10 -24 43 -26 25
-1 50 5 72 18 36 22 99 113 141 201 26 55 29 58 64 58 48 0 58 -18 58 -110 0
-79 -3 -85 -86 -182 -47 -55 -56 -94 -28 -122 24 -25 61 -30 88 -13 25 17 95
112 136 185 l23 42 19 -30 c10 -17 24 -30 32 -30 14 0 26 -21 26 -45 0 -19
-86 -121 -124 -148 -47 -32 -128 -126 -124 -144 5 -28 40 -44 65 -30 59 33
147 77 154 77 23 0 133 85 207 158 46 45 88 82 94 82 6 0 37 26 69 58 32 31
99 95 149 142 50 47 139 144 198 215 59 72 125 150 148 175 38 41 99 134 366
553 172 268 310 579 479 1072 63 187 104 426 93 557 -6 75 -15 109 -60 220
-30 73 -54 139 -54 148 0 9 15 24 34 32 18 9 49 30 67 46 19 16 60 46 93 67
94 60 171 147 221 250 45 92 131 340 158 455 9 36 27 101 40 145 14 44 37 148
52 230 30 166 30 262 -1 411 -20 100 -101 288 -164 379 -26 39 -62 100 -80
135 -18 36 -59 106 -90 155 -31 50 -73 122 -93 161 -20 39 -62 105 -94 145
-142 179 -378 537 -444 674 -64 132 -85 206 -94 340 -8 106 15 284 43 348 53
118 309 400 409 450 28 14 53 34 55 44 7 26 -8 62 -28 70 -21 8 -111 -10 -224
-44 -112 -34 -129 -44 -213 -117 -129 -111 -171 -132 -129 -64 11 18 40 71 64
118 69 133 109 202 135 234 14 16 40 61 60 100 20 39 66 118 103 176 98 153
320 520 378 626 160 290 253 509 423 998 84 240 118 368 159 586 77 411 96
651 86 1079 -19 838 -26 1082 -35 1136 -5 33 -10 122 -10 198 l-1 137 39 78
c21 42 58 129 81 192 24 63 45 117 46 119 9 10 14 -11 35 -139 17 -110 20
-160 16 -270 -6 -148 8 -331 28 -369 12 -23 13 -24 22 -5 6 10 13 141 17 290
6 262 5 275 -18 387 -14 63 -34 134 -46 157 l-21 42 31 79 c18 43 35 79 39 79
9 0 56 -192 81 -330 58 -322 88 -466 142 -683 32 -131 64 -247 71 -258 8 -13
21 -19 37 -17 41 5 37 53 -29 314 -33 132 -73 307 -90 389 -16 83 -41 211 -56
285 -15 74 -33 151 -42 170 -12 30 -43 157 -43 178 0 4 22 -29 48 -73 27 -44
85 -136 131 -203 68 -102 86 -123 104 -120 16 2 23 11 25 33 3 33 -9 53 -155
255 -49 69 -92 136 -96 150 -3 14 -13 48 -21 77 l-15 52 41 93 c39 88 95 232
159 413 15 44 33 110 40 147 16 90 3 132 -55 186 l-43 40 22 24 c62 64 82 219
46 361 -22 86 -43 126 -106 212 -25 33 -68 98 -96 145 -99 163 -132 181 -289
160z m-2727 -9681 c12 -7 38 -25 57 -42 19 -16 57 -41 86 -54 29 -13 58 -31
66 -40 7 -9 36 -31 65 -50 28 -18 55 -38 59 -44 3 -6 32 -27 63 -48 92 -59
190 -140 285 -236 105 -106 298 -389 349 -514 29 -71 31 -84 31 -201 1 -110
-2 -130 -22 -167 -12 -23 -37 -54 -56 -68 -33 -25 -37 -26 -95 -15 -62 11
-153 42 -226 78 -43 21 -121 46 -252 83 -59 16 -84 28 -91 43 -5 12 -37 58
-70 102 -34 45 -89 121 -123 170 -34 49 -84 114 -110 145 -56 64 -117 166
-193 324 -29 61 -67 132 -84 159 l-31 49 25 31 c14 17 73 93 131 169 59 75
108 137 110 137 3 0 14 -5 26 -11z"/>
</g>
</svg>
