<?xml version="1.0" standalone="no"?>
<!DOCTYPE svg PUBLIC "-//W3C//DTD SVG 20010904//EN"
 "http://www.w3.org/TR/2001/REC-SVG-20010904/DTD/svg10.dtd">
<svg version="1.0" xmlns="http://www.w3.org/2000/svg"
 width="832.000000pt" height="677.000000pt" viewBox="0 0 832.000000 677.000000"
 preserveAspectRatio="xMidYMid meet">
<metadata>
Created by potrace 1.16, written by Peter Selinger 2001-2019
</metadata>
<g transform="translate(0.000000,677.000000) scale(0.100000,-0.100000)"
fill="#000000" stroke="none">
<path d="M3112 6712 c-16 -15 -39 -47 -51 -70 -23 -45 -38 -50 -88 -31 -43 16
-206 49 -323 65 -238 32 -368 10 -516 -86 -68 -45 -68 -45 -86 -27 -13 12 -42
33 -97 69 -14 10 -31 18 -37 18 -20 0 -45 -85 -51 -174 -3 -47 -11 -90 -17
-94 -24 -18 -95 -31 -183 -35 -58 -2 -97 -8 -108 -17 -38 -32 -49 -72 -50
-190 l-2 -115 -44 -20 c-24 -11 -102 -50 -174 -87 -165 -85 -419 -211 -465
-231 -116 -51 -242 -76 -379 -77 -83 0 -100 -3 -158 -31 -96 -46 -124 -93
-183 -304 -5 -16 -16 -55 -24 -85 -26 -89 -46 -275 -46 -429 0 -145 16 -317
31 -336 4 -6 11 -33 14 -61 16 -116 108 -236 265 -343 92 -63 395 -223 456
-241 77 -23 363 -60 459 -59 93 0 243 29 350 68 90 32 98 30 120 -32 33 -94
65 -143 138 -214 112 -109 226 -153 393 -153 80 0 102 -4 142 -24 26 -13 79
-34 117 -46 39 -12 80 -26 93 -31 16 -6 37 -38 68 -104 24 -52 44 -97 44 -100
0 -3 9 -26 20 -51 11 -24 29 -65 41 -91 90 -209 162 -337 245 -440 24 -29 44
-63 44 -75 0 -40 78 -182 132 -243 34 -38 59 -77 67 -105 7 -25 17 -54 21 -65
4 -11 26 -76 48 -145 38 -116 74 -220 139 -395 14 -38 26 -79 26 -90 0 -40
-25 -191 -35 -220 -35 -94 -226 -296 -362 -383 -116 -75 -226 -200 -226 -257
0 -9 14 -22 30 -28 21 -8 30 -18 30 -33 0 -35 23 -45 107 -47 72 -2 78 -4 75
-22 -2 -16 6 -24 31 -33 41 -15 136 -16 173 -2 23 9 31 7 51 -12 21 -20 35
-23 101 -22 85 0 98 6 232 98 69 48 74 54 126 157 66 134 93 210 174 509 5 19
16 87 25 150 9 63 25 147 35 185 10 39 24 98 31 133 19 91 32 95 58 20 12 -35
26 -72 31 -83 4 -11 21 -60 36 -110 16 -49 44 -121 62 -160 34 -69 34 -71 28
-169 -10 -153 -45 -214 -242 -423 -69 -73 -146 -144 -188 -173 -79 -53 -121
-95 -161 -164 -30 -51 -27 -62 21 -82 21 -9 34 -22 36 -36 6 -42 79 -61 183
-46 13 2 21 -4 23 -17 7 -32 19 -41 78 -55 43 -11 62 -11 88 -2 49 18 90 15
111 -8 15 -17 31 -20 92 -20 83 0 129 17 228 86 86 61 101 80 124 164 11 41
29 100 40 130 18 51 55 194 96 364 9 38 21 121 26 185 6 64 17 143 25 176 8
33 19 76 23 95 28 118 106 388 116 398 3 3 32 9 63 13 31 4 78 12 104 19 37 9
68 9 135 -1 243 -33 428 -44 523 -31 106 15 113 2 30 -55 -58 -39 -123 -110
-149 -162 -12 -22 -21 -42 -21 -45 0 -3 16 -8 35 -12 19 -3 35 -10 35 -14 0
-26 35 -40 98 -40 54 0 71 -4 84 -19 22 -26 96 -36 143 -21 30 10 42 9 72 -5
65 -31 134 -17 236 49 99 64 113 86 156 246 42 154 54 195 63 205 4 5 8 17 8
26 0 12 18 21 63 34 103 29 331 106 342 116 5 5 20 9 32 9 27 0 27 3 -3 -147
-15 -78 -20 -94 -55 -168 -37 -80 -139 -220 -189 -260 -141 -112 -204 -191
-179 -221 6 -8 23 -14 36 -14 16 0 27 -7 30 -20 7 -25 72 -44 131 -37 33 4 47
0 60 -13 29 -30 97 -43 152 -29 41 11 53 10 83 -4 72 -34 154 -18 244 47 23
17 60 44 81 60 44 31 58 71 87 241 8 50 26 135 40 190 13 55 34 143 46 195 12
52 30 113 40 134 11 22 19 43 19 47 0 4 29 68 65 143 48 102 78 151 120 196
113 123 234 336 304 534 62 175 80 273 88 463 8 218 -18 390 -97 648 -38 124
-111 270 -184 370 -164 221 -401 380 -791 530 -33 13 -85 33 -115 44 -69 27
-242 86 -295 101 -96 27 -143 39 -195 49 -99 20 -293 41 -380 41 -101 0 -343
-22 -530 -49 -285 -41 -349 -45 -481 -32 -68 7 -160 22 -204 32 -124 30 -301
92 -327 114 -13 11 -53 39 -89 62 -36 24 -76 55 -89 70 -12 16 -55 62 -94 103
-75 80 -184 202 -232 260 -16 19 -35 42 -44 50 -8 8 -44 49 -80 90 -35 41 -71
82 -80 90 -8 8 -40 44 -70 79 -29 35 -104 106 -164 157 -61 52 -122 105 -136
117 -14 12 -71 56 -127 97 l-102 75 -1 70 c-1 88 -22 190 -47 224 -27 36 -99
71 -149 71 -32 0 -49 -7 -72 -28z"/>
</g>
</svg>
