<?xml version="1.0" standalone="no"?>
<!DOCTYPE svg PUBLIC "-//W3C//DTD SVG 20010904//EN"
 "http://www.w3.org/TR/2001/REC-SVG-20010904/DTD/svg10.dtd">
<svg version="1.0" xmlns="http://www.w3.org/2000/svg"
 width="1536.000000pt" height="515.000000pt" viewBox="0 0 1536.000000 515.000000"
 preserveAspectRatio="xMidYMid meet">
<metadata>
Created by potrace 1.16, written by Peter Selinger 2001-2019
</metadata>
<g transform="translate(0.000000,515.000000) scale(0.100000,-0.100000)"
fill="#000000" stroke="none">
<path d="M4218 5133 c-32 -20 -45 -47 -54 -110 -8 -67 16 -155 82 -295 100
-212 98 -270 -14 -376 -37 -35 -103 -88 -147 -117 -89 -58 -489 -261 -630
-320 -116 -48 -486 -233 -584 -293 -401 -243 -652 -442 -991 -788 -167 -170
-468 -517 -563 -650 -42 -58 -55 -64 -146 -64 -85 0 -390 -72 -501 -117 -298
-123 -590 -297 -590 -353 0 -32 77 -145 137 -200 38 -34 94 -72 143 -96 44
-21 80 -44 80 -52 0 -7 -18 -50 -39 -95 -47 -99 -98 -275 -117 -406 -34 -226
-100 -414 -214 -606 -43 -73 -63 -117 -64 -142 -1 -49 21 -63 67 -41 18 9 204
160 413 336 364 308 391 333 673 630 236 248 301 311 325 315 17 3 166 30 331
60 581 107 1029 168 1580 216 650 57 1586 67 1940 21 39 -5 653 -61 1365 -124
l1295 -115 485 -10 c600 -13 688 -17 714 -34 13 -9 24 -35 32 -77 22 -108 92
-152 237 -151 144 1 293 46 537 161 91 44 200 91 244 105 l78 26 262 -6 c178
-4 451 0 856 14 l595 19 825 126 c454 69 861 135 905 147 92 24 142 50 211
111 90 80 120 96 334 174 374 137 612 380 870 889 141 279 190 468 177 685
-14 235 -155 462 -372 603 -192 123 -471 224 -826 298 -193 40 -463 101 -1489
339 -662 153 -853 194 -1015 215 l-198 27 -2091 -5 c-2403 -6 -2194 2 -3056
-108 -453 -57 -498 -61 -681 -61 -280 1 -373 20 -806 167 -420 143 -540 168
-605 128z"/>
</g>
</svg>
