<?xml version="1.0" standalone="no"?>
<!DOCTYPE svg PUBLIC "-//W3C//DTD SVG 20010904//EN"
 "http://www.w3.org/TR/2001/REC-SVG-20010904/DTD/svg10.dtd">
<svg version="1.0" xmlns="http://www.w3.org/2000/svg"
 width="1536.000000pt" height="445.000000pt" viewBox="0 0 1536.000000 445.000000"
 preserveAspectRatio="xMidYMid meet">
<metadata>
Created by potrace 1.16, written by Peter Selinger 2001-2019
</metadata>
<g transform="translate(0.000000,445.000000) scale(0.100000,-0.100000)"
fill="#000000" stroke="none">
<path d="M6318 4431 c-31 -10 -79 -31 -105 -47 -65 -37 -533 -349 -713 -475
-283 -197 -589 -378 -885 -524 -336 -165 -595 -264 -950 -360 -510 -139 -890
-345 -1214 -660 -112 -109 -258 -277 -297 -344 -13 -22 -39 -34 -172 -74 -356
-109 -695 -261 -928 -416 -154 -102 -326 -250 -417 -359 -98 -116 -185 -213
-328 -367 -270 -291 -346 -427 -287 -515 13 -19 41 -44 62 -54 35 -17 46 -18
95 -8 31 7 96 28 145 47 297 116 832 204 1179 193 l99 -3 28 -110 c35 -135 63
-216 91 -261 48 -78 134 -111 203 -79 46 22 253 236 339 351 63 84 197 328
197 358 0 10 18 16 63 20 34 3 114 11 177 16 322 30 711 113 1074 230 232 74
283 88 409 110 364 62 713 21 1113 -130 72 -28 191 -57 420 -104 917 -186
1736 -286 2550 -312 l222 -7 4 -71 c8 -112 60 -191 158 -235 56 -25 165 -27
360 -6 468 50 843 175 1162 386 l87 57 141 -11 c213 -16 541 11 809 68 41 8
158 42 260 75 789 252 1390 340 2016 296 747 -52 1302 -38 1579 40 111 31 175
65 226 120 101 110 87 309 -30 406 -127 105 -345 146 -975 183 -361 20 -493
59 -674 195 -125 94 -216 213 -320 416 -140 274 -398 457 -726 515 -80 15
-234 16 -555 5 -180 -7 -252 -5 -360 7 -241 29 -523 96 -685 163 -586 246
-980 378 -1403 473 -224 50 -363 73 -687 111 -726 86 -1255 193 -1666 336
-205 71 -414 176 -489 244 -66 61 -113 90 -178 110 -79 24 -149 25 -224 1z"/>
</g>
</svg>
