<?xml version="1.0" standalone="no"?>
<!DOCTYPE svg PUBLIC "-//W3C//DTD SVG 20010904//EN"
 "http://www.w3.org/TR/2001/REC-SVG-20010904/DTD/svg10.dtd">
<svg version="1.0" xmlns="http://www.w3.org/2000/svg"
 width="1536.000000pt" height="331.000000pt" viewBox="0 0 1536.000000 331.000000"
 preserveAspectRatio="xMidYMid meet">
<metadata>
Created by potrace 1.16, written by Peter Selinger 2001-2019
</metadata>
<g transform="translate(0.000000,331.000000) scale(0.100000,-0.100000)"
fill="#000000" stroke="none">
<path d="M4809 3296 c-473 -41 -792 -104 -1164 -230 -624 -211 -1229 -550
-1735 -970 -309 -257 -641 -606 -1007 -1057 -150 -185 -198 -238 -220 -242
-33 -7 -221 9 -278 24 -22 5 -74 22 -116 36 -74 26 -78 26 -103 10 -40 -27
-114 -124 -149 -197 -28 -56 -32 -76 -32 -145 0 -70 4 -87 30 -133 52 -96 181
-197 324 -255 62 -25 89 -30 148 -29 68 1 76 -2 120 -34 85 -61 129 -77 195
-70 98 10 297 108 341 167 17 24 18 31 7 85 -7 33 -13 102 -14 154 -1 85 2
100 26 145 49 92 117 141 353 253 406 192 860 337 1335 426 634 119 964 137
1905 106 696 -23 821 -34 1310 -106 532 -79 602 -96 787 -191 212 -110 364
-96 588 52 106 71 158 95 207 95 20 0 948 174 1278 240 83 16 407 103 722 193
l572 164 2463 -173 c1355 -95 2507 -173 2561 -174 78 0 97 3 97 15 0 8 -16 19
-37 25 -33 9 -1342 181 -3923 516 -404 52 -797 103 -873 113 -224 31 -267 65
-267 211 0 144 -48 265 -145 365 -171 177 -382 235 -950 260 -116 5 -1105 91
-2023 175 -117 11 -409 47 -650 80 -660 92 -750 100 -1167 105 -247 3 -409 0
-516 -9z"/>
</g>
</svg>
