<?xml version="1.0" standalone="no"?>
<!DOCTYPE svg PUBLIC "-//W3C//DTD SVG 20010904//EN"
 "http://www.w3.org/TR/2001/REC-SVG-20010904/DTD/svg10.dtd">
<svg version="1.0" xmlns="http://www.w3.org/2000/svg"
 width="1536.000000pt" height="1315.000000pt" viewBox="0 0 1536.000000 1315.000000"
 preserveAspectRatio="xMidYMid meet">
<metadata>
Created by potrace 1.16, written by Peter Selinger 2001-2019
</metadata>
<g transform="translate(0.000000,1315.000000) scale(0.100000,-0.100000)"
fill="#000000" stroke="none">
<path d="M3999 13131 c-18 -20 -21 -21 -399 -56 -566 -52 -947 -54 -1148 -5
-101 24 -150 25 -273 4 -119 -20 -241 -61 -394 -131 -66 -30 -163 -73 -215
-95 -93 -40 -95 -40 -145 -27 -27 7 -78 13 -112 12 -74 -1 -159 -38 -291 -126
-46 -31 -165 -97 -264 -148 -140 -71 -194 -104 -240 -148 l-60 -56 -1 -68 -2
-67 -37 0 c-42 0 -57 -14 -31 -29 17 -9 16 -12 -9 -38 -26 -27 -26 -30 -12
-45 15 -15 15 -16 -4 -22 -11 -4 -31 -30 -46 -61 -19 -41 -35 -60 -61 -72 -30
-14 -32 -18 -18 -28 29 -21 8 -48 -32 -43 -35 4 -36 3 -29 -25 5 -24 2 -29
-16 -34 -18 -5 -21 -12 -18 -39 4 -30 1 -34 -20 -34 -21 0 -24 -4 -20 -30 4
-28 3 -30 -30 -30 -26 0 -33 -3 -28 -15 3 -8 -6 -36 -19 -62 -24 -44 -31 -94
-19 -127 5 -12 20 -16 59 -16 85 0 82 -21 -9 -55 -31 -11 -44 -20 -36 -25 14
-8 43 -1 103 24 30 13 37 14 37 3 0 -20 -29 -43 -83 -66 -27 -12 -45 -25 -42
-31 11 -17 43 -11 95 18 50 26 51 27 65 8 13 -17 13 -22 -3 -39 -9 -11 -44
-33 -77 -48 -41 -19 -53 -28 -37 -29 13 0 44 11 70 25 57 30 64 31 87 5 15
-17 16 -22 4 -37 -20 -26 -27 -30 -101 -58 -36 -15 -72 -33 -79 -41 -26 -32 6
-25 94 19 56 29 105 47 126 47 l33 0 -18 -27 c-25 -39 -37 -48 -139 -99 -104
-52 -119 -64 -85 -64 35 1 94 29 174 84 100 68 150 57 98 -22 -9 -14 -57 -52
-107 -85 -85 -55 -88 -58 -50 -52 53 9 82 25 146 81 52 44 139 94 167 94 20 0
-45 -85 -117 -152 -62 -58 -146 -108 -183 -108 -10 0 -18 -4 -18 -10 0 -17 43
-11 97 14 29 14 91 54 139 91 47 36 89 64 91 61 21 -21 -128 -186 -222 -245
-48 -31 -48 -31 -18 -31 18 0 47 12 71 30 41 30 72 39 72 21 0 -5 -24 -30 -52
-54 -29 -25 -50 -49 -45 -53 4 -4 15 0 25 9 10 10 21 17 24 17 3 0 -10 -43
-28 -95 -163 -467 -241 -1250 -214 -2147 6 -200 15 -428 20 -508 5 -80 14
-262 20 -406 10 -260 29 -434 51 -477 17 -32 50 -67 65 -67 7 0 14 -5 16 -11
6 -17 86 21 122 57 16 16 41 54 55 84 l26 55 1 325 c1 373 2 394 83 950 22
151 42 289 44 305 5 49 15 -147 37 -730 11 -302 25 -594 30 -648 10 -102 37
-182 71 -213 17 -16 21 -15 73 10 59 29 101 74 137 149 13 26 27 47 32 47 5 0
38 -30 74 -67 64 -67 64 -69 59 -113 -4 -25 -20 -88 -36 -140 -57 -180 -59
-336 -6 -542 29 -110 59 -189 157 -410 l69 -157 -25 -37 c-31 -45 -42 -87 -51
-182 -6 -66 -5 -77 19 -120 14 -26 35 -73 47 -104 11 -31 32 -73 45 -93 23
-32 25 -46 25 -138 0 -173 23 -297 118 -665 l47 -183 88 -46 c121 -63 130 -76
122 -180 -7 -81 -7 -84 21 -121 16 -20 74 -82 129 -137 122 -122 160 -189 234
-420 29 -88 66 -190 83 -227 l31 -68 68 0 c42 0 69 -4 69 -11 0 -6 -11 -25
-25 -43 -63 -82 -95 -202 -95 -351 -1 -119 14 -191 57 -288 23 -51 24 -59 11
-70 -247 -195 -411 -297 -938 -587 -482 -265 -688 -392 -887 -548 -82 -64 -82
-65 -68 -92 17 -33 78 -88 114 -101 83 -32 196 -26 282 15 27 12 49 22 49 21
0 -1 -6 -21 -14 -43 -12 -34 -12 -43 -1 -59 12 -16 29 -18 167 -17 86 1 231
11 331 23 98 11 209 21 247 21 l70 0 0 -50 c0 -93 37 -144 113 -157 48 -7 112
16 237 87 58 33 110 60 115 60 7 0 10 -20 7 -57 -4 -55 -2 -61 44 -129 l48
-71 23 27 c13 16 56 41 101 59 72 29 80 35 100 77 47 97 166 191 265 209 28 5
47 20 78 56 42 50 65 61 75 34 9 -22 -20 -97 -56 -150 -18 -26 -30 -48 -28
-50 2 -2 32 3 66 12 78 19 92 10 63 -38 -12 -19 -21 -44 -21 -56 0 -20 4 -22
33 -17 61 12 162 57 292 132 171 99 198 110 308 128 103 17 160 44 291 138 44
32 118 78 164 104 47 26 104 64 128 85 39 34 47 50 75 138 17 54 38 108 48
121 18 22 18 22 74 4 53 -16 60 -17 112 -1 32 9 94 42 148 79 90 61 92 63 100
112 25 159 102 279 213 334 l41 20 89 -44 c223 -111 479 -188 763 -231 91 -14
382 -32 496 -32 23 0 79 -15 130 -35 235 -93 514 -127 1265 -153 589 -20 795
-34 1255 -80 132 -14 344 -29 470 -35 345 -16 557 -49 666 -105 21 -11 46 -14
96 -9 124 12 382 -26 543 -79 l75 -25 -115 -1 c-617 -6 -1193 -107 -1644 -288
-216 -86 -585 -297 -572 -326 3 -7 10 -31 17 -54 6 -24 16 -43 23 -43 44 -1
229 -32 267 -45 71 -24 116 -68 134 -127 8 -29 15 -61 15 -73 0 -15 22 -34 91
-75 51 -29 115 -75 143 -101 l51 -47 -30 -32 c-16 -17 -65 -56 -107 -86 -111
-78 -163 -174 -94 -174 14 0 43 -7 64 -16 31 -12 71 -14 193 -12 134 4 169 8
269 35 63 17 198 45 300 63 198 33 346 68 438 102 31 11 152 65 268 118 258
120 306 135 508 161 121 15 185 28 259 54 53 19 141 51 195 70 61 21 219 59
427 100 657 131 722 156 1140 443 l150 102 140 4 c159 4 224 20 336 86 121 71
210 168 289 316 31 58 41 68 85 87 157 69 306 178 349 257 15 28 37 57 49 64
12 8 59 19 104 24 57 7 92 17 115 33 87 60 175 138 245 217 201 230 245 345
385 1032 69 338 73 362 76 513 5 238 -38 419 -149 641 -89 176 -166 283 -410
572 -124 146 -131 153 -228 208 -55 31 -216 133 -358 227 -303 200 -350 227
-650 365 -615 285 -747 368 -1075 680 -253 240 -322 293 -508 388 -173 88
-310 144 -650 266 -153 55 -329 127 -440 180 -102 49 -216 98 -255 109 -301
87 -639 146 -1100 191 -359 35 -514 65 -630 120 -84 41 -125 77 -218 199 -109
141 -166 197 -235 229 -54 25 -65 27 -236 29 -98 1 -182 5 -186 10 -4 4 -18
42 -30 83 -95 304 -566 965 -1027 1442 -350 363 -402 447 -512 830 -77 266
-115 369 -206 553 -165 335 -291 504 -826 1105 -365 410 -522 551 -739 664
-174 90 -333 135 -527 152 -46 3 -83 11 -83 15 0 16 -65 8 -81 -10z"/>
</g>
</svg>
