<?xml version="1.0" standalone="no"?>
<!DOCTYPE svg PUBLIC "-//W3C//DTD SVG 20010904//EN"
 "http://www.w3.org/TR/2001/REC-SVG-20010904/DTD/svg10.dtd">
<svg version="1.0" xmlns="http://www.w3.org/2000/svg"
 width="1536.000000pt" height="413.000000pt" viewBox="0 0 1536.000000 413.000000"
 preserveAspectRatio="xMidYMid meet">
<metadata>
Created by potrace 1.16, written by Peter Selinger 2001-2019
</metadata>
<g transform="translate(0.000000,413.000000) scale(0.100000,-0.100000)"
fill="#000000" stroke="none">
<path d="M6955 4116 c-55 -7 -125 -18 -155 -24 -106 -21 -278 -31 -645 -37
-203 -3 -410 -10 -460 -16 -120 -13 -184 -45 -304 -154 -114 -104 -425 -321
-736 -515 -299 -186 -1330 -883 -1639 -1108 -240 -175 -527 -392 -704 -534
l-93 -75 -352 -6 c-460 -8 -715 -31 -1042 -93 -267 -51 -629 -155 -750 -215
-101 -51 -96 -117 14 -188 69 -44 265 -112 481 -166 80 -20 235 -61 345 -90
199 -54 334 -75 483 -75 34 0 62 -3 62 -7 0 -5 -16 -57 -35 -117 -33 -102 -35
-118 -35 -241 0 -165 17 -335 39 -394 25 -68 54 -75 138 -31 132 68 329 283
507 553 88 134 137 218 269 468 l57 106 97 7 c139 9 1100 26 1534 26 l366 0
134 39 c249 74 863 222 1004 243 108 16 191 21 360 22 203 0 239 -2 475 -37
496 -72 1218 -127 1995 -153 l209 -6 28 -30 c15 -17 28 -34 28 -38 0 -14 79
-59 139 -80 115 -39 231 -22 332 47 95 65 155 89 263 103 113 14 235 -5 570
-90 393 -99 503 -115 725 -106 91 3 220 10 286 15 284 22 390 16 837 -49 227
-34 562 -77 743 -96 293 -32 374 -37 725 -44 289 -6 419 -12 485 -24 282 -50
473 -23 727 105 230 114 401 268 542 486 67 104 313 607 331 678 22 84 29 209
16 280 -6 33 -27 93 -47 134 -91 185 -397 406 -734 531 -229 85 -364 119
-1025 259 -286 60 -574 121 -640 136 -139 30 -1136 206 -1335 236 -74 11 -335
49 -580 85 -245 35 -526 78 -625 94 -749 122 -1624 185 -2720 194 -451 4 -614
2 -690 -8z"/>
</g>
</svg>
