<?xml version="1.0" standalone="no"?>
<!DOCTYPE svg PUBLIC "-//W3C//DTD SVG 20010904//EN"
 "http://www.w3.org/TR/2001/REC-SVG-20010904/DTD/svg10.dtd">
<svg version="1.0" xmlns="http://www.w3.org/2000/svg"
 width="1536.000000pt" height="456.000000pt" viewBox="0 0 1536.000000 456.000000"
 preserveAspectRatio="xMidYMid meet">
<metadata>
Created by potrace 1.16, written by Peter Selinger 2001-2019
</metadata>
<g transform="translate(0.000000,456.000000) scale(0.100000,-0.100000)"
fill="#000000" stroke="none">
<path d="M10465 4544 c-398 -12 -428 -14 -1040 -82 l-630 -70 -820 14 c-2285
37 -2047 36 -2407 8 -338 -25 -427 -40 -537 -89 -74 -34 -94 -55 -226 -245
-141 -203 -205 -281 -291 -354 -104 -88 -221 -158 -752 -447 -260 -143 -495
-273 -520 -291 -161 -109 -249 -188 -539 -480 -416 -418 -599 -644 -793 -978
-39 -69 -73 -126 -74 -126 0 -1 -89 -9 -196 -18 -258 -22 -343 -33 -476 -61
-383 -82 -684 -252 -933 -528 -132 -146 -247 -333 -226 -366 10 -17 62 -13
145 10 122 34 281 35 591 5 323 -32 391 -33 466 -6 l57 20 61 -59 c33 -32 126
-99 208 -151 142 -89 159 -103 258 -222 l26 -31 49 13 c39 11 64 29 125 89
168 168 258 336 318 596 l28 119 194 62 c240 76 225 70 729 309 228 108 453
208 500 223 82 25 95 26 380 29 l295 4 660 -146 c363 -81 707 -156 765 -166
88 -16 188 -21 615 -29 1172 -24 1214 -26 1271 -78 31 -26 30 -51 -1 -196 -27
-123 -32 -245 -14 -309 13 -48 59 -100 118 -135 122 -72 383 -2 766 205 155
84 440 272 532 352 40 34 178 177 308 317 211 228 303 341 320 393 16 51 245
195 565 356 683 343 1289 564 1860 680 l175 35 1270 10 c699 6 1311 14 1360
19 166 17 273 80 330 194 60 122 10 206 -181 301 -39 20 -106 45 -148 56 -46
11 -390 54 -849 105 -873 97 -988 113 -1175 161 -163 41 -251 77 -324 133 -74
55 -95 84 -170 232 -57 112 -72 133 -158 219 -139 138 -287 217 -555 294 -183
52 -301 74 -520 96 -222 22 -214 22 -790 4z"/>
</g>
</svg>
