<?xml version="1.0" standalone="no"?>
<!DOCTYPE svg PUBLIC "-//W3C//DTD SVG 20010904//EN"
 "http://www.w3.org/TR/2001/REC-SVG-20010904/DTD/svg10.dtd">
<svg version="1.0" xmlns="http://www.w3.org/2000/svg"
 width="1536.000000pt" height="560.000000pt" viewBox="0 0 1536.000000 560.000000"
 preserveAspectRatio="xMidYMid meet">
<metadata>
Created by potrace 1.16, written by Peter Selinger 2001-2019
</metadata>
<g transform="translate(0.000000,560.000000) scale(0.100000,-0.100000)"
fill="#000000" stroke="none">
<path d="M6695 5589 c-17 -4 -44 -22 -59 -38 -24 -25 -29 -39 -28 -76 0 -62
36 -120 118 -192 218 -191 306 -294 378 -443 37 -77 41 -92 41 -165 0 -74 -3
-87 -42 -167 -121 -246 -418 -490 -872 -717 -194 -97 -307 -147 -1426 -621
-1139 -482 -1350 -586 -1734 -848 -267 -182 -449 -336 -889 -749 -210 -198
-207 -197 -323 -143 -107 49 -451 100 -678 100 -119 0 -152 -3 -180 -18 -79
-39 -69 -85 29 -136 61 -32 74 -44 97 -89 25 -47 27 -63 28 -158 0 -105 0
-106 -36 -160 -20 -30 -84 -104 -142 -165 -190 -199 -358 -329 -654 -506 -219
-131 -277 -175 -308 -233 -20 -36 -20 -37 -1 -51 43 -31 148 -7 516 119 207
71 333 124 815 345 l570 260 750 7 750 6 330 35 330 36 585 134 c1202 277
1273 293 1385 303 65 6 814 12 1845 16 l1735 6 409 59 c226 33 412 58 414 56
11 -12 -31 -50 -102 -93 -184 -111 -256 -175 -241 -215 17 -45 118 -69 414
-98 118 -11 216 -22 217 -23 2 -2 -42 -56 -97 -122 -55 -66 -116 -140 -135
-166 -40 -55 -78 -135 -69 -149 9 -15 76 -30 135 -30 184 1 459 95 690 237
239 147 504 391 744 686 178 219 190 227 546 327 176 49 316 102 980 367 l775
310 345 67 c190 37 379 76 420 88 140 38 255 118 281 196 16 47 6 106 -25 151
-57 82 -373 233 -575 275 -87 17 -118 41 -222 165 -98 116 -145 161 -271 256
-170 129 -425 270 -635 354 -96 38 -309 110 -388 130 -22 6 -431 79 -910 162
-975 169 -761 142 -2330 289 -473 44 -875 82 -894 86 -19 3 -102 28 -185 55
-141 45 -178 64 -556 272 -223 123 -446 251 -497 286 -181 122 -435 236 -647
291 -167 43 -438 63 -521 39z"/>
</g>
</svg>
