<?xml version="1.0" standalone="no"?>
<!DOCTYPE svg PUBLIC "-//W3C//DTD SVG 20010904//EN"
 "http://www.w3.org/TR/2001/REC-SVG-20010904/DTD/svg10.dtd">
<svg version="1.0" xmlns="http://www.w3.org/2000/svg"
 width="763.000000pt" height="1536.000000pt" viewBox="0 0 763.000000 1536.000000"
 preserveAspectRatio="xMidYMid meet">
<metadata>
Created by potrace 1.16, written by Peter Selinger 2001-2019
</metadata>
<g transform="translate(0.000000,1536.000000) scale(0.100000,-0.100000)"
fill="#000000" stroke="none">
<path d="M4839 15345 c-96 -18 -225 -65 -331 -119 -305 -158 -377 -194 -413
-210 -22 -9 -60 -28 -85 -42 -59 -33 -90 -28 -224 37 -87 43 -118 52 -174 57
-166 11 -284 -91 -299 -258 -8 -85 1 -108 75 -182 189 -188 200 -201 207 -251
17 -114 -15 -224 -155 -522 -134 -286 -135 -291 -150 -600 -10 -216 -13 -229
-109 -433 -86 -182 -201 -560 -201 -663 0 -25 7 -90 15 -145 26 -174 -8 -253
-180 -409 -224 -204 -275 -261 -382 -430 -58 -92 -145 -211 -204 -280 -194
-227 -212 -257 -289 -480 -76 -218 -142 -339 -288 -528 -178 -231 -286 -333
-537 -504 -168 -115 -252 -185 -345 -288 -131 -146 -283 -355 -314 -434 -9
-24 -23 -90 -31 -148 -35 -245 -79 -350 -240 -569 -138 -189 -193 -318 -182
-435 5 -55 44 -146 73 -170 46 -38 227 37 456 189 181 120 573 417 603 456 13
17 58 92 100 166 90 158 118 197 152 213 44 20 113 -27 267 -183 137 -139 138
-140 214 -164 101 -31 187 -44 359 -52 l141 -7 6 -51 c27 -222 34 -696 16
-996 -25 -417 -73 -807 -160 -1320 -45 -258 -57 -310 -135 -580 -95 -328 -108
-392 -145 -750 -25 -236 -39 -326 -90 -585 -88 -448 -111 -584 -121 -704 -5
-69 -26 -229 -46 -356 l-37 -230 -1 -345 c-1 -266 -5 -371 -18 -460 -43 -298
-86 -367 -296 -480 -196 -105 -273 -193 -275 -314 -1 -66 17 -90 100 -130 131
-64 300 -86 673 -86 348 0 552 25 606 73 34 31 125 194 174 310 51 123 79 213
141 448 72 273 131 399 295 624 39 55 94 138 120 185 69 120 120 195 152 220
56 45 406 208 468 218 88 15 102 22 211 110 125 100 171 124 254 130 77 5 145
-15 284 -85 50 -25 159 -74 243 -109 377 -157 512 -248 679 -456 52 -65 137
-166 190 -225 213 -241 267 -338 334 -598 53 -202 62 -299 65 -665 2 -343 9
-417 49 -528 31 -85 82 -132 144 -132 16 0 62 -9 103 -19 124 -32 283 -51 509
-62 323 -16 390 -6 425 67 19 40 19 142 1 246 -8 42 -46 173 -84 290 -75 226
-95 329 -107 533 -12 217 -27 352 -51 474 -13 68 -31 212 -39 320 -7 108 -28
279 -45 381 -64 388 -73 565 -44 869 10 104 14 226 12 326 l-4 160 -41 90
c-23 50 -47 108 -53 130 -6 22 -15 166 -20 320 -5 154 -14 381 -20 504 -11
241 -3 436 25 591 9 47 20 164 25 260 5 96 16 204 25 239 36 147 48 264 48
481 1 243 -13 362 -68 605 -66 287 -69 275 123 449 214 193 336 356 415 551
17 44 75 166 128 270 108 215 126 276 116 405 -9 115 -32 212 -98 418 -95 293
-99 317 -109 567 -11 296 -19 332 -134 582 -31 67 -71 178 -90 247 -41 154
-50 171 -187 368 -168 242 -179 265 -244 488 -20 68 -63 186 -95 260 -64 150
-91 231 -122 365 -18 78 -21 133 -25 411 -6 396 4 577 62 1154 31 301 44 474
40 510 -4 30 -24 165 -45 300 -54 344 -55 312 5 351 98 66 159 243 138 396
-18 128 -98 260 -182 302 -90 45 -153 34 -339 -56 -97 -47 -153 -68 -203 -76
l-68 -10 -54 35 c-122 82 -233 124 -402 154 -130 22 -534 29 -636 9z"/>
</g>
</svg>
