<?xml version="1.0" standalone="no"?>
<!DOCTYPE svg PUBLIC "-//W3C//DTD SVG 20010904//EN"
 "http://www.w3.org/TR/2001/REC-SVG-20010904/DTD/svg10.dtd">
<svg version="1.0" xmlns="http://www.w3.org/2000/svg"
 width="1536.000000pt" height="927.000000pt" viewBox="0 0 1536.000000 927.000000"
 preserveAspectRatio="xMidYMid meet">
<metadata>
Created by potrace 1.16, written by Peter Selinger 2001-2019
</metadata>
<g transform="translate(0.000000,927.000000) scale(0.100000,-0.100000)"
fill="#000000" stroke="none">
<path d="M5075 9259 c-320 -50 -547 -267 -669 -640 -106 -326 -137 -733 -112
-1494 23 -700 2 -929 -109 -1220 -71 -184 -172 -333 -329 -482 -147 -140 -244
-193 -416 -229 -92 -20 -261 -23 -765 -14 -291 5 -376 -5 -525 -59 -205 -75
-312 -180 -463 -453 -225 -406 -481 -695 -996 -1122 -336 -278 -604 -503 -650
-544 l-45 -39 66 -32 c120 -59 268 -52 473 24 55 20 219 98 363 172 316 162
368 184 525 223 167 41 340 60 612 66 316 8 899 -10 988 -31 161 -36 285 -90
632 -274 225 -120 251 -130 740 -298 903 -309 1122 -365 1861 -473 192 -29
423 -65 514 -81 226 -41 390 -46 715 -24 175 12 318 16 449 12 223 -6 257 -13
526 -114 391 -146 790 -338 1495 -718 706 -381 917 -486 1335 -667 1004 -434
1869 -678 2635 -743 184 -16 620 56 809 132 156 64 196 134 118 211 -44 43
-217 141 -537 302 -466 236 -760 356 -1420 580 -681 232 -984 348 -1290 494
-576 276 -925 564 -1164 960 -251 414 -281 776 -81 976 91 91 238 149 665 259
291 75 419 116 503 161 30 16 349 210 709 432 739 454 722 441 968 723 216
248 318 330 460 370 91 26 374 31 635 11 245 -18 492 -21 571 -6 80 15 156 56
184 98 13 21 42 88 64 150 49 140 88 207 170 289 35 35 61 66 59 69 -3 2 -110
47 -239 100 -129 53 -249 102 -266 110 l-33 13 20 34 c11 19 31 65 44 103 13
38 33 89 45 112 16 32 18 44 9 47 -7 3 -96 32 -198 65 -380 124 -509 218 -682
499 -27 45 -54 79 -58 76 -5 -3 -56 -41 -114 -84 -266 -201 -546 -324 -866
-381 -101 -18 -175 -24 -381 -27 -288 -6 -323 -3 -1034 67 -1152 114 -1834
153 -2685 154 -528 1 -539 1 -870 -31 -566 -54 -621 -57 -1000 -58 -386 0
-442 4 -617 50 -117 31 -175 60 -293 148 -493 368 -770 929 -770 1559 0 123
19 328 41 427 6 29 8 55 5 58 -10 10 -270 12 -331 2z"/>
</g>
</svg>
