<?xml version="1.0" standalone="no"?>
<!DOCTYPE svg PUBLIC "-//W3C//DTD SVG 20010904//EN"
 "http://www.w3.org/TR/2001/REC-SVG-20010904/DTD/svg10.dtd">
<svg version="1.0" xmlns="http://www.w3.org/2000/svg"
 width="1178.000000pt" height="1536.000000pt" viewBox="0 0 1178.000000 1536.000000"
 preserveAspectRatio="xMidYMid meet">
<metadata>
Created by potrace 1.16, written by Peter Selinger 2001-2019
</metadata>
<g transform="translate(0.000000,1536.000000) scale(0.100000,-0.100000)"
fill="#000000" stroke="none">
<path d="M4040 15340 c-150 -32 -242 -70 -380 -160 -52 -34 -96 -54 -144 -64
-148 -34 -392 -152 -474 -230 -60 -56 -127 -178 -138 -251 l-6 -45 -187 0
c-195 0 -359 -10 -956 -60 -589 -50 -746 -70 -1090 -145 -237 -51 -640 -147
-648 -155 -11 -10 66 -63 146 -100 189 -88 418 -115 1277 -151 l285 -12 155
-62 c231 -94 358 -129 775 -215 184 -38 468 -121 480 -141 3 -4 -35 -90 -85
-189 -158 -315 -181 -423 -181 -821 0 -136 5 -293 11 -350 37 -336 198 -811
463 -1364 151 -315 200 -432 242 -575 42 -142 78 -241 81 -220 2 8 6 50 9 93
4 43 8 77 10 75 7 -7 74 -281 120 -493 26 -115 48 -211 50 -213 2 -2 7 42 11
98 4 57 10 96 14 89 4 -8 29 -105 55 -216 27 -112 50 -201 52 -199 2 1 -6 56
-17 120 -24 143 -26 196 -5 196 78 0 265 -722 369 -1425 41 -275 49 -403 36
-546 -22 -243 -79 -486 -236 -1014 -5 -15 3 -11 31 15 59 56 155 189 192 267
59 123 127 439 207 968 19 121 34 200 35 175 1 -25 -10 -296 -24 -604 -14
-307 -24 -560 -22 -562 4 -4 107 617 128 771 16 116 -5 614 -37 845 -3 25 -3
43 -1 40 8 -8 132 -573 168 -765 30 -165 31 -178 31 -440 -1 -148 -8 -411 -17
-584 -9 -172 -14 -315 -12 -318 3 -2 28 66 56 151 49 147 52 162 62 313 10
167 1 528 -26 988 -15 246 -26 315 -89 540 -14 49 -24 90 -23 92 10 10 80 -25
87 -43 30 -77 176 -785 201 -969 12 -95 7 -416 -11 -655 -28 -365 -22 -348 24
70 75 677 76 701 35 940 -23 133 -85 393 -129 546 -17 58 -29 108 -27 110 2 2
26 -38 54 -89 60 -108 203 -466 439 -1094 93 -248 170 -450 172 -448 1 1 -17
74 -42 161 -58 204 -98 368 -131 524 -33 156 -112 399 -216 662 -44 112 -83
209 -86 216 -10 23 98 -42 121 -73 13 -16 142 -230 286 -475 144 -245 267
-449 272 -455 6 -5 -10 31 -35 81 -59 118 -127 277 -127 297 0 27 25 9 78 -58
32 -40 128 -126 259 -231 173 -140 458 -376 599 -496 71 -61 359 -213 629
-333 72 -32 134 -61 139 -66 20 -18 48 -305 50 -499 l1 -195 -32 -75 c-47
-110 -55 -151 -54 -279 0 -112 3 -136 35 -284 12 -56 13 -104 6 -255 -10 -210
-8 -180 -55 -852 -19 -272 -39 -578 -45 -680 -22 -411 -131 -1165 -192 -1328
-11 -30 -35 -71 -54 -91 l-33 -36 -118 3 c-149 4 -395 -13 -510 -34 -68 -13
-142 -16 -333 -15 l-245 1 -150 -49 -150 -49 61 -1 c54 -1 63 -4 89 -31 l30
-31 245 7 c206 5 264 4 365 -11 66 -9 123 -19 127 -22 4 -2 -63 -39 -150 -83
-142 -71 -406 -168 -569 -210 -30 -7 -53 -24 -83 -58 -71 -79 -70 -82 1 -82
37 0 71 -6 88 -16 25 -14 39 -13 226 25 307 63 269 47 837 339 105 54 180 64
298 37 41 -9 99 -21 129 -25 38 -6 86 -28 170 -76 205 -120 364 -203 430 -225
62 -21 63 -22 40 -34 -13 -7 -103 -34 -200 -59 l-176 -46 -184 11 c-357 22
-345 22 -377 5 -17 -9 -40 -29 -51 -45 -21 -30 -54 -111 -48 -118 2 -1 35 17
73 42 54 35 78 45 112 45 47 0 46 1 76 -101 9 -31 25 -64 37 -75 20 -18 22
-18 67 -1 41 15 641 112 648 105 1 -2 -28 -39 -64 -83 -82 -97 -286 -260 -396
-316 -43 -22 -119 -58 -169 -80 l-89 -40 -267 -22 -266 -21 -36 -33 c-28 -26
-99 -133 -87 -133 2 0 41 7 88 15 84 15 85 15 101 -7 16 -20 20 -21 165 -14
82 4 190 16 239 27 190 40 473 121 540 153 76 36 175 111 300 227 44 41 105
95 135 119 112 91 202 176 236 222 19 27 52 57 76 69 55 28 150 61 157 54 8
-9 30 -358 30 -490 0 -66 -8 -175 -18 -241 -16 -109 -17 -131 -4 -210 7 -50
11 -114 7 -146 -3 -34 -1 -72 6 -95 15 -47 51 -103 66 -103 7 0 14 27 18 63 4
34 20 139 36 232 63 372 92 643 83 765 -3 50 0 105 11 165 22 117 57 247 65
243 4 -2 56 -31 117 -64 79 -45 176 -86 351 -148 133 -47 249 -86 258 -86 18
0 21 8 30 73 5 38 10 47 26 47 30 0 59 -17 107 -64 39 -37 42 -39 33 -14 -77
204 -207 296 -330 235 -28 -14 -32 -12 -147 60 -66 40 -187 112 -270 159
l-151 86 4 42 c2 22 17 196 33 386 38 433 64 666 95 845 14 77 61 383 105 680
138 925 151 985 285 1275 62 132 73 197 56 309 -6 41 -10 75 -8 77 5 5 425
-253 572 -351 149 -99 266 -205 630 -570 328 -328 395 -386 514 -443 64 -31
87 -37 164 -40 78 -4 92 -8 115 -30 63 -58 190 -85 219 -46 8 11 11 29 8 41
-5 20 -3 20 29 11 46 -14 84 -3 99 28 10 24 8 29 -18 50 l-30 24 28 0 c18 0
27 5 27 16 0 8 12 200 26 427 18 283 24 450 20 532 -6 104 -33 330 -52 433 -5
24 -3 32 8 32 21 0 48 33 48 57 0 36 -39 148 -107 311 -36 87 -68 164 -71 172
-3 8 5 4 18 -8 31 -29 66 -38 85 -22 44 37 -8 135 -207 386 l-88 112 0 67 c0
65 -5 78 -156 419 -86 193 -159 357 -161 364 -3 8 4 12 21 12 l26 0 0 88 c0
117 -22 297 -65 533 -29 159 -46 223 -90 340 -30 78 -53 145 -51 147 2 1 43
-55 91 -125 48 -70 92 -132 97 -138 5 -5 -12 40 -38 100 -149 354 -417 1005
-449 1090 -62 167 -175 383 -488 930 -198 346 -498 848 -578 967 -122 181
-370 450 -928 1008 -676 674 -737 728 -978 864 -57 31 -103 58 -103 59 0 1 55
3 123 3 109 1 318 32 335 49 3 3 -48 5 -114 5 -133 0 -187 7 -389 52 -129 28
-153 37 -300 113 -88 46 -227 111 -310 145 -264 109 -548 231 -599 257 -67 34
-151 116 -310 303 -72 85 -172 202 -221 260 -97 112 -177 212 -240 299 l-39
54 77 -8 c42 -3 77 -5 77 -2 0 3 -30 24 -66 47 -41 28 -61 46 -53 50 6 5 54
14 105 21 52 7 94 16 94 20 0 3 -36 12 -80 20 -43 7 -77 15 -75 19 2 4 60 13
127 20 68 7 131 15 141 19 10 4 -37 17 -115 33 -549 111 -574 117 -690 167
-226 97 -372 137 -610 170 -179 25 -275 26 -388 1z m3903 -8957 c94 -59 275
-194 500 -372 195 -154 358 -286 364 -293 12 -16 48 -312 69 -583 24 -298 17
-401 -44 -680 -28 -126 -56 -275 -62 -330 -6 -55 -45 -323 -85 -595 -40 -272
-83 -571 -94 -665 -39 -316 -53 -410 -91 -595 -35 -169 -46 -200 -117 -365
l-79 -180 -125 -102 c-68 -56 -129 -102 -136 -102 -6 -1 -38 22 -71 50 -58 48
-60 52 -51 82 5 18 9 37 9 43 0 7 -41 39 -90 72 -70 46 -109 65 -173 81 -45
12 -98 29 -117 39 -29 15 -35 22 -33 47 2 17 5 156 7 310 15 975 11 902 87
1554 109 924 142 1138 215 1361 19 58 27 111 34 230 5 85 14 220 20 300 20
257 12 301 -118 601 -47 110 -49 120 -40 162 l9 46 32 -11 c18 -6 98 -53 180
-105z"/>
<path d="M3991 9234 c0 -11 3 -14 6 -6 3 7 2 16 -1 19 -3 4 -6 -2 -5 -13z"/>
</g>
</svg>
