<?xml version="1.0" standalone="no"?>
<!DOCTYPE svg PUBLIC "-//W3C//DTD SVG 20010904//EN"
 "http://www.w3.org/TR/2001/REC-SVG-20010904/DTD/svg10.dtd">
<svg version="1.0" xmlns="http://www.w3.org/2000/svg"
 width="1121.000000pt" height="1536.000000pt" viewBox="0 0 1121.000000 1536.000000"
 preserveAspectRatio="xMidYMid meet">
<metadata>
Created by potrace 1.16, written by Peter Selinger 2001-2019
</metadata>
<g transform="translate(0.000000,1536.000000) scale(0.100000,-0.100000)"
fill="#000000" stroke="none">
<path d="M2721 15350 c-186 -19 -369 -69 -486 -134 l-63 -35 -63 30 c-74 35
-122 36 -127 2 -3 -18 6 -25 58 -44 33 -12 63 -26 66 -30 2 -4 -7 -16 -21 -25
-24 -16 -30 -16 -85 0 -82 22 -120 21 -120 -3 0 -11 12 -28 26 -38 l26 -19
-48 0 -49 1 2 -35 c2 -35 2 -35 -36 -32 -41 4 -85 -14 -114 -46 -18 -19 -18
-20 5 -36 12 -9 30 -16 39 -16 9 0 22 -7 29 -15 16 -20 21 -20 -183 15 -183
31 -253 52 -319 95 -24 16 -46 24 -58 20 -14 -4 -29 8 -64 53 -52 69 -93 105
-147 132 -47 25 -48 25 -42 0 3 -11 0 -20 -6 -20 -6 0 -11 5 -11 12 0 9 -3 9
-12 0 -9 -9 -7 -19 10 -42 12 -16 22 -32 22 -35 0 -7 -50 19 -96 50 -20 14
-46 25 -58 24 -21 0 -21 -1 1 -11 13 -6 23 -17 23 -25 0 -10 -5 -11 -19 -3
-11 5 -35 10 -53 9 l-33 -1 32 -9 c30 -9 73 -51 73 -71 0 -6 -8 -7 -17 -3 -10
4 -43 14 -73 22 -30 8 -59 19 -64 24 -17 15 -27 10 -17 -9 5 -10 21 -24 35
-32 14 -7 26 -17 26 -22 0 -13 -42 -9 -70 7 -34 20 -71 20 -64 0 8 -20 -5 -19
-61 5 -53 23 -51 8 2 -18 29 -14 36 -23 38 -49 3 -31 1 -33 -32 -33 -19 0 -48
7 -65 16 -18 9 -27 11 -23 4 4 -7 24 -19 44 -28 25 -11 31 -17 19 -19 -9 -2
-31 3 -49 13 -31 16 -33 15 -46 -2 -11 -15 -24 -18 -62 -16 -86 6 -78 -34 12
-65 l52 -17 -34 -6 c-31 -5 -58 -30 -31 -30 14 0 60 -46 60 -60 0 -5 -16 -10
-36 -10 -21 0 -33 -4 -29 -10 3 -5 32 -10 64 -10 40 0 63 -5 71 -15 12 -14 8
-15 -30 -9 -55 9 -51 -4 15 -48 31 -21 53 -44 59 -63 6 -16 11 -31 12 -33 1
-2 46 -9 99 -17 115 -16 138 -29 64 -38 -94 -11 -70 -22 41 -19 117 4 218 -11
227 -34 3 -7 23 -19 44 -24 21 -6 39 -14 39 -18 0 -4 -28 -24 -63 -44 -34 -21
-79 -55 -100 -76 -22 -22 -58 -48 -80 -58 -49 -21 -87 -52 -87 -71 0 -24 38
-13 137 38 59 32 99 47 101 40 2 -6 10 -11 19 -11 8 0 13 -6 11 -12 -8 -23
-79 -55 -161 -73 -93 -19 -170 -52 -164 -69 4 -12 53 -14 107 -3 19 4 28 4 20
1 -61 -24 -150 -68 -150 -74 0 -14 44 -19 80 -11 19 5 65 21 103 35 81 31 87
32 87 7 0 -24 36 -34 90 -25 49 8 50 -2 7 -46 -50 -52 -143 -90 -292 -119
-110 -22 -139 -31 -162 -53 -15 -14 -50 -32 -77 -40 -44 -12 -50 -17 -63 -53
-11 -33 -11 -41 1 -53 12 -12 17 -11 36 8 38 38 140 76 252 93 16 2 28 3 28 1
0 -2 -32 -20 -71 -40 -39 -21 -91 -56 -117 -79 -26 -23 -67 -52 -91 -64 -58
-30 -91 -64 -91 -96 0 -14 4 -25 9 -25 4 0 46 25 91 55 75 50 110 65 110 49 0
-3 -46 -55 -103 -116 -56 -60 -109 -121 -117 -134 -14 -23 -13 -26 3 -35 16
-9 12 -16 -34 -67 -106 -115 -179 -238 -179 -299 0 -26 54 30 104 107 43 65
82 107 91 98 3 -2 -6 -20 -20 -38 -16 -21 -25 -47 -25 -70 0 -30 -8 -44 -51
-85 -28 -28 -72 -77 -98 -110 -48 -59 -108 -165 -94 -165 22 0 93 65 154 141
92 116 159 174 159 139 0 -28 -33 -83 -95 -155 -67 -80 -121 -174 -112 -198 3
-7 32 16 72 58 38 38 66 65 64 59 -15 -38 -161 -264 -198 -306 -25 -28 -45
-59 -43 -69 2 -9 -6 -32 -18 -51 -25 -42 -25 -50 1 -66 26 -17 37 -8 18 14
-12 15 -10 16 20 9 32 -7 34 -6 28 16 -4 14 1 33 15 51 l20 29 17 -23 c9 -13
15 -26 14 -29 -1 -4 -9 -53 -18 -110 -9 -57 -19 -112 -21 -121 -10 -34 25 -19
52 22 15 22 29 38 32 36 9 -10 -22 -112 -71 -234 -30 -78 -51 -147 -54 -184
-7 -68 7 -76 38 -23 47 79 72 18 33 -79 -27 -69 -29 -122 -4 -119 8 0 30 5 49
9 l33 7 -7 -34 c-4 -19 -21 -65 -37 -104 -34 -80 -50 -195 -27 -195 8 0 22 7
32 14 26 20 51 10 96 -39 94 -102 105 -171 48 -310 -46 -112 -54 -153 -33
-180 16 -20 16 -20 31 -1 8 11 18 34 21 53 3 18 9 35 13 37 11 7 -17 -435 -32
-509 -12 -56 -12 -73 -3 -85 7 -8 20 -36 30 -62 15 -41 22 -48 45 -48 15 0 35
-6 44 -12 15 -12 16 -27 7 -177 -6 -90 -16 -193 -23 -230 -9 -47 -11 -123 -6
-271 7 -214 10 -228 75 -440 20 -67 28 -118 34 -240 10 -173 16 -214 67 -415
19 -77 50 -214 68 -305 42 -208 168 -756 201 -875 37 -131 64 -193 199 -460
158 -312 179 -379 215 -687 6 -53 24 -148 40 -210 16 -62 54 -212 84 -332 42
-165 68 -245 105 -325 27 -58 57 -131 66 -161 21 -67 41 -107 69 -141 18 -21
23 -48 34 -175 23 -264 56 -377 131 -452 l46 -47 5 120 c5 116 11 145 30 145
16 0 38 -53 56 -130 11 -48 25 -82 44 -103 l27 -31 17 51 c27 82 58 94 70 29
4 -20 31 -117 62 -218 30 -101 59 -212 64 -247 8 -59 30 -101 53 -101 6 0 8
27 5 68 -5 67 3 112 20 112 19 0 51 -97 66 -200 8 -58 20 -120 26 -139 13 -45
53 -102 90 -129 l30 -22 6 26 c7 27 -1 228 -12 314 -5 44 -4 43 43 -45 27 -49
61 -110 77 -135 16 -24 40 -68 52 -97 26 -58 49 -68 64 -27 6 14 10 87 11 162
0 75 4 157 7 182 l7 45 24 -65 c13 -36 56 -128 96 -205 71 -136 125 -268 125
-304 0 -13 -14 -20 -59 -29 -141 -29 -237 -105 -416 -327 -130 -162 -181 -209
-277 -260 -48 -26 -70 -43 -74 -61 -4 -17 -13 -24 -31 -24 -36 0 -61 -16 -124
-79 -31 -31 -65 -64 -77 -75 -24 -21 -52 -96 -52 -137 0 -25 5 -30 42 -40 26
-7 61 -8 88 -4 51 9 64 9 175 -1 l81 -6 -23 -69 c-15 -45 -25 -104 -29 -176
-5 -84 -11 -112 -25 -128 -25 -28 -49 -88 -49 -123 0 -35 18 -91 36 -113 12
-13 10 -19 -16 -44 -43 -41 -65 -120 -50 -177 7 -24 18 -50 26 -59 11 -12 13
-63 13 -250 -2 -426 28 -505 253 -675 200 -152 310 -203 459 -211 171 -11 330
48 449 166 90 89 149 218 122 267 -8 15 -13 12 -30 -23 -56 -108 -249 -213
-392 -213 -111 0 -183 43 -246 146 l-30 51 54 39 c30 21 68 54 84 73 16 18 31
32 32 30 2 -2 15 -27 29 -55 52 -103 103 -144 181 -144 61 0 91 27 165 154 85
147 98 185 130 406 60 401 118 591 236 770 63 94 140 168 210 200 71 32 137
99 219 223 209 315 205 463 -18 598 -57 35 -68 49 -40 49 30 0 221 68 296 106
114 57 213 131 296 220 103 111 133 127 220 122 140 -8 217 -72 305 -253 96
-196 200 -305 366 -382 40 -19 96 -49 125 -67 28 -18 76 -41 106 -51 88 -28
171 -69 223 -108 46 -36 50 -37 130 -37 101 0 168 16 334 76 122 45 131 51
194 113 36 36 85 101 110 143 24 43 47 78 50 78 3 0 9 -38 13 -85 7 -83 6 -86
-23 -128 -41 -60 -54 -69 -113 -78 -40 -6 -61 -17 -91 -46 -59 -57 -130 -169
-221 -354 -129 -259 -196 -489 -231 -799 -21 -180 -17 -264 19 -352 l27 -67
-61 -103 c-78 -132 -104 -215 -98 -312 6 -95 48 -175 134 -255 56 -53 183
-136 192 -126 2 2 -10 45 -26 97 -40 125 -47 197 -27 273 21 78 73 171 133
236 l48 52 70 1 c100 1 135 -20 206 -124 72 -104 93 -127 142 -152 46 -23 154
-48 214 -48 45 0 64 11 170 105 50 45 81 103 82 154 0 27 11 46 60 97 74 80
87 104 106 205 8 45 25 107 36 138 23 61 103 211 149 277 60 88 162 156 271
183 70 17 292 41 376 41 88 0 116 -11 206 -80 124 -95 196 -109 336 -67 204
60 249 64 393 27 179 -46 264 -97 328 -198 l27 -43 7 48 c8 60 -10 173 -36
233 -42 94 -93 124 -289 164 -69 14 -135 28 -147 31 -21 5 -23 11 -23 78 0
144 -58 251 -178 331 -114 76 -258 125 -537 182 -71 14 -139 31 -150 37 -11 6
-61 43 -111 83 -109 87 -144 143 -144 234 0 191 163 319 360 282 90 -17 160
-48 311 -139 272 -163 597 -301 767 -324 99 -15 177 1 310 60 49 23 105 44
123 47 96 19 101 35 110 334 8 270 12 312 69 774 22 175 40 320 40 322 0 2 15
4 33 4 30 0 37 5 61 49 14 27 36 85 48 128 19 71 22 115 28 478 4 220 8 401 9
401 0 1 21 5 46 8 167 26 275 260 244 533 -15 136 -49 249 -147 493 -72 181
-99 274 -107 370 -4 47 -11 92 -15 100 -4 8 4 50 17 93 23 75 24 77 51 71 103
-25 334 -91 422 -120 212 -72 315 -41 367 108 15 44 18 82 17 213 -2 230 -19
290 -143 494 -79 130 -88 162 -94 341 -6 185 -17 225 -106 368 -74 120 -233
448 -273 562 -42 123 -88 317 -88 375 -1 69 -17 133 -44 175 -12 19 -50 118
-85 219 -68 204 -119 321 -173 396 -20 28 -72 131 -117 231 -166 368 -274 537
-561 874 -158 186 -218 264 -316 411 -58 88 -118 164 -174 219 -104 105 -326
273 -475 360 -60 35 -145 88 -188 116 -42 29 -94 58 -115 65 -99 32 -355 144
-672 293 l-155 73 -6 244 c-6 280 -10 299 -90 430 -29 46 -72 127 -96 179 -43
91 -249 457 -320 568 -18 29 -51 65 -72 80 -23 15 -41 38 -44 53 -3 14 -21 36
-41 50 -20 13 -38 30 -41 38 -8 20 175 203 255 256 35 24 58 45 55 53 -8 23
13 50 70 88 57 38 68 50 36 41 -14 -3 -17 0 -14 13 3 10 0 21 -6 24 -24 15
-11 46 29 66 33 17 60 45 60 64 0 2 -12 6 -26 8 -25 3 -24 5 29 58 48 46 55
58 50 82 -3 17 1 37 11 53 20 31 20 32 -4 38 -31 8 -35 35 -10 63 28 29 21 30
-30 4 -49 -25 -60 -25 -60 0 0 17 -5 19 -25 14 -20 -5 -25 -2 -25 12 0 10 9
27 20 39 l19 20 -40 -3 c-64 -6 -65 8 -8 79 75 94 78 107 6 34 -78 -81 -131
-90 -76 -14 11 16 16 29 10 29 -5 0 -23 -19 -38 -42 -29 -43 -63 -62 -63 -35
0 8 9 22 20 32 11 10 20 25 20 34 -1 11 -7 8 -21 -11 -17 -23 -24 -26 -40 -18
-14 8 -27 7 -47 -4 -20 -10 -32 -12 -39 -5 -8 8 -13 7 -17 0 -13 -20 -27 -12
-16 8 5 11 6 22 2 25 -5 3 -15 -5 -22 -19 -15 -28 -100 -91 -117 -87 -7 2 -39
-11 -70 -28 -32 -16 -63 -30 -68 -30 -6 0 -19 -14 -29 -30 -9 -17 -36 -42 -59
-57 -23 -14 -83 -65 -133 -113 -94 -91 -173 -144 -229 -154 -30 -6 -38 -1 -91
52 -82 81 -172 131 -412 229 -247 101 -324 128 -383 138 -24 3 -69 19 -100 35
-74 39 -139 55 -343 85 -94 14 -225 39 -291 55 -192 47 -226 49 -756 61 -736
17 -885 18 -978 9z m-1722 -1234 c-8 -9 -192 -47 -197 -41 -3 3 -1 5 4 6 5 0
41 9 79 19 66 18 124 26 114 16z"/>
</g>
</svg>
