<?xml version="1.0" standalone="no"?>
<!DOCTYPE svg PUBLIC "-//W3C//DTD SVG 20010904//EN"
 "http://www.w3.org/TR/2001/REC-SVG-20010904/DTD/svg10.dtd">
<svg version="1.0" xmlns="http://www.w3.org/2000/svg"
 width="1536.000000pt" height="1488.000000pt" viewBox="0 0 1536.000000 1488.000000"
 preserveAspectRatio="xMidYMid meet">
<metadata>
Created by potrace 1.16, written by Peter Selinger 2001-2019
</metadata>
<g transform="translate(0.000000,1488.000000) scale(0.100000,-0.100000)"
fill="#000000" stroke="none">
<path d="M53 14873 c15 -2 37 -2 50 0 12 2 0 4 -28 4 -27 0 -38 -2 -22 -4z"/>
<path d="M11215 14460 c-496 -26 -995 -85 -1605 -191 -520 -90 -642 -123
-1138 -298 -747 -264 -1310 -493 -1802 -732 -348 -170 -528 -283 -975 -612
-162 -120 -425 -304 -475 -332 -8 -5 -2 6 13 24 34 41 83 136 131 255 67 168
84 188 383 480 256 249 287 271 608 438 121 63 245 130 275 149 49 30 52 34
30 37 -43 7 -211 -19 -329 -49 -492 -127 -817 -432 -1241 -1169 -129 -224
-148 -252 -246 -375 -119 -149 -170 -252 -207 -425 -19 -83 -21 -129 -22 -360
0 -161 5 -308 13 -375 8 -60 27 -222 43 -360 16 -137 42 -344 59 -460 69 -495
67 -742 -5 -904 -30 -65 -78 -116 -121 -127 -14 -4 -53 -4 -87 -1 -50 4 -88
19 -197 73 -122 61 -142 75 -220 153 -74 73 -94 101 -138 191 -67 136 -100
260 -167 615 -179 957 -364 1722 -515 2130 -62 167 -169 391 -237 495 -221
336 -625 599 -1063 691 -149 31 -383 31 -527 0 -182 -38 -305 -91 -455 -193
-180 -123 -295 -251 -379 -423 -81 -166 -100 -259 -108 -525 -8 -264 -2 -247
-159 -506 -101 -169 -260 -481 -316 -620 -34 -86 -36 -98 -35 -195 1 -57 4
-115 8 -129 7 -23 11 -18 46 50 213 422 453 720 710 885 102 65 328 165 342
151 2 -2 -59 -36 -136 -75 -77 -40 -160 -90 -185 -112 -61 -54 -121 -154 -206
-343 -39 -87 -102 -215 -140 -286 -93 -170 -151 -309 -174 -412 -9 -39 4 -35
58 19 57 56 103 123 181 263 92 167 173 278 275 381 97 98 124 116 350 239 63
35 143 82 176 105 l62 43 70 -72 c208 -211 332 -491 388 -881 13 -88 18 -184
18 -360 0 -437 -31 -592 -212 -1047 -184 -461 -236 -704 -236 -1083 1 -392 54
-762 195 -1364 265 -1124 568 -1779 1109 -2394 300 -342 663 -648 1291 -1089
700 -493 988 -660 1891 -1093 428 -206 536 -271 590 -353 14 -20 48 -97 77
-169 29 -73 62 -144 73 -158 19 -25 19 -25 -6 -118 -63 -230 -173 -516 -341
-885 l-103 -227 -148 3 c-182 3 -248 14 -333 55 -65 30 -69 30 -236 32 l-170
2 -117 41 c-110 39 -122 41 -213 38 -89 -3 -102 -6 -172 -42 -82 -42 -106 -65
-86 -85 9 -9 23 -4 60 19 136 87 252 82 283 -13 11 -34 13 -35 65 -35 128 0
332 -29 488 -69 53 -14 105 -20 162 -19 68 2 88 -1 102 -15 9 -9 13 -20 9 -24
-4 -4 -91 -9 -194 -11 -160 -3 -227 1 -463 27 -279 31 -514 39 -637 22 -39 -6
-58 -4 -73 7 -11 7 -57 27 -102 44 -71 27 -94 31 -172 30 -112 -2 -186 -21
-286 -73 -57 -30 -79 -47 -79 -60 0 -32 25 -32 82 0 68 38 128 60 200 72 54 9
62 7 117 -21 70 -35 78 -45 57 -69 -9 -10 -16 -23 -16 -29 0 -20 67 -24 172
-12 145 17 232 14 313 -10 85 -24 115 -25 186 -4 82 25 150 20 262 -19 l98
-34 -39 -11 c-22 -7 -98 -12 -169 -12 -86 0 -144 -5 -170 -14 -26 -9 -45 -11
-56 -5 -29 17 -242 12 -301 -7 -76 -24 -161 -85 -161 -115 0 -33 26 -35 61 -6
54 46 116 71 181 75 58 4 64 2 92 -25 38 -38 80 -47 131 -28 22 8 58 22 80 30
31 12 89 15 253 15 148 1 231 5 273 15 82 20 140 18 202 -5 66 -25 95 -25 168
1 69 25 164 28 273 9 66 -11 75 -11 83 4 5 9 22 16 39 16 46 0 82 43 104 122
10 37 21 65 25 63 5 -3 11 -38 15 -77 4 -40 12 -76 19 -80 22 -15 183 -8 306
14 71 12 170 21 230 21 120 1 152 -9 237 -75 l53 -41 38 27 c68 46 187 28 252
-39 19 -19 43 -35 53 -35 17 0 19 5 13 33 -8 40 -33 76 -76 104 -41 29 -80 39
-208 59 -57 9 -123 22 -145 31 -29 10 -106 18 -247 24 -370 15 -391 19 -441
86 -20 27 -39 55 -42 64 -7 21 23 175 63 325 60 227 158 452 269 619 90 135
85 131 124 117 103 -37 165 20 227 213 52 163 162 395 240 510 65 94 145 170
330 311 504 383 961 784 1375 1205 231 235 384 404 685 754 298 346 485 549
706 765 427 419 832 704 1139 803 190 62 298 61 640 -6 250 -49 323 -61 490
-77 436 -42 1200 -39 1565 5 425 52 659 159 793 363 89 134 142 267 217 540
36 131 40 157 40 262 0 100 -3 122 -22 160 -46 90 -123 120 -378 145 -85 8
-261 26 -390 40 -330 35 -675 67 -1345 125 -1437 125 -1743 161 -2935 345
-677 105 -874 128 -1335 160 -736 50 -1175 93 -1175 115 0 4 42 31 92 61 149
87 188 130 188 207 0 30 9 53 35 88 19 27 43 60 52 74 23 32 21 87 -6 174 -12
38 -19 77 -16 87 3 10 28 32 56 49 58 38 64 54 55 159 -4 47 -2 90 4 108 6 17
44 60 85 97 91 82 100 107 88 240 -11 120 -8 145 27 219 17 34 30 75 30 90 0
40 -24 88 -64 126 l-34 33 34 56 c42 70 44 116 8 183 l-27 49 41 43 c55 60 71
130 48 209 -8 30 -27 71 -41 92 -22 33 -23 37 -7 42 45 13 105 50 132 81 107
121 131 351 57 526 l-20 49 34 26 c127 95 192 204 210 352 17 145 28 162 157
259 121 92 161 163 184 331 12 85 14 90 36 90 47 0 94 34 164 118 84 100 114
116 254 136 120 16 153 30 224 91 74 64 130 99 288 180 160 81 240 149 284
240 15 33 28 69 28 80 0 38 13 42 145 49 509 27 886 171 1124 427 89 97 127
117 307 164 223 59 375 136 433 220 34 50 29 115 -11 161 -59 67 -199 118
-412 150 -124 18 -589 26 -831 14z"/>
</g>
</svg>
