<?xml version="1.0" standalone="no"?>
<!DOCTYPE svg PUBLIC "-//W3C//DTD SVG 20010904//EN"
 "http://www.w3.org/TR/2001/REC-SVG-20010904/DTD/svg10.dtd">
<svg version="1.0" xmlns="http://www.w3.org/2000/svg"
 width="1337.000000pt" height="1536.000000pt" viewBox="0 0 1337.000000 1536.000000"
 preserveAspectRatio="xMidYMid meet">
<metadata>
Created by potrace 1.16, written by Peter Selinger 2001-2019
</metadata>
<g transform="translate(0.000000,1536.000000) scale(0.100000,-0.100000)"
fill="#000000" stroke="none">
<path d="M6655 15353 c-236 -14 -369 -38 -599 -109 -218 -67 -406 -112 -534
-129 -131 -17 -222 -50 -417 -148 -249 -125 -478 -278 -574 -383 -100 -109
-128 -249 -166 -824 -33 -501 -63 -624 -247 -990 -124 -248 -204 -377 -291
-467 -69 -72 -115 -103 -203 -134 -85 -31 -313 -36 -602 -14 -227 17 -296 15
-392 -12 -77 -21 -109 -39 -340 -188 -212 -137 -361 -227 -416 -250 -63 -26
-106 -112 -105 -213 0 -98 28 -147 90 -158 80 -14 122 -57 190 -192 23 -45 76
-133 118 -195 98 -145 128 -210 158 -343 31 -142 45 -290 45 -483 0 -193 -7
-212 -94 -256 -70 -35 -194 -149 -314 -288 -172 -200 -247 -252 -377 -263
-106 -9 -217 -40 -334 -93 -136 -62 -268 -111 -406 -151 -175 -51 -267 -99
-356 -189 -42 -42 -94 -107 -117 -146 -141 -241 -233 -650 -307 -1375 -92
-902 -87 -1175 35 -1992 45 -304 132 -936 210 -1538 107 -823 170 -1217 230
-1445 40 -149 73 -309 105 -500 37 -223 84 -396 159 -592 138 -363 168 -508
181 -888 7 -207 20 -320 41 -352 22 -34 61 -56 87 -49 61 15 72 107 87 711 23
955 52 1371 104 1495 31 77 65 345 96 765 37 504 76 734 165 989 31 88 60 193
66 235 12 85 42 160 93 230 45 62 131 237 196 399 107 270 172 337 630 652
178 123 262 186 505 383 177 142 319 242 367 259 61 21 239 129 583 353 296
193 619 386 798 476 110 55 234 155 312 252 76 94 134 144 174 153 81 17 164
84 299 243 168 197 261 269 363 279 97 9 192 -69 284 -234 64 -115 122 -178
183 -198 26 -9 110 -20 187 -25 144 -11 222 -28 335 -76 192 -81 415 -254 533
-415 23 -30 64 -86 91 -123 63 -85 149 -152 206 -161 67 -11 99 -32 196 -132
85 -88 94 -94 130 -94 47 0 76 -27 166 -151 66 -90 100 -119 141 -119 36 0 99
-38 221 -132 191 -148 351 -197 535 -164 159 28 303 116 454 276 192 204 286
411 274 601 -6 89 -27 137 -115 255 -208 281 -609 680 -842 837 -98 66 -188
158 -223 229 -44 87 -150 202 -350 376 -205 180 -373 349 -463 467 -102 134
-213 225 -274 225 -102 0 -294 268 -403 560 -118 316 -103 511 88 1150 123
412 196 724 215 920 23 232 75 407 190 639 165 332 350 568 702 898 559 523
819 690 1247 803 185 49 226 67 295 129 140 127 437 220 766 241 224 14 323
45 457 143 153 113 273 146 593 162 243 13 430 42 489 76 84 49 259 68 726 79
193 4 358 11 368 15 25 10 17 25 -29 57 -84 59 -238 103 -409 118 -118 10
-203 37 -257 80 -108 87 -249 96 -1783 110 -1138 10 -1803 21 -2935 45 -605
13 -1147 17 -1285 8z"/>
</g>
</svg>
