<?xml version="1.0" standalone="no"?>
<!DOCTYPE svg PUBLIC "-//W3C//DTD SVG 20010904//EN"
 "http://www.w3.org/TR/2001/REC-SVG-20010904/DTD/svg10.dtd">
<svg version="1.0" xmlns="http://www.w3.org/2000/svg"
 width="1080.000000pt" height="1536.000000pt" viewBox="0 0 1080.000000 1536.000000"
 preserveAspectRatio="xMidYMid meet">
<metadata>
Created by potrace 1.16, written by Peter Selinger 2001-2019
</metadata>
<g transform="translate(0.000000,1536.000000) scale(0.100000,-0.100000)"
fill="#000000" stroke="none">
<path d="M663 15039 c1 -197 -2 -310 -8 -322 -10 -16 -14 -15 -55 11 -45 29
-61 52 -144 205 -20 37 -41 67 -46 67 -16 0 -11 -150 9 -261 25 -140 33 -221
22 -238 -18 -28 -77 6 -156 92 -41 44 -78 77 -82 73 -12 -11 -10 -93 6 -241 7
-71 12 -143 10 -160 l-4 -30 -77 0 c-42 0 -81 -5 -87 -10 -6 -6 -20 -37 -31
-69 -24 -72 -27 -201 -5 -302 8 -38 21 -107 30 -153 30 -156 73 -211 167 -211
40 0 45 -2 41 -19 -2 -10 -36 -54 -75 -97 -86 -98 -145 -182 -164 -235 -8 -25
-14 -79 -14 -131 l0 -90 27 18 c145 96 280 156 389 171 l45 6 -8 -39 c-4 -21
-8 -84 -8 -139 0 -89 3 -106 27 -151 35 -67 94 -126 212 -214 184 -137 329
-195 463 -188 35 2 63 2 63 1 0 -1 11 -71 25 -155 66 -408 90 -720 90 -1203 0
-408 -21 -839 -51 -1025 -8 -52 -39 -166 -69 -255 -96 -285 -140 -546 -139
-830 1 -316 27 -462 204 -1159 128 -499 170 -627 262 -790 28 -48 76 -120 108
-160 79 -99 237 -247 358 -336 118 -86 647 -433 1092 -715 237 -150 320 -215
510 -400 130 -127 202 -189 242 -210 55 -28 57 -31 73 -92 25 -93 81 -172 230
-323 91 -92 161 -175 220 -260 137 -197 166 -244 269 -429 115 -206 137 -239
231 -351 102 -121 122 -154 151 -248 22 -73 32 -90 82 -140 72 -71 219 -173
318 -218 92 -43 240 -82 446 -119 107 -19 158 -32 158 -41 0 -21 -29 -143 -60
-249 -50 -170 -136 -377 -305 -730 -37 -77 -114 -246 -172 -375 -57 -129 -127
-278 -155 -330 -100 -191 -233 -367 -338 -450 l-40 -31 -102 16 c-219 35 -258
44 -333 81 l-77 38 -94 -32 c-51 -18 -100 -32 -107 -32 -20 0 -67 -39 -67 -56
0 -11 15 -14 63 -14 98 0 227 -19 277 -41 76 -34 120 -87 61 -76 -49 10 -205
-11 -350 -48 -76 -19 -164 -37 -197 -41 -41 -4 -90 -21 -161 -55 -103 -50
-135 -78 -148 -132 -7 -25 -5 -27 21 -22 16 2 73 7 126 10 66 4 116 13 161 29
56 22 75 24 158 19 l94 -5 70 46 c54 35 79 46 110 46 48 0 111 -28 144 -63
l23 -25 -78 -25 c-44 -13 -102 -30 -131 -37 -76 -17 -140 -62 -163 -113 -45
-98 -15 -113 75 -37 33 28 63 50 67 50 4 0 22 -9 40 -20 45 -27 105 -25 181 5
65 27 119 33 202 21 60 -9 87 0 173 56 54 35 68 40 103 35 48 -6 108 -44 139
-86 l21 -31 -36 0 c-70 0 -122 -45 -176 -153 -33 -64 -32 -86 1 -44 12 14 50
40 86 58 61 30 68 32 145 26 89 -7 76 -13 156 75 l33 36 79 -5 c103 -7 123 -1
185 56 67 63 82 70 176 81 43 5 93 16 111 25 l32 17 -7 80 c-4 44 -7 83 -7 86
-1 4 -1 20 0 35 1 39 17 26 48 -39 16 -34 32 -54 42 -54 10 0 46 -11 80 -25
34 -14 70 -23 80 -20 9 3 41 21 71 41 47 30 62 35 103 32 76 -5 55 42 -29 63
-28 7 -51 21 -61 35 -13 20 -24 24 -69 24 -64 0 -65 2 -95 127 -22 91 -30 221
-16 283 6 30 16 40 70 70 111 61 141 110 67 110 -22 0 -40 4 -40 8 0 5 74 168
164 363 90 195 192 424 226 509 76 189 158 359 205 422 19 26 65 70 103 97
101 74 161 162 213 316 l27 79 48 13 c27 7 135 17 241 21 179 8 195 11 247 36
76 37 145 118 206 241 55 111 103 281 115 406 l7 76 90 11 c251 31 379 186
429 517 6 44 14 163 18 265 l6 185 100 67 c55 37 215 127 357 198 332 169 349
185 532 491 l87 146 82 31 c95 36 146 75 184 140 25 42 28 58 34 187 4 77 7
141 8 142 0 1 21 25 45 53 83 98 85 149 14 460 -10 43 -9 48 25 97 62 92 72
137 72 323 -1 182 -19 282 -91 511 l-36 112 31 66 c41 89 55 160 48 251 -5 74
-28 141 -63 180 -11 13 -8 25 17 75 51 103 60 232 25 349 l-13 43 48 73 c138
206 366 421 571 538 72 41 89 78 95 202 8 166 -33 354 -113 513 -65 129 -137
218 -270 334 -43 38 -75 74 -79 91 -10 40 -60 113 -97 143 -84 66 -183 98
-333 106 -223 11 -440 -53 -640 -191 -225 -156 -396 -346 -675 -755 -117 -172
-125 -181 -156 -181 -52 0 -147 -34 -205 -73 -30 -20 -92 -71 -139 -112 -104
-93 -197 -140 -375 -190 -127 -35 -278 -97 -439 -177 l-79 -40 -141 21 c-78
11 -298 34 -491 51 -403 35 -542 52 -710 85 -258 52 -367 101 -700 315 -66 42
-200 127 -297 189 -299 189 -398 275 -505 439 -148 225 -259 528 -438 1187
-267 991 -337 1157 -657 1556 -252 316 -481 541 -1077 1063 -298 261 -379 315
-561 377 -90 31 -103 33 -245 33 -82 1 -165 -2 -182 -6 l-33 -7 0 41 c0 63 34
120 110 188 37 33 75 75 84 94 32 67 11 216 -49 351 -32 73 -68 112 -162 176
-39 27 -80 62 -90 79 -9 16 -20 30 -24 30 -3 0 -9 -26 -13 -57 -15 -126 -63
-303 -83 -303 -3 0 -18 9 -33 20 -50 35 -101 118 -162 259 -33 75 -64 140 -69
145 -5 6 -8 -113 -6 -295z m5865 -12153 c26 -13 59 -26 73 -29 30 -8 30 3 -3
-167 -54 -279 -146 -520 -403 -1055 -100 -209 -195 -411 -210 -450 -50 -128
-158 -317 -217 -381 l-19 -21 -65 21 -64 21 -26 80 c-22 65 -27 101 -28 190
-1 149 1 155 75 190 61 30 114 79 103 96 -3 5 -21 9 -40 9 -19 0 -34 3 -34 6
0 27 555 1241 593 1297 17 26 65 73 105 103 40 31 80 69 89 85 10 16 19 29 20
29 2 0 25 -11 51 -24z m-1063 -2175 c16 -34 33 -61 39 -61 26 0 86 -22 81 -29
-11 -18 -59 -21 -110 -6 l-53 15 -7 65 c-11 105 5 110 50 16z"/>
</g>
</svg>
