<?xml version="1.0" standalone="no"?>
<!DOCTYPE svg PUBLIC "-//W3C//DTD SVG 20010904//EN"
 "http://www.w3.org/TR/2001/REC-SVG-20010904/DTD/svg10.dtd">
<svg version="1.0" xmlns="http://www.w3.org/2000/svg"
 width="778.000000pt" height="1536.000000pt" viewBox="0 0 778.000000 1536.000000"
 preserveAspectRatio="xMidYMid meet">
<metadata>
Created by potrace 1.16, written by Peter Selinger 2001-2019
</metadata>
<g transform="translate(0.000000,1536.000000) scale(0.100000,-0.100000)"
fill="#000000" stroke="none">
<path d="M4940 15344 c-165 -35 -371 -132 -468 -219 -102 -93 -167 -214 -265
-499 l-52 -151 1 -170 c2 -184 15 -295 65 -520 35 -161 46 -195 65 -195 7 0
16 -16 20 -37 4 -21 13 -50 20 -65 8 -15 11 -34 7 -44 -4 -10 0 -20 10 -26 10
-5 17 -18 17 -29 0 -11 11 -41 24 -67 43 -87 125 -515 160 -842 46 -435 56
-605 56 -935 0 -537 -24 -863 -76 -1025 -27 -88 -226 -490 -288 -583 -42 -62
-85 -103 -131 -123 -16 -7 -46 -29 -65 -49 -73 -77 -318 -224 -640 -386 -272
-136 -339 -164 -666 -279 -358 -126 -606 -218 -749 -278 -334 -140 -661 -350
-874 -561 -117 -115 -170 -184 -245 -316 -32 -55 -86 -143 -121 -195 -34 -52
-92 -140 -127 -195 -36 -55 -96 -137 -134 -183 -70 -84 -81 -103 -168 -278
-27 -54 -74 -139 -103 -189 -147 -242 -184 -369 -149 -518 22 -94 20 -128 -14
-269 -42 -169 -56 -293 -41 -351 6 -25 11 -100 11 -166 0 -75 4 -122 11 -127
6 -3 9 -15 6 -25 -4 -16 0 -19 29 -19 22 0 44 -9 66 -28 18 -15 45 -33 59 -39
26 -11 59 -66 59 -97 0 -9 -11 -44 -25 -79 -36 -87 -35 -138 6 -216 30 -57 33
-73 41 -189 9 -144 21 -191 84 -313 71 -137 65 -134 113 -57 46 73 111 138
139 138 10 0 23 -5 30 -12 19 -19 275 -801 597 -1828 l136 -434 -23 -91 c-18
-73 -22 -115 -21 -220 10 -1111 9 -1099 28 -1139 l19 -39 29 34 c15 19 40 54
55 78 26 44 26 46 33 327 7 255 20 421 35 445 12 20 23 6 29 -38 13 -97 107
-547 140 -667 59 -216 133 -396 169 -409 47 -18 46 86 -5 253 -17 58 -37 139
-45 180 -14 82 -19 200 -6 200 4 -1 16 -15 27 -33 14 -22 28 -32 45 -32 23 0
25 4 28 55 4 73 -26 199 -103 434 -35 105 -73 234 -85 286 -51 221 -61 254
-99 342 -21 51 -65 179 -96 285 -103 351 -253 813 -405 1248 -105 299 -153
454 -182 589 -18 88 -21 125 -17 281 6 292 1 422 -17 460 -21 44 -21 83 1 125
27 54 182 202 254 244 36 21 82 53 105 72 37 32 75 47 61 23 -4 -5 18 -35 48
-65 50 -50 57 -54 101 -54 63 0 79 -18 181 -200 44 -79 91 -156 103 -172 29
-34 73 -37 103 -7 19 19 21 30 16 93 -2 39 -13 86 -22 104 -14 27 -16 47 -11
95 13 115 37 189 72 225 59 59 79 25 88 -153 6 -124 29 -210 76 -293 38 -65
70 -83 108 -60 46 28 48 39 14 121 -18 42 -32 86 -32 100 0 27 28 57 53 57 8
0 23 7 31 16 14 14 14 19 -5 55 -11 22 -19 52 -17 66 5 44 26 48 130 29 105
-20 98 -21 298 40 47 14 140 34 208 46 105 18 126 19 137 7 16 -15 18 -47 36
-480 l12 -277 -56 -153 c-31 -85 -86 -238 -121 -340 -36 -103 -100 -267 -142
-365 -139 -327 -142 -341 -115 -604 15 -156 11 -258 -25 -570 -40 -348 -159
-1232 -204 -1510 -37 -224 -66 -301 -164 -425 -116 -148 -129 -171 -134 -234
-4 -55 -2 -60 21 -76 34 -22 62 -12 73 26 5 17 14 30 19 29 25 -2 4 -83 -55
-215 -98 -221 -162 -425 -132 -425 5 0 29 14 55 30 90 61 135 128 207 310 58
146 72 157 154 116 28 -14 83 -30 121 -36 39 -6 106 -27 150 -47 84 -37 282
-118 422 -172 99 -38 313 -91 366 -91 49 0 102 26 88 43 -15 19 -187 103 -271
133 -151 53 -540 243 -540 263 0 13 106 31 181 31 58 0 70 3 79 20 8 15 6 24
-9 39 -22 22 -42 26 -192 40 -117 10 -170 30 -212 80 -43 52 -52 94 -51 246 1
121 11 208 78 644 42 277 110 757 152 1065 41 309 81 591 89 627 7 36 30 99
50 139 34 68 37 79 46 214 5 77 16 163 24 190 8 27 22 90 30 140 24 137 69
298 118 421 24 61 61 162 81 226 52 164 89 222 242 379 147 151 304 366 392
537 71 138 146 246 306 443 103 125 151 195 185 263 57 113 289 455 352 517
50 48 254 304 279 348 8 15 35 59 59 97 62 99 152 283 196 399 55 148 75 252
82 411 6 148 -3 214 -60 453 l-22 92 17 328 c29 583 43 1284 29 1535 -6 122
-18 357 -26 522 -8 165 -19 341 -25 390 -5 50 -23 257 -40 460 -45 550 -56
622 -166 1065 -52 212 -109 432 -125 489 -32 111 -83 349 -94 443 -6 51 -4 64
24 123 64 139 147 228 255 276 26 11 109 32 184 45 164 30 277 58 522 129 102
30 205 57 230 60 25 4 59 13 76 21 18 7 90 23 160 33 71 11 209 33 307 50 249
43 631 91 728 91 152 0 417 53 458 91 56 52 -6 115 -135 138 -142 25 -388 46
-934 81 -457 29 -711 60 -984 121 -95 21 -130 42 -268 157 -31 26 -78 55 -105
65 -104 37 -277 46 -393 21z"/>
<path d="M3184 2889 c-3 -6 -1 -16 5 -22 8 -8 11 -5 11 11 0 24 -5 28 -16 11z"/>
</g>
</svg>
