<?xml version="1.0" standalone="no"?>
<!DOCTYPE svg PUBLIC "-//W3C//DTD SVG 20010904//EN"
 "http://www.w3.org/TR/2001/REC-SVG-20010904/DTD/svg10.dtd">
<svg version="1.0" xmlns="http://www.w3.org/2000/svg"
 width="1536.000000pt" height="1388.000000pt" viewBox="0 0 1536.000000 1388.000000"
 preserveAspectRatio="xMidYMid meet">
<metadata>
Created by potrace 1.16, written by Peter Selinger 2001-2019
</metadata>
<g transform="translate(0.000000,1388.000000) scale(0.100000,-0.100000)"
fill="#000000" stroke="none">
<path d="M3058 13833 c-104 -78 -317 -298 -419 -435 -460 -617 -778 -1592
-938 -2879 -54 -430 -80 -746 -106 -1289 -9 -179 -29 -543 -45 -810 -46 -757
-50 -837 -56 -1300 -16 -1112 68 -1914 267 -2535 82 -258 182 -456 474 -945
255 -428 359 -643 420 -872 24 -90 58 -260 52 -263 -1 -1 -54 5 -117 13 -174
23 -665 22 -835 -2 -807 -110 -1409 -457 -1733 -997 l-22 -37 202 -124 c956
-587 1772 -951 2603 -1161 735 -186 1467 -240 2205 -161 478 50 666 102 1310
361 604 243 676 268 795 283 117 15 147 29 231 110 100 98 130 108 378 135 77
8 158 20 180 26 80 21 213 100 381 225 179 135 284 203 350 227 32 12 139 18
535 27 272 6 779 20 1125 30 2008 63 2338 70 3160 70 718 0 1641 -23 1853 -46
46 -5 52 -3 52 13 0 15 -13 22 -57 31 -824 180 -1512 238 -3043 257 -1496 19
-1788 47 -3457 339 -718 126 -1182 197 -1526 233 l-168 17 -35 47 c-83 113
-211 346 -428 779 -274 546 -372 722 -491 877 -24 31 -36 62 -44 109 -7 36
-30 111 -52 166 -84 212 -87 260 -23 354 79 115 75 184 -16 271 -56 53 -60 60
-60 102 0 25 7 68 15 95 33 108 89 398 161 829 82 491 116 667 171 882 75 292
179 549 298 731 l55 85 0 82 c0 45 7 122 16 172 18 103 15 98 193 290 150 161
252 297 305 408 43 89 86 219 86 262 0 16 13 27 53 43 110 46 182 132 292 353
31 63 68 128 81 146 14 18 72 64 129 104 123 83 147 112 153 185 4 52 4 53
-34 77 -83 51 -130 62 -269 61 -174 -1 -175 -1 -795 -246 -580 -228 -1126
-541 -1722 -985 -198 -148 -211 -160 -330 -301 -214 -255 -297 -334 -444 -423
l-68 -42 -32 38 c-41 46 -103 166 -139 265 -14 41 -56 194 -91 340 -92 378
-111 433 -199 569 -90 139 -155 424 -229 1012 -79 618 -117 798 -228 1086
l-39 102 34 48 c52 75 62 108 61 208 -1 74 -8 111 -38 205 -78 246 -89 296
-89 420 1 96 7 147 43 315 33 158 43 228 47 337 l6 136 -46 99 c-24 54 -48
109 -51 123 -3 14 1 120 11 235 15 195 15 214 0 266 -9 30 -27 71 -40 90 -27
40 -112 99 -143 99 -12 0 -51 -21 -86 -47z"/>
</g>
</svg>
