<?xml version="1.0" standalone="no"?>
<!DOCTYPE svg PUBLIC "-//W3C//DTD SVG 20010904//EN"
 "http://www.w3.org/TR/2001/REC-SVG-20010904/DTD/svg10.dtd">
<svg version="1.0" xmlns="http://www.w3.org/2000/svg"
 width="1536.000000pt" height="1229.000000pt" viewBox="0 0 1536.000000 1229.000000"
 preserveAspectRatio="xMidYMid meet">
<metadata>
Created by potrace 1.16, written by Peter Selinger 2001-2019
</metadata>
<g transform="translate(0.000000,1229.000000) scale(0.100000,-0.100000)"
fill="#000000" stroke="none">
<path d="M6685 12274 c-61 -8 -299 -17 -605 -24 -278 -5 -516 -12 -530 -15
-53 -11 -385 -36 -590 -45 -118 -5 -250 -11 -293 -15 -43 -3 -138 -10 -210
-15 -136 -10 -477 -43 -627 -60 -194 -22 -1078 -55 -2020 -75 -645 -14 -753
-18 -790 -32 -23 -9 26 -21 90 -22 88 -2 265 -60 326 -106 19 -15 65 -40 102
-57 37 -16 75 -37 85 -46 13 -11 49 -18 125 -23 84 -5 119 -12 162 -32 107
-50 161 -52 1055 -49 127 1 254 5 282 10 45 8 55 6 69 -10 15 -16 33 -18 136
-18 l120 0 39 -33 c51 -44 95 -56 258 -73 74 -7 139 -18 144 -23 7 -7 7 -19
-1 -36 -7 -14 -12 -36 -12 -49 0 -21 6 -24 50 -30 55 -7 71 -26 52 -57 -7 -10
-12 -31 -12 -46 0 -16 -4 -34 -9 -42 -7 -11 -4 -18 12 -26 12 -6 24 -23 27
-39 6 -33 60 -90 104 -107 17 -7 45 -24 63 -38 32 -27 87 -66 113 -82 13 -8
13 -12 -3 -40 l-17 -31 78 -84 c80 -86 125 -158 142 -230 6 -23 24 -59 41 -80
18 -22 51 -80 75 -130 23 -51 47 -95 52 -98 6 -3 25 -51 42 -107 17 -55 47
-137 67 -181 30 -69 34 -89 30 -130 -4 -32 -1 -62 11 -93 15 -42 15 -49 -4
-129 l-21 -85 23 -22 c19 -18 24 -33 24 -73 0 -28 9 -70 20 -93 l19 -42 -38
-34 c-48 -43 -114 -82 -183 -108 -179 -68 -624 -197 -741 -214 -74 -12 -130
-28 -216 -64 -64 -27 -186 -74 -271 -105 -85 -30 -177 -64 -203 -75 -27 -11
-83 -30 -125 -41 -141 -36 -276 -78 -375 -114 -109 -40 -227 -62 -392 -71 -60
-3 -207 -12 -325 -20 -118 -8 -287 -17 -375 -20 -213 -8 -350 -22 -465 -47
-133 -28 -157 -40 -225 -111 -48 -50 -70 -66 -110 -77 -97 -26 -133 -49 -196
-126 -33 -41 -66 -74 -73 -74 -22 0 -210 -144 -243 -187 -21 -26 -49 -46 -80
-58 -70 -25 -174 -85 -168 -95 9 -15 -38 -40 -76 -40 -62 0 -68 -59 -12 -126
33 -42 35 -46 20 -61 -17 -18 -35 -13 -85 23 -21 16 -22 15 -22 -5 0 -25 58
-92 103 -120 18 -10 68 -31 112 -47 79 -27 85 -28 395 -35 316 -7 584 -26 760
-54 52 -9 160 -22 240 -30 80 -8 170 -19 200 -25 30 -5 102 -14 160 -20 58 -6
139 -17 180 -25 41 -8 111 -19 155 -25 89 -13 248 -48 404 -91 57 -16 153 -36
215 -44 61 -9 149 -22 196 -30 47 -8 117 -17 155 -20 39 -3 117 -14 175 -25
58 -10 157 -23 220 -30 111 -11 205 -27 525 -89 83 -17 175 -33 205 -36 30 -4
84 -14 120 -23 57 -14 150 -16 760 -15 688 1 967 11 1180 43 117 18 402 40
525 40 66 0 161 4 210 10 156 16 486 17 522 2 19 -8 56 -46 94 -95 95 -123
242 -265 453 -437 243 -198 353 -297 391 -350 86 -119 198 -228 285 -277 168
-94 284 -201 295 -272 16 -94 78 -171 157 -191 24 -6 54 -14 67 -18 16 -5 28
-18 33 -37 4 -17 30 -56 58 -88 27 -32 54 -75 59 -95 5 -20 17 -67 26 -103 20
-79 42 -103 135 -149 100 -50 126 -73 134 -119 7 -47 43 -92 96 -122 56 -32
97 -96 131 -203 16 -53 41 -109 58 -130 16 -20 41 -66 56 -103 15 -37 61 -115
102 -173 42 -58 93 -141 114 -185 38 -78 39 -85 50 -240 6 -88 17 -178 25
-200 31 -83 43 -133 59 -239 19 -126 46 -218 85 -296 15 -30 48 -111 73 -180
85 -236 169 -435 238 -570 39 -74 95 -196 125 -270 89 -216 141 -294 238 -348
64 -37 132 -111 188 -207 23 -38 77 -106 121 -151 64 -66 88 -100 123 -173 24
-51 69 -128 100 -172 31 -44 79 -131 106 -192 27 -62 62 -128 77 -147 36 -45
76 -123 90 -177 14 -50 39 -67 84 -57 65 14 334 312 482 534 115 172 285 526
349 725 30 93 147 515 210 757 24 91 47 171 50 177 14 22 67 422 76 571 12
190 37 344 97 582 41 167 46 196 50 338 4 116 1 182 -11 260 -38 236 -80 420
-132 570 -88 251 -104 327 -114 545 -11 222 -25 303 -90 520 -27 88 -69 243
-94 344 -25 101 -55 203 -67 227 -26 55 -129 151 -239 222 -47 30 -125 85
-175 122 -49 36 -124 90 -165 118 -287 200 -342 243 -595 468 -44 39 -120 104
-170 144 -107 86 -185 156 -185 164 0 8 93 54 165 81 137 53 556 259 653 323
35 22 79 46 97 52 18 6 67 28 107 49 241 124 900 251 1303 251 121 -1 160 -9
290 -60 106 -43 199 -72 305 -97 91 -21 200 -81 305 -169 113 -94 185 -130
300 -151 100 -17 126 -32 105 -58 -29 -34 2 -25 51 16 146 122 186 245 144
443 -30 139 -93 205 -306 316 l-144 75 3 75 c4 92 7 90 -148 160 -436 198
-647 364 -845 665 -83 126 -254 299 -358 363 -106 65 -223 118 -317 144 -41
11 -82 24 -90 28 -26 14 -160 38 -267 49 -107 11 -435 24 -1093 41 -380 11
-400 12 -530 41 -114 25 -345 92 -455 131 -16 6 -133 46 -260 89 -246 84 -363
114 -600 155 -198 34 -400 69 -505 89 -47 8 -157 24 -245 35 -164 21 -230 42
-300 93 -16 13 -76 49 -133 81 -56 32 -105 62 -108 67 -3 5 -46 37 -96 70
-306 206 -724 583 -839 757 -55 83 -75 156 -61 219 5 22 30 70 56 108 55 81
58 110 15 160 -67 76 -264 174 -391 195 -89 14 -522 10 -643 -6z"/>
</g>
</svg>
