<?xml version="1.0" standalone="no"?>
<!DOCTYPE svg PUBLIC "-//W3C//DTD SVG 20010904//EN"
 "http://www.w3.org/TR/2001/REC-SVG-20010904/DTD/svg10.dtd">
<svg version="1.0" xmlns="http://www.w3.org/2000/svg"
 width="1536.000000pt" height="1249.000000pt" viewBox="0 0 1536.000000 1249.000000"
 preserveAspectRatio="xMidYMid meet">
<metadata>
Created by potrace 1.16, written by Peter Selinger 2001-2019
</metadata>
<g transform="translate(0.000000,1249.000000) scale(0.100000,-0.100000)"
fill="#000000" stroke="none">
<path d="M12825 12474 c-60 -7 -138 -13 -171 -13 -54 -1 -64 -4 -78 -26 -9
-14 -23 -25 -31 -25 -8 0 -15 -3 -15 -7 0 -5 -12 -21 -26 -38 l-25 -30 25 39
c40 62 22 71 -66 32 -30 -13 -62 -35 -70 -48 -28 -41 -128 -138 -143 -138 -22
0 -18 18 20 99 19 40 35 74 35 77 0 7 -94 52 -132 62 -34 9 -38 8 -66 -22 -16
-17 -52 -66 -81 -108 -28 -42 -56 -80 -62 -83 -15 -10 98 164 130 199 21 24
23 28 6 21 -11 -5 -49 -10 -85 -10 -123 -3 -111 3 -175 -95 -32 -49 -60 -88
-63 -86 -2 3 6 21 18 41 12 20 20 38 18 40 -2 2 -73 -20 -158 -49 -140 -49
-157 -57 -197 -99 l-43 -46 -17 30 c-23 39 -57 39 -73 -1 -7 -17 -15 -29 -17
-26 -3 2 0 14 7 25 7 14 7 21 0 21 -5 0 -10 16 -10 35 0 19 -4 35 -10 35 -5 0
-12 -16 -16 -35 -4 -22 -12 -35 -22 -35 -8 0 -21 -8 -28 -17 -13 -17 -14 -17
-7 1 6 18 3 19 -42 13 -26 -4 -60 -7 -74 -7 -23 0 -34 -13 -85 -105 -32 -58
-61 -104 -63 -101 -3 3 17 48 45 100 28 53 48 96 44 96 -3 0 -31 -7 -63 -16
-48 -14 -60 -22 -78 -55 -26 -46 -39 -53 -16 -8 9 17 15 33 12 35 -2 2 -35
-11 -73 -31 -82 -41 -184 -119 -184 -141 0 -8 -5 -12 -10 -9 -6 3 -45 -27 -89
-67 -162 -151 -159 -149 -197 -133 -36 15 -37 14 -199 -115 -24 -19 -78 -61
-119 -93 -91 -71 -159 -145 -189 -209 -23 -49 -35 -55 -68 -38 -16 9 -46 -1
-157 -50 -75 -34 -147 -71 -161 -83 -13 -12 -37 -50 -55 -84 -67 -133 -150
-276 -188 -324 -51 -65 -139 -129 -259 -189 -52 -27 -101 -55 -108 -64 -8 -9
-17 -16 -21 -16 -4 0 -22 34 -40 75 -54 124 -122 164 -195 115 -46 -30 -83
-26 -126 16 -45 44 -84 53 -223 54 l-108 0 -133 80 c-100 60 -142 80 -169 80
-26 0 -34 -4 -30 -14 6 -17 -9 -49 -42 -88 -12 -15 -25 -47 -29 -70 -8 -51
-33 -94 -46 -81 -6 6 -3 29 6 59 8 27 15 50 15 52 0 1 -11 2 -25 2 -19 0 -28
-9 -45 -47 -25 -58 -47 -83 -72 -83 -31 0 -23 57 20 130 75 131 79 158 28 189
-33 21 -109 29 -132 13 -16 -10 -134 -246 -134 -267 0 -16 -6 -13 -34 14 -25
25 -32 38 -26 50 72 141 92 261 47 282 -55 25 -132 -41 -157 -133 -7 -27 -16
-48 -20 -48 -4 0 -13 14 -21 31 -8 20 -25 37 -46 45 -39 17 -39 18 -14 50 22
28 38 102 25 114 -5 5 -24 2 -42 -5 -33 -14 -71 -77 -72 -117 0 -29 -16 -20
-26 15 -8 28 -14 32 -47 35 -33 3 -37 1 -37 -20 0 -30 -17 -48 -46 -48 -25 0
-54 34 -54 62 0 27 -23 22 -47 -9 -35 -49 -53 -90 -68 -163 -8 -39 -22 -85
-31 -102 -15 -29 -18 -30 -29 -15 -7 9 -17 17 -24 17 -15 0 -15 1 13 51 26 48
40 138 30 198 -7 45 -13 48 -119 57 -119 11 -152 -17 -180 -151 -21 -99 -41
-126 -29 -40 11 78 7 137 -8 147 -18 11 -75 10 -97 -1 -9 -5 -27 -32 -40 -59
l-23 -50 -36 40 c-31 35 -116 88 -139 88 -5 0 -14 -13 -20 -30 -15 -40 -39
-38 -54 5 l-13 35 -29 -28 c-43 -40 -71 -94 -118 -222 -46 -127 -54 -142 -63
-112 -5 14 -17 22 -39 24 -30 3 -32 5 -35 50 -2 34 4 60 22 97 15 28 26 53 26
56 0 13 -136 69 -166 69 -17 0 -44 -10 -60 -23 l-29 -23 -3 22 c-4 22 -7 22
-70 16 -37 -3 -77 -6 -89 -6 -18 0 -23 -6 -23 -24 0 -41 -24 -51 -63 -27 -38
23 -91 27 -149 11 -27 -8 -46 -23 -68 -55 -35 -51 -44 -55 -88 -43 -45 13 -61
5 -107 -53 -51 -64 -69 -74 -132 -71 -45 3 -55 -1 -87 -29 -30 -26 -46 -32
-89 -34 -97 -4 -126 -37 -137 -152 -5 -52 -12 -79 -23 -84 -29 -16 -54 -73
-66 -147 -15 -94 -66 -253 -91 -284 l-19 -23 -27 27 c-23 23 -25 30 -16 55 12
37 -5 81 -44 112 -37 29 -52 67 -60 149 -4 37 -12 78 -17 92 -6 14 -12 36 -13
50 -4 30 -31 52 -56 44 -12 -3 -18 0 -18 9 0 20 -30 45 -60 49 -14 2 -24 9
-22 17 8 38 -8 51 -64 51 -48 0 -54 2 -54 20 0 22 -12 29 -53 34 -15 1 -36 11
-47 21 -16 14 -30 17 -71 12 -30 -4 -58 -2 -68 5 -13 8 -33 8 -70 1 -40 -8
-53 -7 -62 3 -18 21 -49 17 -87 -13 -28 -21 -51 -28 -116 -34 -96 -8 -116 -13
-219 -46 -74 -24 -82 -29 -125 -86 -26 -33 -68 -85 -94 -115 -26 -30 -75 -94
-108 -143 -64 -93 -73 -129 -49 -196 9 -28 4 -42 -51 -152 -33 -67 -74 -156
-91 -198 -16 -42 -41 -95 -54 -117 -13 -23 -30 -65 -39 -94 -9 -32 -25 -62
-41 -74 -41 -32 -48 -56 -57 -178 -4 -63 -16 -186 -26 -272 l-19 -157 -61
-120 c-58 -113 -62 -125 -61 -185 1 -35 -2 -69 -6 -76 -4 -7 -32 -23 -61 -36
-55 -24 -59 -30 -55 -90 3 -43 -38 -88 -101 -112 -48 -18 -56 -26 -103 -104
l-52 -85 4 -139 c5 -152 11 -170 70 -209 27 -17 32 -27 35 -70 4 -50 3 -51
-72 -140 -41 -49 -93 -112 -115 -140 -21 -27 -61 -72 -88 -100 -27 -27 -58
-68 -67 -91 -10 -23 -47 -89 -83 -147 -201 -324 -215 -362 -277 -737 -38 -225
-53 -285 -81 -323 -21 -29 -21 -34 -11 -146 8 -94 8 -126 -4 -171 -19 -73 -18
-84 10 -117 13 -15 26 -41 30 -58 13 -64 26 -319 17 -328 -6 -6 -4 -22 5 -43
30 -71 7 -128 -75 -188 -135 -100 -248 -126 -539 -125 -191 1 -252 -7 -238
-30 5 -7 105 -38 201 -61 35 -8 32 -9 -23 -4 -35 3 -93 14 -129 25 -36 11 -72
18 -81 14 -21 -8 -7 -20 53 -44 58 -23 38 -28 -26 -6 -50 18 -62 11 -57 -35 3
-29 9 -35 53 -52 28 -11 91 -31 140 -45 165 -47 132 -59 -45 -17 -61 14 -114
24 -116 21 -6 -5 144 -61 193 -72 18 -3 33 -11 33 -16 0 -16 -78 -10 -135 12
-31 12 -59 18 -62 15 -6 -6 100 -56 119 -56 9 0 9 -3 0 -12 -9 -9 -21 -8 -52
5 -36 14 -39 14 -31 0 10 -19 169 -81 229 -90 42 -6 53 -16 30 -27 -15 -7 164
1 207 9 24 5 22 3 -10 -10 -28 -12 -88 -19 -195 -23 l-155 -7 62 -19 c46 -14
79 -17 125 -13 59 5 61 5 36 -9 -16 -8 -64 -17 -108 -21 -44 -3 -80 -8 -80
-11 0 -2 13 -21 30 -42 l30 -37 51 9 c83 15 216 56 318 98 52 22 97 38 98 36
7 -6 -180 -84 -262 -109 -44 -14 -106 -30 -138 -37 -48 -10 -56 -14 -46 -26 7
-8 32 -15 63 -15 33 -1 41 -3 21 -6 -16 -3 -34 -9 -40 -15 -7 -7 3 -9 31 -5
34 4 90 24 234 84 10 4 9 -1 -5 -17 -21 -24 -129 -80 -154 -80 -8 0 -12 -3 -8
-6 3 -3 41 4 84 17 58 17 105 42 183 95 92 62 234 148 220 132 -3 -3 -76 -53
-163 -111 -148 -99 -225 -136 -332 -160 -51 -12 117 -5 220 8 139 18 177 34
361 150 173 109 234 170 304 306 28 55 59 103 68 107 9 3 40 6 67 7 l50 0 -3
-44 c-1 -24 -9 -49 -16 -55 -10 -8 -12 -27 -6 -76 5 -43 3 -73 -5 -90 -6 -14
-13 -67 -14 -117 -2 -80 1 -100 22 -145 30 -66 51 -88 84 -88 15 0 47 -13 72
-29 64 -42 144 -76 148 -64 2 6 10 19 17 29 12 15 16 16 30 5 9 -7 21 -32 27
-55 8 -28 30 -61 73 -106 35 -36 66 -74 69 -85 4 -11 29 -30 56 -43 27 -12 83
-47 126 -77 42 -30 78 -55 81 -55 2 0 4 21 4 46 0 54 14 84 40 84 32 0 84 -95
95 -172 10 -73 44 -75 46 -3 0 26 2 27 9 10 4 -11 13 -39 19 -63 15 -53 44
-73 124 -84 58 -7 65 -11 107 -58 50 -56 81 -64 121 -31 l23 18 119 -81 c83
-56 131 -97 158 -133 62 -83 141 -133 211 -133 18 0 58 -14 88 -31 30 -17 82
-42 115 -56 33 -13 74 -37 90 -53 17 -15 50 -42 74 -59 40 -28 51 -31 116 -31
l73 0 67 -75 c37 -41 74 -75 83 -75 10 0 55 -12 101 -25 97 -28 101 -29 101
-14 0 6 -18 18 -40 26 -44 17 -48 24 -25 43 37 31 191 -38 366 -164 154 -111
246 -167 362 -221 53 -25 99 -45 102 -45 3 0 5 11 5 24 0 14 4 28 10 31 11 7
140 -51 212 -95 37 -23 60 -30 99 -30 42 0 49 3 47 18 -2 12 5 18 23 20 21 2
28 10 33 34 8 40 5 43 -51 57 -57 14 -93 36 -93 56 0 27 31 45 78 45 42 0 179
-28 224 -45 13 -5 19 0 24 21 7 29 7 29 18 -11 9 -31 17 -41 36 -43 13 -2 93
13 176 33 151 38 213 41 170 10 -15 -11 -20 -35 -27 -129 -8 -111 -23 -193
-41 -228 -5 -10 -22 -82 -38 -160 -36 -177 -54 -258 -87 -375 -22 -80 -28 -92
-50 -98 -24 -6 -25 -9 -20 -48 6 -44 -5 -68 -35 -80 -11 -4 -18 -17 -18 -32 0
-14 -9 -44 -21 -67 -11 -22 -18 -49 -16 -59 3 -12 -7 -34 -30 -61 -41 -50 -63
-90 -63 -117 0 -24 -60 -68 -139 -101 -45 -20 -56 -30 -72 -66 -12 -30 -25
-45 -41 -48 -133 -26 -347 -52 -368 -44 -19 6 -53 0 -130 -24 -94 -28 -122
-32 -275 -38 -147 -6 -177 -9 -223 -29 -89 -40 -129 -103 -120 -192 4 -49 28
-48 94 5 31 25 59 46 62 46 4 0 18 -16 31 -36 14 -19 38 -42 54 -51 26 -13 34
-13 71 0 55 20 232 31 505 32 l224 0 -2 -87 c-2 -76 0 -89 18 -107 26 -26 44
-27 36 -2 -3 10 -1 30 4 45 13 33 53 35 75 5 24 -35 107 -23 246 35 127 53
212 86 280 110 25 9 68 33 95 54 43 33 50 43 48 70 -3 35 9 45 72 57 21 3 52
18 69 32 31 26 42 26 123 2 48 -15 58 -10 67 36 l7 31 -138 67 c-76 37 -143
67 -149 67 -6 0 -19 9 -29 20 -16 18 -17 29 -5 152 22 249 89 578 117 578 8 0
40 -7 71 -16 97 -29 377 -6 466 37 l38 18 108 -94 c183 -158 307 -245 469
-325 97 -48 243 -100 284 -100 12 0 88 -33 169 -74 96 -49 173 -80 225 -92 72
-17 87 -25 192 -107 149 -116 248 -182 328 -219 71 -33 115 -34 201 -5 l43 15
24 -33 c34 -44 139 -70 285 -70 97 0 109 2 156 28 82 46 152 112 160 152 9 50
29 63 62 41 15 -9 54 -30 87 -47 55 -27 69 -29 168 -29 101 0 111 2 143 26 25
20 34 34 34 56 0 17 14 55 31 85 21 36 33 73 36 112 l5 58 -101 134 c-55 74
-111 154 -123 179 -12 25 -38 65 -57 90 -37 46 -23 41 39 -15 19 -18 71 -53
115 -80 44 -26 140 -90 214 -143 74 -53 136 -91 138 -85 2 6 22 35 44 64 23
30 54 80 70 112 25 49 29 68 27 121 -3 88 26 119 76 81 23 -17 56 -20 56 -5 0
6 11 15 25 20 14 5 25 15 25 22 1 7 14 29 30 48 19 21 30 45 30 65 0 50 33 91
100 125 34 17 63 36 66 44 3 7 -2 50 -10 96 -8 47 -12 88 -9 93 3 5 -7 35 -21
67 -33 73 -61 202 -75 340 -6 58 -19 134 -30 170 -18 62 -103 221 -122 228 -5
2 -9 10 -9 18 0 8 -11 37 -25 64 -29 57 -31 73 -10 90 8 7 15 24 15 37 0 36
32 124 52 145 31 32 41 96 35 243 -3 97 -10 155 -22 188 -15 42 -16 54 -5 87
18 55 4 172 -37 305 -5 18 -5 18 21 2 22 -15 33 -16 69 -6 23 6 59 20 79 30
20 10 39 19 42 19 2 0 7 -18 11 -40 10 -62 53 -111 132 -153 l70 -37 74 25
c93 32 163 40 215 26 37 -10 43 -16 75 -83 l34 -73 78 -16 c46 -10 90 -26 110
-41 l32 -25 54 18 c73 25 139 31 180 16 32 -11 88 -70 131 -136 15 -23 17 -23
106 -12 49 6 118 20 152 32 l62 21 -20 33 c-26 42 -13 51 30 20 33 -25 34 -25
63 -6 42 26 124 108 157 156 73 106 123 238 154 410 13 66 27 120 32 120 5 -1
35 -5 67 -9 41 -6 61 -5 72 4 13 10 28 10 80 -5 l65 -17 68 43 c299 193 301
195 351 282 46 83 66 146 57 190 -5 24 0 31 43 57 50 31 115 113 126 160 4 15
26 39 56 59 51 35 169 154 169 171 0 6 9 10 21 10 51 0 77 42 44 70 -23 19
-14 53 17 68 27 13 53 67 46 98 -2 10 -27 24 -68 37 l-65 20 30 13 c17 7 56
18 87 25 32 6 62 17 67 23 5 6 13 36 19 66 6 30 14 67 18 82 12 50 -5 99 -47
140 -31 30 -35 38 -20 38 29 0 47 26 31 45 -17 21 -7 29 17 14 29 -18 81 -4
136 37 27 20 47 38 44 40 -2 3 -24 8 -48 13 l-44 9 61 1 c50 1 64 5 83 25 l22
23 -28 6 c-15 3 -37 13 -48 22 -19 15 -16 16 41 10 61 -6 62 -5 93 30 17 20
32 39 32 43 10 53 12 52 -70 45 -42 -3 -73 -3 -69 1 3 4 41 16 83 27 43 11 84
27 93 35 8 9 23 54 33 101 10 47 20 92 23 100 11 28 -13 53 -52 54 -37 1 -37
1 -9 11 16 5 27 17 27 28 0 9 7 34 15 54 8 20 12 36 8 36 -28 0 46 30 110 45
76 17 97 32 97 69 0 8 -16 24 -35 36 -20 12 -41 28 -48 34 -7 7 -22 18 -35 25
-27 14 -31 47 -4 36 32 -14 129 -18 151 -6 34 19 25 39 -21 49 -41 9 -41 10
-10 11 17 1 32 4 32 9 -1 15 -36 51 -60 61 -20 9 -17 10 21 5 58 -7 99 12 134
64 l25 37 -71 12 c-39 7 -74 15 -77 18 -3 3 33 5 79 5 l84 0 23 63 c18 51 21
69 12 91 -6 18 -15 26 -24 23 -37 -14 -89 -19 -82 -8 4 6 25 14 47 17 32 5 39
10 39 30 0 19 -6 23 -37 27 l-38 4 38 1 c37 2 44 12 31 46 -5 12 -16 14 -52 9
-54 -7 -52 11 3 21 41 8 42 14 15 91 -11 32 -20 61 -20 65 0 3 19 15 43 27 63
30 112 74 95 84 -9 6 -4 9 14 9 21 0 38 14 81 68 29 37 66 88 81 114 l28 47
-33 46 c-18 25 -30 47 -28 50 3 2 21 0 40 -5 18 -6 39 -10 45 -10 10 0 44 78
44 100 0 4 -36 10 -80 12 -44 3 -83 7 -86 11 -18 18 15 27 96 27 l88 0 16 73
c19 89 22 129 13 144 -4 6 -3 14 3 18 5 3 10 27 10 52 0 42 -2 45 -23 40 -29
-8 -39 0 -54 41 -11 32 -10 33 28 59 21 14 39 33 39 42 0 24 -16 44 -29 37 -6
-4 -11 -1 -11 8 0 8 4 17 10 21 5 3 7 12 4 20 -5 12 -18 14 -60 9 -65 -8 -75
11 -12 21 23 4 46 12 52 17 6 5 25 18 43 28 59 35 119 141 138 242 l7 36 -65
-5 c-88 -7 -93 8 -13 46 35 17 68 31 74 31 16 0 25 57 17 115 l-6 53 -59 -24
c-64 -26 -86 -29 -94 -15 -4 5 24 26 61 46 82 45 103 62 103 87 0 24 -2 24
-65 -17 -52 -33 -189 -105 -200 -105 -15 0 -1 18 23 29 51 23 131 75 126 82
-2 4 20 22 48 39 29 18 54 33 56 35 1 1 0 10 -4 19 -4 10 -18 16 -38 16 -40 0
-65 14 -41 24 9 3 25 6 36 6 12 0 17 5 12 16 -3 8 -12 13 -19 10 -30 -12 -174
-38 -186 -34 -7 3 20 15 60 27 40 12 84 26 97 31 l24 9 -37 71 c-39 74 -38 74
-99 54 -11 -4 -6 5 14 25 26 24 36 45 46 95 l13 65 -23 3 c-32 4 -30 21 3 23
24 1 44 19 44 41 0 7 -11 9 -26 6 -16 -3 -35 3 -53 16 l-27 20 -55 -20 c-30
-11 -81 -29 -113 -39 -33 -11 -66 -25 -73 -31 -7 -6 -16 -9 -19 -6 -8 8 129
108 276 201 l136 86 -4 41 c-2 22 -8 43 -13 46 -5 3 -33 -14 -62 -38 -86 -72
-96 -74 -24 -5 63 61 79 88 58 101 -5 3 -48 -8 -96 -24 -49 -17 -90 -28 -92
-27 -2 2 39 21 90 41 l93 38 -4 34 c-3 20 -10 34 -18 34 -7 0 -48 -14 -91 -31
-71 -28 -173 -49 -173 -36 0 3 17 11 38 17 20 7 76 31 125 53 83 38 87 41 87
72 l0 33 -72 -28 c-76 -29 -161 -48 -143 -33 6 5 31 14 57 21 25 6 71 23 102
36 52 23 56 27 56 59 0 46 -17 50 -81 21 l-54 -25 35 36 c29 30 32 37 20 45
-22 14 -20 15 -101 -52 l-74 -61 64 65 c38 40 59 68 52 72 -6 4 -37 4 -69 0
-66 -7 -85 6 -85 57 0 16 -1 29 -3 29 -1 0 -48 -20 -105 -45 -100 -43 -149
-55 -149 -36 0 5 11 12 26 15 14 4 72 27 130 52 79 35 104 51 104 65 0 18 -9
19 -122 20 -142 0 -134 9 30 35 105 17 111 19 115 43 3 14 5 27 4 27 -1 1 -28
-2 -59 -8 -35 -6 -82 -6 -120 -1 l-63 8 126 19 126 19 11 46 c6 25 9 48 6 50
-2 2 -52 -10 -111 -28 -133 -38 -204 -42 -98 -5 39 13 105 34 148 46 48 13 77
26 77 35 0 7 -11 36 -25 63 l-25 50 -123 -60 c-67 -34 -113 -53 -102 -45 11 9
64 39 118 66 90 46 96 51 85 69 -7 11 -16 20 -19 20 -4 0 -38 -14 -76 -31
-140 -64 -149 -62 -30 6 99 57 93 53 79 67 -10 10 -8 17 10 31 l23 18 -23 -11
c-20 -10 -28 -8 -48 11 -30 28 -30 31 3 80 36 55 22 70 -46 46 -63 -22 -66
-22 -47 8 18 27 15 30 -15 14 -15 -8 -24 -7 -35 2 -13 10 -11 16 13 42 l28 29
-39 -16 c-35 -15 -41 -15 -56 -1 -9 8 -24 15 -32 15 -19 0 -31 51 -15 63 7 5
3 7 -11 4 -18 -4 -28 2 -47 31 -13 20 -29 52 -36 70 -9 28 -16 32 -47 33 -31
2 -32 3 -9 6 23 4 26 8 21 28 -5 19 0 27 28 40 43 23 69 46 62 56 -10 17 -38
9 -59 -17 -18 -22 -25 -25 -57 -19 -21 4 -36 12 -35 17 3 14 -164 215 -185
223 -9 3 -29 16 -44 28 -15 12 -44 27 -64 32 -26 8 -35 16 -35 32 0 14 -17 34
-45 56 l-45 34 -132 -3 -131 -3 49 46 c27 25 49 51 49 58 0 28 -35 25 -85 -9
-67 -44 -174 -98 -186 -94 -6 2 36 38 92 81 74 56 97 78 85 83 -10 4 -35 -8
-67 -31 -28 -20 -53 -34 -56 -32 -2 3 16 20 41 39 25 18 45 36 46 40 0 3 -14
11 -31 17 -29 10 -35 8 -73 -23 -100 -84 -116 -92 -47 -27 73 70 74 71 40 65
-19 -4 -52 -23 -74 -43 -77 -70 -95 -84 -100 -79 -3 3 15 31 40 62 l46 56 -33
0 c-29 0 -44 -12 -113 -87 -44 -48 -85 -98 -92 -112 -10 -24 -11 -22 -12 25
-1 28 6 68 15 89 8 20 13 39 10 42 -10 11 -46 -10 -102 -58 -51 -46 -61 -50
-92 -45 -29 4 -39 0 -64 -24 -16 -17 -32 -30 -35 -30 -4 0 -15 -8 -26 -17 -11
-10 2 11 30 47 52 67 126 185 129 208 3 18 -46 28 -57 11 -6 -10 -9 -11 -9 -1
0 15 -48 14 -215 -4z m-1645 -324 c-6 -11 -13 -20 -16 -20 -2 0 0 9 6 20 6 11
13 20 16 20 2 0 0 -9 -6 -20z m-60 -90 c-12 -16 -24 -30 -26 -30 -3 0 4 14 16
30 12 17 24 30 26 30 3 0 -4 -13 -16 -30z m-4288 -1170 c4 -24 1 -30 -14 -30
-18 0 -23 16 -12 44 10 25 21 19 26 -14z m8293 -2770 c-22 -4 -67 -10 -100
-13 -57 -5 -59 -5 -30 8 17 8 60 14 100 13 61 0 65 -1 30 -8z m-175 -30 c-8
-5 -19 -10 -25 -10 -5 0 -3 5 5 10 8 5 20 10 25 10 6 0 3 -5 -5 -10z m-1028
-2590 c-40 -25 -42 -25 -42 0 0 16 7 20 38 20 l37 0 -33 -20z"/>
</g>
</svg>
