<?xml version="1.0" standalone="no"?>
<!DOCTYPE svg PUBLIC "-//W3C//DTD SVG 20010904//EN"
 "http://www.w3.org/TR/2001/REC-SVG-20010904/DTD/svg10.dtd">
<svg version="1.0" xmlns="http://www.w3.org/2000/svg"
 width="1115.000000pt" height="1536.000000pt" viewBox="0 0 1115.000000 1536.000000"
 preserveAspectRatio="xMidYMid meet">
<metadata>
Created by potrace 1.16, written by Peter Selinger 2001-2019
</metadata>
<g transform="translate(0.000000,1536.000000) scale(0.100000,-0.100000)"
fill="#000000" stroke="none">
<path d="M1231 15348 c-75 -21 -272 -169 -380 -283 -83 -89 -159 -192 -216
-295 -41 -74 -75 -112 -250 -285 -204 -203 -265 -277 -315 -389 -52 -115 -64
-177 -64 -341 0 -187 18 -275 114 -568 38 -117 97 -300 130 -407 70 -220 116
-347 132 -356 7 -4 8 54 3 182 l-7 189 23 10 c21 9 25 19 31 75 3 36 11 81 17
100 5 19 31 168 56 330 25 162 50 305 55 316 4 12 37 37 72 57 147 82 239 172
254 246 4 17 12 35 18 40 7 6 68 22 136 36 192 41 329 100 504 217 112 76 179
101 271 102 139 0 217 -62 300 -238 95 -200 161 -405 197 -606 17 -99 17 -422
0 -520 -50 -280 -112 -451 -360 -997 -273 -599 -370 -883 -436 -1272 l-23
-137 38 -360 c72 -670 89 -742 205 -857 56 -55 372 -260 465 -301 139 -61 358
-122 560 -156 217 -37 561 -37 697 -1 21 6 45 -2 107 -35 307 -162 777 -205
1355 -123 80 11 177 27 215 36 91 19 178 17 320 -7 193 -33 304 -86 425 -205
72 -69 84 -104 100 -275 5 -63 14 -128 19 -145 15 -53 -6 -738 -33 -1090 -74
-950 -132 -1543 -177 -1802 -28 -169 -129 -417 -208 -517 -57 -71 -81 -210
-81 -462 l0 -151 -64 -224 c-35 -123 -217 -784 -405 -1469 -187 -685 -364
-1328 -393 -1429 l-53 -184 -55 -2 c-66 -2 -133 -34 -216 -101 -51 -42 -60
-46 -83 -37 -14 6 -67 27 -118 48 l-92 38 -108 -32 c-106 -32 -110 -34 -156
-89 -25 -31 -45 -57 -43 -59 2 -3 274 -52 292 -53 1 0 5 -29 9 -65 3 -36 8
-65 9 -65 2 0 68 27 147 61 199 84 360 145 422 159 116 26 129 32 174 76 32
33 42 50 38 64 -8 27 97 387 721 2457 l274 911 104 214 c126 258 173 376 186
466 5 37 14 227 20 422 12 404 14 439 76 1095 90 971 161 1678 169 1703 3 8
10 10 17 6 7 -4 53 -9 103 -11 167 -5 118 56 446 -545 558 -1022 885 -1633
1128 -2108 l156 -305 5 -235 5 -235 73 -151 c55 -112 77 -170 87 -230 9 -46
38 -510 70 -1109 80 -1480 149 -2631 160 -2662 3 -9 -12 -11 -61 -6 -59 5 -69
3 -128 -26 -35 -18 -86 -53 -115 -78 l-52 -46 -119 51 -118 50 -109 -34 c-106
-33 -110 -35 -157 -91 -38 -46 -45 -59 -32 -61 10 -2 77 -14 149 -26 l132 -22
10 -66 10 -66 35 15 c304 131 485 199 570 214 71 13 130 48 162 96 25 35 26
44 22 123 -3 47 -16 308 -29 580 -14 272 -50 968 -80 1545 -83 1611 -82 1570
-57 1820 45 448 47 482 23 553 -71 210 -219 486 -806 1507 -416 723 -619 1085
-775 1387 l-110 213 2 130 3 129 34 23 c19 13 66 33 105 44 39 12 121 41 181
66 61 25 185 70 276 99 137 44 175 61 215 93 58 49 167 91 255 98 56 5 76 2
134 -22 97 -38 166 -38 236 2 48 27 66 31 164 36 66 3 149 16 208 31 l97 25
148 -55 c177 -66 305 -104 349 -104 23 0 51 -14 100 -51 37 -29 88 -60 113
-71 57 -25 139 -34 178 -20 28 10 34 7 77 -30 25 -22 57 -62 70 -87 13 -26 31
-54 41 -62 9 -8 33 -38 52 -68 24 -38 37 -50 45 -42 7 7 14 6 22 -5 10 -14 19
-13 78 14 37 17 70 39 74 48 9 25 -14 132 -41 186 l-24 46 35 -15 c20 -8 44
-12 54 -10 10 3 34 -4 54 -14 20 -11 71 -25 112 -32 69 -11 81 -17 126 -56 27
-25 60 -62 73 -83 29 -45 56 -49 136 -18 71 27 85 26 150 -14 51 -31 75 -52
137 -126 l21 -25 -6 33 c-4 17 -4 32 -1 32 2 0 24 -30 48 -67 29 -44 45 -61
47 -50 12 62 -155 362 -228 411 -21 14 -44 35 -50 46 -11 20 -3 32 54 78 17
13 21 49 8 68 -4 7 -23 18 -42 26 -19 9 -55 33 -79 56 -43 39 -43 40 -20 47
46 15 100 59 125 101 27 46 24 64 -17 109 -10 12 -25 39 -32 60 -13 37 -18 41
-58 46 -25 4 -75 16 -113 27 -58 18 -75 19 -120 10 -28 -6 -63 -8 -76 -5 -38
10 -144 96 -189 154 -22 28 -103 118 -180 200 -259 276 -544 524 -796 693
l-100 67 4 54 3 54 35 -40 36 -40 -6 39 c-3 21 -20 67 -37 103 -20 43 -30 81
-30 112 -1 80 -19 181 -51 275 -51 150 -69 217 -79 295 -11 84 -76 232 -138
316 -56 74 -59 81 -23 56 54 -39 132 -122 150 -160 30 -62 56 -101 66 -98 24
8 13 55 -40 160 -146 290 -164 321 -218 376 -48 49 -59 68 -91 160 -77 226
-317 516 -504 610 -114 57 -296 111 -542 161 -91 19 -119 29 -210 83 -58 33
-132 72 -165 84 l-60 24 55 -6 c30 -4 109 -18 175 -32 66 -14 152 -27 190 -28
59 -1 84 -8 156 -42 47 -23 106 -44 130 -48 24 -4 53 -12 64 -18 39 -19 -26
43 -108 104 l-79 59 29 10 c71 26 72 24 -43 72 -242 102 -420 146 -629 155
-125 5 -148 9 -210 35 -38 16 -81 36 -95 44 -153 86 -284 124 -434 124 -159 0
-282 -44 -386 -137 -44 -39 -52 -43 -102 -43 -185 0 -405 -125 -708 -400 -127
-116 -316 -233 -710 -440 -231 -122 -268 -148 -424 -299 -392 -382 -673 -867
-731 -1264 -51 -343 -168 -604 -365 -811 -233 -245 -490 -285 -671 -104 -70
70 -130 179 -180 326 l-43 127 -4 205 c-6 303 20 534 88 774 17 60 91 261 165
447 162 407 212 550 264 757 200 798 88 1541 -327 2166 -97 147 -210 284 -357
433 -123 124 -133 132 -183 142 -40 8 -70 24 -120 65 -92 73 -98 76 -230 92
-135 15 -232 16 -281 2z m6092 -2465 c-7 -2 -21 -2 -30 0 -10 3 -4 5 12 5 17
0 24 -2 18 -5z"/>
</g>
</svg>
