<?xml version="1.0" standalone="no"?>
<!DOCTYPE svg PUBLIC "-//W3C//DTD SVG 20010904//EN"
 "http://www.w3.org/TR/2001/REC-SVG-20010904/DTD/svg10.dtd">
<svg version="1.0" xmlns="http://www.w3.org/2000/svg"
 width="711.000000pt" height="1536.000000pt" viewBox="0 0 711.000000 1536.000000"
 preserveAspectRatio="xMidYMid meet">
<metadata>
Created by potrace 1.16, written by Peter Selinger 2001-2019
</metadata>
<g transform="translate(0.000000,1536.000000) scale(0.100000,-0.100000)"
fill="#000000" stroke="none">
<path d="M5385 15350 c-184 -29 -490 -167 -1045 -472 -314 -173 -323 -179
-373 -250 -23 -32 -48 -58 -56 -58 -36 0 -1022 -91 -1091 -100 -164 -23 -300
-63 -300 -88 1 -17 19 -33 60 -51 42 -18 681 -181 1042 -266 141 -33 163 -42
215 -79 32 -24 100 -71 151 -106 102 -69 139 -110 178 -195 34 -73 94 -288 94
-335 l0 -35 -132 -49 c-141 -53 -153 -59 -318 -169 -403 -269 -722 -583 -857
-842 -72 -140 -229 -560 -398 -1070 -178 -535 -251 -803 -320 -1175 -41 -223
-151 -669 -169 -687 -13 -13 -268 213 -291 258 -18 35 -5 88 72 294 95 253 99
281 66 400 -13 49 -29 124 -33 165 -19 158 -53 211 -148 230 -119 23 -119 23
-52 -12 90 -47 104 -69 105 -170 l0 -82 -34 -7 c-32 -7 -54 -26 -45 -40 2 -4
15 -49 29 -100 16 -61 21 -95 14 -99 -5 -4 -17 -67 -24 -141 -18 -158 -33
-229 -49 -229 -6 0 -69 51 -139 113 -143 125 -394 402 -497 547 -71 101 -141
176 -168 184 -9 2 -34 7 -55 11 -20 3 -37 10 -37 15 0 13 -127 100 -208 142
-73 38 -73 38 -190 37 -154 -2 -205 -12 -104 -22 115 -11 192 -48 313 -149 45
-38 46 -41 41 -83 -6 -57 10 -82 86 -134 79 -54 152 -136 203 -229 66 -121
118 -192 189 -262 37 -36 90 -95 119 -132 28 -36 71 -78 95 -92 66 -38 98 -81
94 -125 -3 -31 -9 -39 -41 -55 -85 -41 -328 -86 -468 -86 -39 0 -114 9 -167
19 -174 35 -176 35 -229 10 -44 -21 -66 -24 -268 -29 l-220 -5 184 -33 c102
-18 192 -37 202 -42 9 -5 67 -27 129 -49 l111 -40 157 15 c180 17 233 23 502
60 116 15 216 24 247 21 72 -7 126 -40 166 -101 19 -28 86 -108 150 -178 l116
-126 -19 -100 c-50 -257 -65 -564 -35 -706 16 -74 68 -196 84 -196 16 0 23 58
17 143 -8 104 -12 112 134 -300 108 -304 129 -347 130 -268 1 24 2 27 10 13 6
-9 70 -193 144 -410 389 -1141 561 -1621 635 -1764 l57 -111 -58 -259 c-175
-784 -308 -1418 -359 -1714 -57 -326 -37 -635 73 -1082 20 -82 22 -87 57 -101
32 -13 44 -30 117 -168 76 -144 82 -159 88 -234 22 -248 50 -334 161 -481 83
-111 86 -118 158 -316 85 -233 123 -313 176 -371 29 -32 40 -54 45 -92 27
-182 85 -423 112 -460 26 -35 41 1 84 193 35 157 150 577 177 651 9 22 14 16
76 -77 37 -55 81 -112 98 -127 60 -50 60 -57 48 510 -5 281 -11 856 -12 1280
-2 682 0 785 15 903 24 177 55 325 83 392 234 557 306 837 322 1251 l6 172 56
90 c30 50 56 86 58 81 319 -1030 953 -2936 990 -2976 52 -58 131 45 184 239
18 65 20 93 15 168 -12 163 -48 439 -112 864 -19 128 -33 235 -31 237 5 6 234
-916 248 -997 18 -113 67 -162 128 -128 63 35 77 211 73 919 -3 715 6 832 84
1129 36 137 40 177 100 961 3 47 24 161 45 253 136 583 166 860 154 1433 l-7
330 45 115 c110 280 157 519 173 880 10 252 -20 491 -107 839 -27 107 -74 274
-106 370 l-58 175 2 560 c1 308 6 693 12 855 12 334 7 306 129 715 45 150 80
248 100 281 62 99 161 321 211 469 64 190 100 369 108 533 7 153 -4 248 -58
475 -21 93 -53 264 -69 380 -48 341 -70 416 -145 504 -56 66 -137 112 -330
189 -472 187 -672 241 -920 249 -77 2 -167 0 -200 -5z"/>
</g>
</svg>
