<?xml version="1.0" standalone="no"?>
<!DOCTYPE svg PUBLIC "-//W3C//DTD SVG 20010904//EN"
 "http://www.w3.org/TR/2001/REC-SVG-20010904/DTD/svg10.dtd">
<svg version="1.0" xmlns="http://www.w3.org/2000/svg"
 width="1306.000000pt" height="1536.000000pt" viewBox="0 0 1306.000000 1536.000000"
 preserveAspectRatio="xMidYMid meet">
<metadata>
Created by potrace 1.16, written by Peter Selinger 2001-2019
</metadata>
<g transform="translate(0.000000,1536.000000) scale(0.100000,-0.100000)"
fill="#000000" stroke="none">
<path d="M1370 15345 c-271 -45 -518 -169 -723 -364 l-92 -87 -145 -37 c-180
-46 -288 -96 -353 -166 -46 -49 -59 -81 -34 -81 70 0 632 -44 712 -55 269 -38
448 -110 562 -227 151 -157 214 -343 214 -638 0 -220 -15 -334 -111 -845 -90
-478 -96 -542 -81 -837 15 -307 12 -336 -99 -858 -51 -240 -50 -436 1 -748
101 -615 384 -1206 754 -1578 108 -108 166 -150 375 -269 74 -43 162 -96 195
-118 103 -70 242 -215 405 -422 225 -286 428 -475 527 -491 38 -6 44 -3 86 35
24 22 52 41 62 41 10 0 66 -31 124 -69 333 -217 767 -383 1203 -461 228 -41
343 -51 628 -57 l285 -6 107 -216 c102 -205 148 -318 163 -404 9 -44 57 -89
265 -247 69 -52 164 -133 211 -180 83 -82 86 -88 114 -175 36 -114 132 -304
219 -434 36 -55 135 -189 218 -298 177 -231 296 -403 360 -523 l45 -85 -10
-200 c-11 -212 0 -648 28 -1140 47 -824 42 -1259 -20 -1615 -52 -300 -159
-555 -284 -681 -131 -130 -286 -179 -771 -244 -307 -42 -497 -124 -603 -263
-20 -27 -37 -52 -37 -54 0 -3 147 -3 328 0 349 5 472 -3 603 -39 117 -32 178
-66 252 -141 l69 -68 75 16 c406 84 645 337 747 794 52 236 69 448 86 1128 6
221 17 491 25 600 8 108 23 343 35 522 39 632 69 951 120 1312 16 114 34 294
40 400 21 391 37 445 246 829 151 278 201 427 211 627 l6 123 26 -7 c14 -4
100 -8 191 -9 91 -1 180 -5 198 -9 92 -21 287 182 363 379 106 272 99 647 -19
1012 l-30 92 47 27 c25 15 114 73 196 129 207 140 290 177 424 191 86 8 125
-3 241 -70 243 -139 949 -287 1441 -303 l187 -6 6 39 c3 21 11 77 17 124 15
124 35 161 100 193 46 24 65 27 148 27 53 0 152 -7 221 -15 158 -19 215 -10
259 40 40 45 47 90 33 205 -14 114 -15 190 -3 223 6 16 35 36 95 65 219 105
260 252 135 492 -65 125 -163 246 -373 456 -290 290 -383 355 -834 588 -152
78 -390 211 -529 294 -396 239 -566 319 -809 383 -303 79 -496 137 -810 244
-544 186 -756 241 -1044 271 -141 15 -148 17 -240 64 -203 104 -355 134 -660
134 -491 0 -1096 -96 -1685 -265 -331 -96 -597 -188 -1276 -442 l-464 -174
-125 -95 c-627 -476 -1190 -717 -1565 -670 -322 41 -532 257 -635 656 -114
444 -117 1109 -9 2386 16 191 19 282 14 414 -16 393 -8 453 116 865 97 324
119 417 126 543 10 163 -26 280 -116 380 -70 78 -120 107 -224 129 -123 26
-362 33 -477 14z"/>
</g>
</svg>
