<?xml version="1.0" standalone="no"?>
<!DOCTYPE svg PUBLIC "-//W3C//DTD SVG 20010904//EN"
 "http://www.w3.org/TR/2001/REC-SVG-20010904/DTD/svg10.dtd">
<svg version="1.0" xmlns="http://www.w3.org/2000/svg"
 width="1536.000000pt" height="1215.000000pt" viewBox="0 0 1536.000000 1215.000000"
 preserveAspectRatio="xMidYMid meet">
<metadata>
Created by potrace 1.16, written by Peter Selinger 2001-2019
</metadata>
<g transform="translate(0.000000,1215.000000) scale(0.100000,-0.100000)"
fill="#000000" stroke="none">
<path d="M2477 12140 c-310 -28 -636 -115 -872 -233 -176 -87 -217 -116 -345
-246 -74 -74 -162 -152 -215 -188 -179 -123 -396 -316 -665 -589 -246 -251
-359 -406 -377 -519 -16 -96 84 -129 687 -230 151 -25 282 -48 290 -50 9 -3
32 -33 53 -68 20 -35 91 -146 157 -247 71 -108 160 -261 215 -371 l95 -188 0
-88 c0 -48 -5 -180 -11 -292 -17 -291 10 -669 71 -982 38 -199 192 -687 309
-981 145 -366 398 -880 538 -1093 215 -327 532 -716 741 -909 219 -203 545
-462 812 -645 534 -367 875 -586 1220 -784 219 -125 1048 -547 1076 -547 8 0
14 -4 14 -8 0 -10 -287 -63 -465 -87 -66 -9 -201 -29 -300 -45 -165 -27 -259
-38 -570 -70 -260 -27 -442 -100 -583 -234 -88 -84 -99 -105 -117 -231 -9 -61
-29 -168 -45 -240 -39 -178 -44 -222 -30 -275 20 -75 92 -170 215 -285 64 -59
128 -129 142 -154 15 -25 40 -66 57 -91 36 -54 14 -40 -54 34 -40 43 -49 48
-73 42 -39 -9 -52 -47 -39 -113 13 -65 45 -115 133 -208 85 -89 150 -134 256
-176 64 -26 92 -32 153 -32 l74 1 66 -60 c163 -151 316 -222 475 -221 163 1
177 36 48 119 -108 69 -204 152 -244 210 l-30 44 16 58 c9 31 36 118 60 192
24 74 48 154 55 178 l11 43 47 -27 c26 -16 90 -52 142 -81 52 -29 90 -53 84
-53 -6 0 -45 11 -85 25 -41 14 -85 29 -99 34 -14 4 -35 4 -48 0 -17 -7 -22
-16 -22 -46 0 -31 9 -48 46 -91 137 -157 390 -256 530 -208 l48 16 41 -30 c22
-17 69 -48 105 -69 36 -22 94 -65 130 -95 77 -67 196 -130 277 -146 127 -27
283 7 364 79 54 47 49 67 -18 76 -140 19 -219 36 -261 57 l-47 23 -11 91 c-12
103 -36 153 -102 218 l-41 39 39 51 c75 99 120 225 120 337 l0 67 -67 17 c-92
23 -239 31 -286 16 -34 -11 -38 -18 -57 -79 -31 -102 -38 -112 -79 -112 -99 0
-255 124 -342 270 -41 69 -44 80 -44 145 0 60 5 79 34 133 68 125 172 192 300
192 147 0 286 20 386 56 249 88 309 108 450 144 191 50 450 107 752 165 131
25 321 64 423 86 163 36 208 42 380 49 107 5 240 16 295 24 68 11 172 16 328
16 299 0 389 11 558 66 l137 44 138 -56 c77 -31 222 -87 324 -124 230 -84 261
-97 540 -227 565 -264 890 -388 1330 -507 219 -59 568 -145 652 -161 40 -7 83
-23 105 -38 45 -31 175 -145 504 -441 134 -121 366 -324 514 -451 149 -128
374 -323 500 -434 242 -212 335 -279 441 -318 81 -29 128 -29 184 0 35 18 51
36 85 96 23 40 62 94 87 120 75 76 81 100 49 194 -26 75 -86 174 -166 274 -84
104 -447 470 -674 678 -96 88 -262 252 -369 364 -322 339 -1082 1219 -1082
1252 0 4 8 5 19 2 44 -11 121 60 121 113 0 54 -176 280 -384 492 -133 136
-267 246 -456 377 -98 68 -108 78 -144 147 -60 110 -91 157 -320 478 -541 760
-817 1091 -1226 1474 -118 110 -359 342 -535 516 -383 376 -521 502 -890 810
-449 375 -467 391 -752 647 -441 396 -644 563 -944 775 -260 184 -695 468
-1019 665 -601 365 -606 371 -945 913 -234 375 -352 530 -579 756 -177 176
-324 303 -550 474 -179 135 -480 336 -561 374 -110 53 -318 93 -595 116 -170
15 -692 21 -813 10z m2977 -10077 c-9 -63 -55 -245 -89 -355 -31 -100 -7 -89
-235 -109 -122 -11 -395 -8 -407 4 -28 29 -30 227 -3 348 26 115 42 146 77
152 16 2 171 5 346 6 l318 1 -7 -47z m-389 -769 c-10 -54 -23 -84 -37 -84 -7
0 -38 12 -68 26 l-55 27 70 33 c92 43 99 43 90 -2z"/>
</g>
</svg>
