<?xml version="1.0" standalone="no"?>
<!DOCTYPE svg PUBLIC "-//W3C//DTD SVG 20010904//EN"
 "http://www.w3.org/TR/2001/REC-SVG-20010904/DTD/svg10.dtd">
<svg version="1.0" xmlns="http://www.w3.org/2000/svg"
 width="1363.000000pt" height="1536.000000pt" viewBox="0 0 1363.000000 1536.000000"
 preserveAspectRatio="xMidYMid meet">
<metadata>
Created by potrace 1.16, written by Peter Selinger 2001-2019
</metadata>
<g transform="translate(0.000000,1536.000000) scale(0.100000,-0.100000)"
fill="#000000" stroke="none">
<path d="M2820 15354 c-233 -29 -359 -61 -625 -159 -298 -111 -516 -186 -585
-202 -46 -10 -158 -17 -375 -23 -381 -9 -399 -13 -810 -142 -246 -77 -357
-139 -407 -226 l-18 -30 108 -6 c425 -27 689 -58 942 -111 137 -30 614 -149
650 -163 14 -6 62 -47 107 -91 45 -45 95 -86 112 -92 20 -7 33 -20 37 -35 3
-13 37 -51 75 -85 38 -34 69 -68 69 -76 0 -12 8 -14 33 -11 45 7 57 1 57 -31
0 -37 25 -69 61 -79 26 -6 34 -16 48 -57 12 -37 22 -51 38 -53 12 -2 29 -14
37 -28 9 -13 22 -24 30 -24 7 0 18 -11 24 -25 10 -23 23 -30 45 -26 4 0 7 -14
8 -31 0 -37 11 -70 22 -69 21 3 26 -2 32 -30 4 -16 20 -44 36 -60 16 -16 29
-39 29 -49 0 -13 7 -20 19 -20 11 0 28 -13 38 -30 9 -17 25 -32 34 -35 12 -4
19 -23 24 -70 3 -35 4 -69 1 -74 -3 -5 3 -11 14 -14 11 -3 29 -21 41 -41 11
-20 27 -36 34 -36 17 0 19 -6 50 -160 32 -156 50 -221 81 -282 21 -41 23 -54
15 -89 -7 -29 -5 -57 6 -99 14 -58 14 -61 -12 -126 -18 -44 -34 -122 -50 -233
-14 -91 -33 -191 -43 -222 -18 -49 -18 -59 -6 -88 21 -51 17 -90 -21 -181 -31
-77 -35 -94 -35 -181 0 -87 -3 -100 -26 -134 -29 -44 -47 -135 -91 -465 -25
-185 -27 -235 -28 -520 0 -255 3 -337 18 -430 16 -104 134 -619 156 -680 11
-30 440 -956 538 -1160 183 -379 366 -700 610 -1070 558 -842 917 -1270 1332
-1588 62 -48 157 -123 210 -167 307 -257 381 -307 696 -466 256 -129 380 -202
488 -288 101 -80 150 -139 287 -342 66 -97 159 -223 208 -280 142 -167 174
-221 191 -329 24 -148 -33 -321 -197 -591 -43 -72 -71 -131 -76 -158 -4 -28
-18 -57 -38 -80 -31 -36 -61 -95 -118 -234 -18 -43 -56 -112 -85 -155 -29 -42
-68 -112 -88 -154 -44 -96 -91 -156 -256 -331 -72 -76 -154 -171 -181 -212
-63 -94 -84 -101 -238 -86 -188 19 -293 42 -477 102 -220 72 -295 87 -369 70
-71 -16 -130 -67 -167 -145 -16 -33 -27 -61 -26 -63 2 -1 44 11 95 27 51 17
103 30 116 30 38 0 76 -37 76 -74 0 -70 41 -91 255 -126 185 -31 182 -30 159
-43 -10 -6 -75 -35 -143 -64 -115 -49 -130 -53 -204 -53 -52 0 -126 -10 -216
-31 -187 -42 -285 -49 -743 -56 l-397 -6 -59 -38 c-85 -55 -132 -135 -132
-221 l0 -39 61 43 c54 39 66 43 118 43 52 0 63 -4 112 -41 74 -56 89 -63 150
-69 39 -4 88 2 179 23 114 26 128 28 169 15 57 -17 180 -16 256 1 33 8 117 33
187 55 139 44 176 53 450 112 207 44 354 85 441 123 91 41 71 -5 -30 -68 -24
-14 -82 -66 -130 -114 -49 -48 -111 -100 -140 -115 -29 -15 -134 -55 -233 -88
-213 -70 -286 -104 -341 -161 -44 -46 -120 -194 -138 -270 -13 -54 -14 -167
-3 -185 5 -8 26 16 61 68 29 44 74 97 101 118 46 36 52 38 92 31 87 -17 158 7
285 96 51 36 126 80 166 98 147 68 693 452 766 539 8 10 28 17 50 17 58 0 138
28 176 61 46 41 77 109 121 264 36 129 85 245 104 245 15 0 36 -48 55 -128 9
-39 26 -84 37 -98 l20 -25 -21 -63 c-36 -108 -27 -125 48 -86 51 26 78 61 97
129 36 123 -18 353 -117 493 -11 14 -19 29 -19 32 0 4 37 6 82 4 74 -3 84 -5
94 -26 16 -32 12 -31 117 -42 478 -49 1085 -21 1397 66 23 7 24 6 10 -11 -8
-9 -42 -35 -75 -56 -33 -21 -70 -49 -82 -62 -23 -27 -127 -65 -268 -97 -128
-29 -235 -66 -287 -99 -25 -16 -68 -34 -97 -40 -29 -6 -65 -18 -80 -26 -102
-52 -172 -256 -123 -360 l18 -40 28 55 c15 30 41 69 57 86 l30 31 57 -13 c76
-18 164 -17 237 1 69 18 555 256 707 346 57 33 146 92 199 130 123 88 165 106
300 129 61 11 134 30 164 44 52 23 54 26 60 73 27 203 43 260 83 296 19 17 21
16 72 -22 49 -37 56 -39 104 -34 65 6 94 -14 131 -94 25 -52 28 -54 43 -39 23
23 22 134 -2 204 -13 40 -25 56 -49 69 -78 40 -156 126 -221 244 l-36 66 0
144 c0 299 31 709 81 1053 27 193 85 511 95 528 4 6 89 -14 159 -37 15 -5 17
-5 6 3 -12 9 -13 13 -1 27 11 13 25 15 76 10 40 -5 64 -3 68 4 5 7 39 -2 104
-25 193 -70 236 -84 266 -84 l31 1 -24 20 c-21 17 -22 22 -10 30 22 14 103 11
125 -6 25 -19 35 -19 28 0 -12 30 27 27 102 -9 76 -36 114 -45 114 -26 0 5 -9
14 -20 20 -11 6 -20 18 -20 26 0 20 41 12 81 -17 18 -12 44 -19 76 -19 27 0
81 -9 121 -20 85 -24 162 -27 162 -6 0 10 14 8 60 -11 34 -13 110 -31 173 -39
61 -8 141 -21 176 -28 l64 -14 -6 54 c-5 46 -3 54 11 54 9 0 26 -7 37 -15 13
-11 32 -13 65 -9 44 6 49 4 94 -35 62 -54 82 -64 116 -56 22 5 30 2 34 -12 4
-13 17 -19 48 -20 94 -5 101 -8 170 -76 36 -37 71 -67 76 -67 5 0 12 10 16 23
l6 22 14 -21 c9 -12 28 -24 43 -27 15 -3 36 -9 46 -12 12 -5 17 -2 17 10 0 14
6 16 29 12 21 -4 37 -1 53 13 l23 19 42 -42 c48 -46 72 -43 53 8 -13 34 -6 57
15 49 8 -4 17 0 21 9 5 13 11 13 47 -3 l42 -19 3 32 c4 40 18 55 34 39 19 -19
28 -14 28 18 0 34 6 37 32 13 23 -21 31 -13 19 21 -8 20 -7 26 2 26 16 0 37
-20 37 -36 0 -7 5 -25 11 -41 10 -27 11 -27 25 -9 8 11 14 38 14 60 0 52 12
70 39 63 27 -7 34 6 41 68 5 46 7 50 28 47 22 -3 23 -1 17 27 -4 20 -3 31 5
31 18 0 68 -29 73 -42 2 -7 8 -10 12 -6 4 4 3 21 -3 37 -10 28 -8 33 21 57 29
24 31 25 38 8 4 -11 8 -31 8 -45 1 -16 12 -33 29 -46 l28 -21 28 25 c16 13 41
26 57 30 26 5 28 9 31 57 3 48 5 52 41 70 l38 18 -7 67 c-5 55 -3 69 10 80 25
21 20 135 -19 464 -65 544 -155 1129 -210 1368 -77 335 -334 1060 -509 1438
-229 492 -501 879 -841 1193 -202 186 -397 338 -805 629 -208 148 -259 180
-335 208 -49 19 -209 91 -355 161 -293 142 -408 189 -675 278 -187 63 -318 98
-465 127 -141 27 -265 64 -341 100 -40 19 -96 37 -127 40 -97 12 -141 24 -251
71 -77 33 -128 48 -186 55 -44 5 -174 36 -290 70 -306 88 -749 196 -910 220
-94 14 -182 36 -269 65 -98 33 -171 50 -305 69 -144 21 -205 36 -338 80 -183
62 -270 85 -327 85 -28 0 -54 10 -93 36 -77 51 -169 91 -398 174 -227 82 -239
87 -390 178 -121 73 -225 167 -245 222 -8 23 -26 44 -53 60 -62 38 -214 194
-293 300 -138 185 -254 356 -293 430 -46 88 -113 292 -142 434 -18 86 -20 117
-13 211 15 197 12 265 -13 312 l-22 42 35 -6 34 -6 0 62 c0 34 7 78 15 98 23
54 18 136 -16 273 -17 69 -32 157 -33 195 -1 57 -8 82 -33 131 -18 34 -49 102
-69 150 -116 282 -216 412 -448 578 -139 100 -277 135 -551 141 -99 2 -196 1
-215 -1z m6640 -11046 c41 -22 76 -41 78 -43 3 -3 -60 -423 -124 -825 -42
-265 -93 -520 -136 -680 -36 -138 -111 -357 -144 -423 l-24 -47 -41 20 c-22
12 -77 30 -122 41 -45 11 -163 46 -262 79 -240 77 -275 84 -445 85 -142 0
-146 -1 -193 -29 -59 -35 -117 -88 -117 -108 0 -8 6 -22 13 -32 12 -16 16 -16
57 -3 71 23 94 27 109 17 12 -7 12 -11 2 -24 -11 -13 -11 -22 -1 -45 10 -25
24 -33 98 -56 165 -52 352 -95 465 -106 144 -15 141 -14 126 -40 -10 -19 -17
-21 -59 -15 -34 5 -70 1 -122 -14 -273 -74 -542 -86 -1133 -49 -187 12 -342
23 -344 25 -7 6 82 160 164 284 99 149 177 247 314 393 55 59 113 129 128 155
15 26 40 63 57 82 16 19 50 78 74 130 l45 95 -15 57 c-14 54 -14 58 4 64 25 7
23 22 -14 117 -33 84 -41 148 -22 167 8 8 22 -6 50 -47 34 -50 39 -55 42 -35
2 13 -7 40 -21 60 -55 84 -41 109 25 45 46 -45 47 -33 8 67 -17 41 -30 81 -30
88 0 25 25 6 58 -42 48 -72 41 -26 -13 76 -49 94 -69 178 -43 178 9 0 23 -10
32 -22 17 -23 17 -22 12 16 -3 23 -18 55 -37 78 -30 38 -30 40 -13 53 30 23
54 17 72 -16 23 -43 53 -81 59 -75 6 6 -33 81 -69 134 -32 47 -32 60 1 42 43
-22 19 8 -29 38 -48 30 -64 52 -37 52 6 0 57 -9 112 -20 55 -12 143 -23 195
-27 94 -6 95 -6 78 14 -40 44 -13 44 88 -2 79 -36 104 -42 104 -25 0 6 9 10
19 10 11 0 23 -4 26 -10 3 -5 16 -10 28 -10 30 0 11 17 -55 49 -29 14 -53 31
-55 36 -5 17 81 47 113 39 36 -9 101 -41 133 -65 19 -15 34 -17 82 -12 36 3
76 1 104 -7 35 -10 49 -10 58 -1 15 15 60 14 76 -1 11 -10 14 -10 18 0 7 17
21 15 50 -8 14 -11 35 -20 47 -19 21 0 21 0 -1 16 -13 8 -23 24 -23 34 0 18 2
18 37 4 44 -19 54 -12 22 14 l-24 20 83 1 c82 0 89 3 73 30 -28 42 24 34 129
-22z"/>
</g>
</svg>
