<?xml version="1.0" standalone="no"?>
<!DOCTYPE svg PUBLIC "-//W3C//DTD SVG 20010904//EN"
 "http://www.w3.org/TR/2001/REC-SVG-20010904/DTD/svg10.dtd">
<svg version="1.0" xmlns="http://www.w3.org/2000/svg"
 width="1536.000000pt" height="287.000000pt" viewBox="0 0 1536.000000 287.000000"
 preserveAspectRatio="xMidYMid meet">
<metadata>
Created by potrace 1.16, written by Peter Selinger 2001-2019
</metadata>
<g transform="translate(0.000000,287.000000) scale(0.100000,-0.100000)"
fill="#000000" stroke="none">
<path d="M5438 2831 c-25 -23 -49 -41 -53 -41 -4 0 -23 14 -42 30 -46 40 -107
42 -153 4 l-31 -26 -47 17 c-55 22 -134 21 -169 -2 -20 -13 -42 -15 -133 -9
l-108 6 -32 -40 c-29 -37 -33 -39 -53 -26 -58 36 -140 20 -186 -35 -26 -30
-27 -30 -73 -19 -59 15 -88 8 -132 -30 -37 -33 -52 -36 -142 -25 -59 7 -62 6
-118 -30 -55 -37 -58 -38 -110 -29 -60 11 -83 1 -147 -68 -32 -34 -38 -36 -78
-31 -33 5 -48 1 -71 -16 -40 -29 -68 -27 -83 7 -6 15 -16 30 -22 34 -22 16
-64 7 -100 -22 -44 -35 -60 -37 -75 -10 -12 22 -60 50 -87 50 -10 0 -34 -10
-53 -22 -19 -12 -45 -22 -57 -22 -12 -1 -33 -12 -47 -25 -27 -26 -52 -23 -81
9 -19 21 -51 25 -118 14 -29 -5 -41 -14 -54 -38 -8 -17 -27 -43 -41 -58 -20
-22 -29 -25 -44 -17 -11 6 -32 7 -48 4 -21 -5 -41 1 -73 20 l-45 26 -31 -40
c-22 -28 -41 -41 -68 -46 -46 -8 -157 -42 -199 -60 -24 -10 -47 -11 -105 -2
-69 10 -80 8 -154 -16 -118 -39 -171 -46 -230 -30 -128 33 -177 10 -263 -124
-44 -68 -143 -165 -203 -199 -31 -17 -112 -50 -180 -72 -111 -37 -175 -51
-414 -97 -38 -7 -88 -22 -110 -31 -57 -26 -234 -27 -262 -1 -40 35 -110 14
-203 -63 -106 -87 -124 -122 -90 -170 11 -16 29 -32 40 -35 11 -4 20 -15 20
-25 0 -30 64 -74 173 -118 87 -35 117 -42 202 -47 55 -4 159 -13 230 -22 157
-18 476 -18 753 2 166 11 199 11 240 -2 61 -18 291 -71 364 -83 32 -5 97 -25
145 -45 49 -21 122 -43 163 -51 93 -17 419 -21 449 -5 11 6 71 31 133 54 133
50 248 112 248 133 0 12 10 15 40 13 22 -2 45 2 50 7 8 8 35 7 93 -3 45 -8 99
-17 119 -20 35 -5 39 -10 58 -60 11 -29 20 -59 20 -66 0 -7 11 -30 25 -52 32
-53 31 -68 -8 -112 -104 -118 -213 -283 -272 -413 -34 -74 -68 -152 -76 -173
-8 -24 -27 -46 -54 -63 -22 -15 -50 -35 -61 -46 -17 -15 -50 -22 -158 -33
-130 -13 -140 -16 -191 -50 -71 -47 -79 -60 -31 -52 33 5 37 4 31 -11 -24 -56
-14 -79 18 -42 18 21 42 26 52 10 5 -8 150 -6 292 5 l52 3 -6 -29 -6 -30 39
17 c21 9 66 20 99 24 33 4 75 15 93 24 41 22 64 18 165 -25 103 -44 115 -32
48 47 -58 67 -62 89 -28 149 17 29 52 60 134 115 98 65 125 90 208 190 80 97
100 128 126 200 28 75 33 103 41 245 5 88 11 162 13 164 2 2 25 -4 51 -13 26
-9 74 -16 105 -16 l58 0 127 -187 c171 -252 203 -341 149 -408 l-25 -30 -134
-5 c-129 -5 -136 -6 -177 -35 -46 -32 -66 -64 -33 -51 11 5 36 10 57 13 35 5
37 4 37 -21 0 -20 5 -26 23 -25 12 1 52 -6 88 -14 60 -13 74 -13 134 1 69 17
74 15 88 -23 2 -5 14 1 25 15 18 21 23 23 32 10 17 -26 39 0 86 105 25 55 49
104 53 108 4 4 32 -4 62 -18 30 -13 60 -25 67 -25 22 0 4 57 -33 109 -18 25
-50 80 -71 121 -34 68 -38 84 -42 171 l-4 97 73 -18 c41 -10 171 -41 289 -70
l215 -52 208 -5 c232 -6 366 6 432 40 22 11 71 26 110 34 38 8 80 21 92 29 12
8 24 14 26 14 3 0 7 -26 11 -58 4 -32 24 -108 45 -169 l39 -112 -67 -20 c-131
-39 -466 -103 -587 -111 -126 -9 -208 -33 -274 -80 -33 -23 -43 -58 -12 -44 9
4 36 9 60 12 35 3 45 0 61 -19 10 -13 16 -29 14 -36 -7 -17 9 -16 51 1 28 12
47 12 127 -1 52 -8 115 -11 141 -8 45 5 48 4 54 -20 7 -29 8 -29 37 -12 14 7
86 15 192 19 94 3 243 11 332 16 157 9 163 10 242 47 l81 38 34 111 c19 61 37
146 40 189 9 106 -10 276 -41 365 -14 40 -23 75 -21 78 7 7 335 43 459 51 l96
6 124 -154 c68 -85 161 -193 206 -240 75 -78 97 -93 226 -162 79 -42 152 -85
162 -97 18 -20 18 -21 -2 -35 -12 -8 -51 -51 -88 -95 -95 -114 -148 -140 -305
-150 -94 -6 -127 -12 -180 -35 -36 -16 -72 -34 -80 -42 -12 -11 -9 -13 20 -13
61 0 65 -14 15 -45 -62 -40 -60 -55 7 -43 35 7 77 6 126 -1 40 -6 93 -11 117
-11 31 0 47 -5 53 -17 8 -13 19 -15 68 -9 33 4 106 11 164 16 116 9 189 33
347 115 173 88 223 125 259 190 40 72 74 193 74 263 0 42 -9 70 -44 140 -24
48 -58 101 -76 117 -34 32 -65 83 -56 92 3 3 99 -27 213 -66 340 -119 476
-157 723 -206 129 -25 312 -66 405 -91 663 -178 784 -201 1205 -224 96 -5 249
-15 340 -21 137 -10 202 -9 385 4 121 9 312 19 425 22 120 4 311 18 460 35
140 16 371 36 514 45 142 9 329 24 415 35 643 79 864 99 1176 105 324 7 370
12 498 52 61 19 77 28 73 40 -3 8 -6 19 -6 24 0 5 -11 9 -24 9 -14 0 -31 9
-39 21 -14 19 -16 19 -52 5 -38 -16 -38 -16 -102 25 -59 37 -67 39 -96 29 -28
-9 -34 -8 -45 9 -12 18 -16 18 -65 5 -29 -8 -53 -14 -54 -14 -2 0 -3 12 -3 26
l0 27 -70 -6 c-65 -5 -70 -4 -70 14 0 17 -7 19 -65 19 -61 0 -66 2 -75 25 -8
22 -16 25 -55 25 -25 0 -54 -5 -65 -12 -17 -11 -24 -8 -49 16 -28 27 -34 28
-87 23 -53 -5 -59 -4 -95 25 -35 28 -41 30 -78 21 -36 -10 -42 -8 -73 18 -36
31 -80 37 -123 17 -22 -10 -29 -8 -55 17 -23 22 -41 29 -85 33 -48 4 -59 1
-80 -18 -23 -22 -23 -22 -34 -2 -6 12 -11 28 -11 36 0 21 -80 22 -119 2 -27
-14 -29 -14 -61 20 -29 28 -41 34 -77 34 -24 0 -57 -7 -73 -15 -27 -14 -30
-14 -49 11 -12 15 -21 33 -21 40 0 17 -3 17 -75 -1 l-58 -16 -36 35 c-51 48
-71 51 -135 21 -64 -30 -89 -27 -106 15 -9 23 -19 30 -39 30 -30 0 -105 -32
-115 -49 -12 -19 -43 6 -56 45 -11 33 -15 36 -42 30 -17 -3 -57 -20 -90 -36
l-59 -30 -16 39 c-24 62 -97 73 -168 27 -34 -22 -50 -20 -63 9 -9 20 -19 25
-49 25 -21 0 -58 -10 -83 -21 -50 -24 -204 -39 -375 -38 -80 1 -107 5 -140 21
-48 25 -136 25 -197 1 -38 -15 -40 -15 -55 7 -14 20 -22 22 -102 19 -66 -2
-93 1 -118 14 -25 13 -47 15 -112 10 l-82 -6 -33 32 c-30 29 -39 32 -97 32
-48 1 -70 6 -93 22 -22 15 -48 21 -110 25 -71 3 -84 7 -102 28 -27 33 -121 58
-184 49 -41 -6 -47 -4 -59 18 -24 44 -66 60 -141 53 l-68 -6 -19 39 c-16 35
-22 39 -66 45 -28 4 -63 2 -83 -4 -52 -18 -75 -10 -88 30 l-11 35 -65 0 c-82
0 -106 9 -125 46 -14 25 -21 29 -58 29 -23 0 -59 -4 -79 -9 -31 -7 -40 -5 -58
14 -19 20 -29 22 -120 21 l-99 -1 -20 36 c-36 63 -54 73 -105 60 -25 -6 -65
-11 -89 -11 -40 0 -46 3 -57 30 -15 37 -56 60 -106 60 -30 0 -48 10 -99 54
-67 60 -97 72 -135 58 -20 -8 -30 -6 -50 13 -33 29 -147 68 -168 56 -12 -7
-34 6 -87 54 -68 61 -73 63 -112 58 -34 -4 -47 -1 -76 21 -21 16 -47 26 -68
26 -19 0 -52 11 -74 25 -28 17 -55 24 -89 25 -34 0 -68 10 -112 31 -53 26 -72
31 -110 26 -55 -6 -93 3 -201 49 -65 28 -89 33 -121 28 -42 -7 -101 17 -155
62 -25 21 -38 24 -116 23 -78 -1 -92 1 -129 25 -37 23 -52 26 -130 26 -61 0
-94 4 -108 14 -14 11 -36 13 -81 9 -53 -5 -65 -3 -93 17 -28 20 -39 22 -98 16
-58 -5 -73 -2 -111 18 -43 22 -47 23 -89 8 -42 -14 -47 -14 -107 11 l-63 26
-76 -27 c-63 -22 -79 -25 -93 -14 -42 29 -67 34 -118 23 -27 -7 -57 -19 -68
-28 -12 -12 -22 -14 -31 -8 -50 37 -65 45 -101 50 -37 6 -44 3 -87 -34z"/>
</g>
</svg>
