<?xml version="1.0" standalone="no"?>
<!DOCTYPE svg PUBLIC "-//W3C//DTD SVG 20010904//EN"
 "http://www.w3.org/TR/2001/REC-SVG-20010904/DTD/svg10.dtd">
<svg version="1.0" xmlns="http://www.w3.org/2000/svg"
 width="1672.000000pt" height="1425.000000pt" viewBox="0 0 1672.000000 1425.000000"
 preserveAspectRatio="xMidYMid meet">
<metadata>
Created by potrace 1.16, written by Peter Selinger 2001-2019
</metadata>
<g transform="translate(0.000000,1425.000000) scale(0.100000,-0.100000)"
fill="#000000" stroke="none">
<path d="M12608 14205 c-6 -6 -116 -22 -236 -35 -46 -5 -99 -17 -120 -28 -20
-10 -62 -25 -92 -32 -30 -7 -67 -19 -81 -26 -15 -7 -62 -23 -104 -34 -43 -12
-97 -29 -119 -39 -23 -10 -57 -24 -76 -31 -19 -8 -54 -31 -77 -52 -24 -21 -49
-38 -57 -38 -9 0 -64 -44 -124 -97 -143 -128 -302 -260 -362 -300 -49 -33
-150 -145 -150 -168 0 -7 -6 -18 -14 -24 -8 -7 -17 -24 -21 -39 -4 -15 -12
-34 -20 -42 -7 -8 -16 -26 -20 -40 -4 -14 -13 -32 -20 -40 -33 -37 -124 -232
-140 -300 -10 -41 -27 -94 -37 -116 -14 -30 -17 -53 -12 -83 4 -24 2 -46 -4
-54 -6 -7 -10 -38 -9 -68 2 -43 -3 -60 -20 -83 -13 -16 -23 -38 -23 -50 0 -11
-9 -34 -20 -51 -11 -16 -20 -39 -20 -49 0 -11 -8 -28 -17 -39 -12 -13 -20 -44
-25 -96 -10 -113 -24 -186 -42 -212 -13 -21 -14 -39 -6 -119 6 -52 14 -115 20
-140 6 -25 12 -110 14 -190 3 -126 6 -150 25 -185 17 -31 21 -57 22 -130 0
-49 5 -115 10 -145 10 -57 32 -404 30 -475 -1 -45 25 -142 44 -165 8 -8 17
-33 21 -54 4 -22 21 -55 39 -75 41 -46 65 -93 65 -126 0 -15 7 -43 16 -62 14
-28 15 -41 5 -73 -6 -22 -9 -52 -5 -67 9 -36 51 -120 64 -128 5 -3 10 -24 10
-46 0 -22 5 -49 10 -60 6 -10 13 -48 15 -83 4 -58 2 -65 -23 -88 -45 -41 -101
-68 -166 -79 -33 -6 -198 -14 -366 -19 -168 -5 -343 -13 -390 -19 -272 -29
-378 -43 -405 -51 -16 -5 -77 -12 -135 -15 -58 -4 -127 -11 -155 -16 -27 -5
-113 -16 -190 -24 -77 -8 -153 -19 -170 -25 -16 -5 -86 -16 -155 -25 -195 -24
-263 -35 -285 -45 -11 -5 -36 -12 -55 -16 -19 -3 -39 -10 -45 -14 -5 -4 -39
-19 -75 -33 -62 -24 -144 -35 -295 -41 -123 -4 -236 -37 -441 -125 -160 -69
-226 -102 -310 -155 -39 -25 -109 -65 -155 -89 -117 -61 -139 -74 -229 -138
-44 -32 -110 -74 -147 -95 -128 -71 -242 -156 -378 -282 -75 -70 -161 -140
-190 -157 -30 -16 -76 -48 -102 -70 -51 -43 -129 -95 -142 -95 -4 0 -28 -16
-52 -35 -24 -20 -62 -44 -84 -55 -73 -36 -233 -162 -375 -295 -41 -39 -95 -84
-120 -100 -25 -15 -74 -56 -110 -90 -36 -34 -94 -81 -130 -105 -36 -23 -82
-58 -103 -76 -20 -19 -41 -34 -47 -34 -5 0 -38 -26 -72 -58 -60 -56 -308 -244
-433 -329 -33 -23 -73 -55 -90 -73 -16 -17 -59 -52 -95 -78 -72 -51 -238 -182
-285 -225 -30 -28 -81 -62 -165 -110 -49 -28 -191 -133 -405 -300 -193 -151
-243 -186 -378 -261 -65 -36 -120 -66 -122 -66 -3 0 -33 -13 -67 -29 -88 -41
-169 -71 -194 -71 -20 0 -147 -40 -189 -59 -104 -48 -136 -61 -153 -61 -10 0
-39 -10 -63 -23 -24 -13 -104 -43 -177 -66 -72 -23 -157 -53 -187 -67 -31 -13
-70 -24 -88 -24 -18 0 -45 -8 -62 -18 -16 -10 -61 -27 -100 -39 -135 -41 -210
-62 -245 -68 -19 -4 -50 -16 -68 -26 -18 -10 -48 -19 -67 -19 -20 0 -80 -22
-147 -54 -175 -83 -250 -114 -284 -120 -36 -6 -170 -68 -259 -121 -33 -19 -70
-39 -82 -45 -11 -5 -24 -14 -28 -21 -4 -6 -26 -20 -49 -30 -23 -10 -51 -28
-61 -39 -11 -12 -41 -31 -67 -42 -28 -12 -58 -34 -70 -52 -12 -17 -37 -48 -55
-69 -35 -39 -44 -84 -18 -93 17 -7 199 20 310 46 158 37 281 63 340 71 33 4
105 17 159 28 55 12 113 21 129 21 17 0 44 4 61 9 45 14 313 51 364 51 56 0
149 -27 155 -44 7 -18 -20 -56 -38 -56 -8 0 -20 -9 -27 -20 -7 -11 -18 -20
-24 -20 -14 0 -123 -87 -194 -154 -30 -29 -75 -68 -100 -86 -25 -18 -58 -46
-75 -62 -33 -32 -154 -121 -224 -165 -138 -87 -419 -330 -421 -364 0 -3 11
-11 25 -17 22 -10 32 -5 112 55 48 37 114 80 146 95 61 30 152 93 176 121 7 9
39 31 70 49 31 17 85 55 121 83 36 29 90 70 120 91 30 21 74 55 96 75 23 21
57 45 75 55 19 9 49 28 67 42 42 32 115 39 229 22 65 -9 94 -9 133 0 41 10 60
10 96 0 24 -7 44 -18 44 -25 0 -18 -64 -72 -103 -88 -18 -8 -48 -33 -67 -56
-86 -102 -108 -129 -149 -184 l-43 -57 -61 0 c-53 0 -74 -7 -183 -60 -68 -33
-130 -60 -137 -60 -19 0 -66 -54 -89 -100 -10 -19 -31 -75 -49 -124 -29 -83
-31 -96 -25 -175 3 -47 11 -104 17 -126 14 -50 76 -182 89 -190 21 -13 9 -44
-27 -71 -21 -15 -60 -50 -88 -78 -97 -99 -149 -136 -192 -136 -64 0 -104 19
-165 78 -70 68 -88 116 -88 239 0 49 4 93 8 98 5 6 16 31 26 57 12 34 40 69
106 132 50 48 90 91 90 96 0 6 -19 10 -42 10 -60 0 -227 -85 -292 -148 -71
-69 -98 -135 -104 -253 -3 -70 0 -111 12 -152 9 -30 16 -71 16 -91 0 -20 9
-54 20 -76 11 -22 20 -49 20 -61 0 -12 19 -49 41 -82 32 -46 39 -64 32 -76 -6
-9 -43 -44 -84 -79 -160 -135 -233 -199 -295 -256 -63 -58 -64 -60 -64 -110 0
-35 7 -59 20 -76 17 -23 26 -25 97 -25 78 0 78 0 88 -30 5 -16 15 -37 20 -45
6 -8 17 -35 25 -59 21 -61 43 -74 95 -55 22 8 80 17 128 21 l88 6 33 -36 c32
-35 37 -37 99 -37 81 0 114 -12 119 -42 3 -20 9 -23 60 -26 43 -2 71 3 117 23
72 30 67 30 74 5 4 -17 14 -20 65 -20 33 0 78 6 100 14 76 27 215 22 293 -11
25 -10 57 -13 105 -10 69 4 221 32 259 48 11 5 49 16 84 24 36 9 82 25 104 36
24 13 48 18 65 14 18 -4 44 3 78 19 37 18 61 23 90 19 45 -5 147 36 167 68 19
32 107 94 198 140 46 23 98 54 115 68 42 35 89 61 149 82 62 23 84 23 92 4 9
-25 78 -55 125 -55 25 0 54 -7 68 -17 26 -19 78 -23 437 -41 99 -4 156 -11
165 -19 6 -7 31 -13 54 -13 55 0 94 -15 94 -36 0 -15 12 -16 124 -10 68 3 143
13 166 21 59 21 60 20 60 -25 l0 -40 58 6 c31 4 83 17 114 30 81 32 160 41
177 20 13 -16 72 -22 85 -9 17 18 127 43 188 43 61 0 69 3 107 34 23 19 49 37
59 40 21 6 126 24 208 35 63 9 130 38 176 76 37 31 107 52 200 60 43 3 92 12
110 19 44 19 354 25 384 8 14 -7 32 -8 55 -2 19 5 88 14 154 20 66 6 145 17
175 25 30 7 96 16 147 19 89 6 93 6 108 -17 8 -13 20 -48 25 -78 5 -30 16 -92
25 -139 8 -47 15 -107 15 -135 0 -27 7 -67 15 -90 9 -26 17 -109 23 -236 7
-167 11 -201 27 -225 63 -96 71 -161 29 -250 -24 -51 -25 -59 -19 -161 10
-149 31 -177 104 -136 29 17 31 17 86 -10 48 -23 68 -27 144 -27 86 0 91 -1
142 -36 35 -24 119 -59 234 -99 168 -58 189 -63 320 -74 176 -15 203 -19 211
-32 12 -20 -7 -59 -51 -109 -63 -71 -60 -108 10 -109 22 0 64 -3 93 -7 66 -8
89 6 132 80 38 68 44 72 76 51 27 -17 74 -106 74 -140 0 -11 9 -38 19 -61 14
-31 28 -45 60 -57 23 -10 50 -17 60 -17 10 0 31 -7 47 -15 36 -17 61 -19 184
-10 84 6 101 5 148 -14 29 -12 71 -21 93 -21 22 0 75 -9 117 -19 64 -17 128
-21 377 -26 165 -4 316 -11 335 -15 19 -5 179 -10 355 -12 l320 -3 110 37
c217 73 222 74 248 51 38 -35 63 -43 137 -43 40 0 86 -6 106 -15 43 -18 54
-13 54 24 0 19 -13 40 -42 69 -24 23 -66 65 -94 92 -33 33 -70 58 -105 71 -30
11 -71 32 -91 46 -33 22 -38 31 -38 64 0 29 8 47 29 71 28 32 32 33 97 30 l67
-3 -7 42 c-4 23 -11 49 -16 58 -11 21 -128 81 -157 81 -12 0 -32 4 -46 9 -31
12 -131 -11 -188 -44 -31 -17 -59 -25 -94 -25 -28 0 -66 -5 -85 -10 -19 -6
-132 -15 -251 -22 -198 -11 -220 -10 -265 6 -76 27 -195 56 -314 76 -96 16
-149 35 -178 63 -16 16 -50 32 -80 39 -60 15 -66 31 -24 70 38 35 112 84 142
93 14 4 31 12 37 17 7 6 53 12 102 13 95 3 111 8 111 31 0 21 -85 110 -140
147 -25 16 -59 43 -76 59 -36 34 -82 49 -169 55 -55 4 -69 1 -147 -36 -48 -23
-90 -41 -93 -41 -4 0 -20 -11 -36 -24 -18 -15 -47 -26 -81 -31 -29 -3 -70 -13
-90 -22 -49 -21 -63 -9 -84 66 -8 31 -26 88 -39 126 -13 39 -35 114 -50 168
-14 55 -32 115 -41 135 -19 46 -31 148 -45 372 -10 174 -35 309 -64 354 -8 11
-17 40 -21 64 -7 47 13 82 48 82 27 0 58 36 58 69 0 17 18 55 45 95 25 37 45
74 45 82 0 19 37 93 59 118 20 23 76 51 118 61 18 3 74 32 125 62 51 31 118
65 148 75 30 11 62 26 70 33 18 17 160 85 176 85 6 0 19 10 30 21 10 12 46 34
79 50 59 28 96 48 206 115 31 19 60 34 63 34 4 0 39 25 79 55 39 31 95 67 122
81 60 30 195 112 249 151 21 15 58 42 82 58 235 161 367 260 465 348 63 57
145 120 180 140 80 44 301 243 577 518 214 212 352 365 512 564 30 38 71 87
91 109 19 23 46 57 59 76 90 130 300 381 455 540 88 91 192 203 230 249 39 45
117 135 174 199 91 102 184 217 231 286 8 11 35 44 60 71 60 67 161 198 182
238 93 169 129 240 144 287 9 30 25 67 35 81 34 49 92 173 130 280 63 178 86
299 93 499 4 96 12 193 17 215 12 46 6 338 -9 450 -5 39 -23 104 -41 145 -18
41 -37 89 -43 105 -6 17 -15 34 -19 40 -5 5 -9 21 -9 35 0 15 -8 51 -18 81
-11 30 -25 79 -32 109 -7 30 -41 113 -76 183 -35 71 -64 134 -64 140 0 7 -29
60 -65 117 -36 58 -77 130 -92 160 -14 30 -34 67 -44 82 -11 14 -19 33 -19 42
0 29 -401 457 -481 514 -21 15 -71 54 -111 87 -40 33 -92 73 -116 89 -25 17
-45 39 -48 55 -3 14 -8 35 -11 45 -3 11 -34 47 -69 80 -60 58 -64 64 -64 106
0 25 4 50 8 56 12 19 110 64 139 64 15 0 48 14 73 30 25 17 63 35 85 41 22 5
81 25 130 44 113 43 193 65 270 75 58 8 79 13 120 30 11 5 40 11 65 13 25 3
111 12 192 21 145 17 147 17 187 -3 22 -12 45 -21 50 -21 5 0 48 -18 95 -40
47 -22 90 -40 95 -40 6 0 35 -12 64 -26 28 -14 75 -32 102 -39 28 -7 82 -26
120 -42 39 -17 87 -33 108 -36 21 -3 57 -15 80 -26 46 -22 203 -78 255 -91 19
-5 41 -15 50 -23 9 -8 40 -22 67 -32 28 -10 61 -26 75 -35 14 -9 70 -41 125
-70 55 -29 119 -66 142 -81 23 -16 48 -29 56 -29 8 0 43 -14 78 -31 148 -73
254 -103 404 -114 44 -3 98 -11 120 -17 22 -6 119 -14 215 -18 96 -5 191 -11
211 -15 32 -6 39 -3 58 20 17 23 21 41 21 101 0 66 -3 78 -32 121 -49 72 -138
156 -214 202 -38 23 -101 63 -141 89 -40 26 -93 61 -118 77 -26 17 -89 58
-142 93 -53 34 -100 62 -106 62 -15 0 -100 56 -181 117 -37 29 -82 60 -100 68
-33 17 -102 64 -191 133 -145 112 -512 477 -561 558 -12 20 -33 47 -46 62 -14
15 -48 58 -77 95 -43 58 -51 75 -51 111 0 28 -11 68 -30 108 -21 45 -34 92
-40 152 -6 49 -19 104 -30 124 -10 21 -33 72 -51 114 -17 43 -38 83 -46 90 -8
7 -26 35 -39 63 -32 66 -78 149 -104 184 -11 16 -23 38 -28 50 -14 38 -230
266 -343 362 -57 48 -140 83 -220 94 -26 3 -66 19 -90 35 -24 15 -64 33 -89
40 -25 6 -63 17 -85 25 -103 34 -195 55 -250 54 -33 0 -111 11 -174 25 -99 23
-138 26 -291 26 -97 0 -179 -2 -182 -5z m-11063 -10524 c11 -10 34 -25 50 -32
l30 -14 3 -134 c3 -131 2 -135 -24 -173 -78 -112 -143 -135 -207 -73 -62 60
-71 87 -75 219 l-4 118 43 45 c72 74 134 89 184 44z m6725 -1050 c5 -11 10
-64 10 -118 0 -110 21 -267 40 -303 7 -13 20 -55 30 -94 10 -39 27 -98 38
-131 11 -33 22 -80 26 -104 4 -24 14 -57 23 -75 20 -38 53 -161 53 -199 0 -54
-111 -130 -302 -208 -66 -28 -150 -65 -187 -83 -112 -56 -278 -85 -309 -54
-15 15 -16 60 -1 75 20 20 -1 110 -47 211 -8 18 -31 83 -51 145 -19 61 -57
178 -84 258 -27 81 -49 156 -49 167 0 11 -8 40 -18 64 -11 24 -22 66 -25 93
-3 28 -14 74 -23 103 -23 72 -13 88 49 84 39 -3 49 0 68 22 12 14 32 26 44 26
11 0 26 5 32 11 9 9 97 22 295 43 15 1 45 10 65 18 58 24 120 36 135 27 22
-14 51 -10 98 16 56 29 76 31 90 6z"/>
</g>
</svg>
