<?xml version="1.0" standalone="no"?>
<!DOCTYPE svg PUBLIC "-//W3C//DTD SVG 20010904//EN"
 "http://www.w3.org/TR/2001/REC-SVG-20010904/DTD/svg10.dtd">
<svg version="1.0" xmlns="http://www.w3.org/2000/svg"
 width="1475.000000pt" height="1536.000000pt" viewBox="0 0 1475.000000 1536.000000"
 preserveAspectRatio="xMidYMid meet">
<metadata>
Created by potrace 1.16, written by Peter Selinger 2001-2019
</metadata>
<g transform="translate(0.000000,1536.000000) scale(0.100000,-0.100000)"
fill="#000000" stroke="none">
<path d="M1870 15345 c-135 -29 -270 -90 -398 -181 -126 -91 -323 -296 -422
-440 -32 -48 -39 -53 -110 -73 -41 -12 -210 -76 -375 -141 -279 -110 -306
-119 -390 -126 -83 -6 -92 -9 -121 -38 -36 -36 -54 -89 -54 -157 l0 -47 118
-6 c176 -10 317 -24 527 -53 l190 -26 192 -95 c149 -73 215 -113 295 -175 144
-112 216 -157 347 -216 163 -73 253 -132 357 -235 134 -134 205 -235 237 -337
80 -253 145 -923 148 -1519 1 -202 -11 -289 -76 -545 -69 -275 -149 -504 -243
-705 -136 -288 -315 -1047 -398 -1685 -71 -554 3 -1131 255 -1970 162 -541
250 -740 481 -1085 225 -336 608 -797 859 -1033 101 -94 160 -130 751 -452
250 -136 489 -270 531 -296 84 -54 345 -182 620 -304 l177 -78 15 -57 c36
-127 82 -234 134 -313 52 -77 102 -173 143 -278 l18 -45 -30 -49 c-88 -141
-102 -282 -36 -352 21 -22 21 -26 9 -200 -30 -461 -82 -854 -114 -875 -7 -4
-75 -8 -152 -8 -329 0 -523 -42 -566 -121 -11 -21 -10 -22 31 -15 37 6 46 3
76 -23 35 -31 88 -51 137 -51 15 0 44 -9 65 -19 35 -18 192 -147 192 -158 0
-2 -21 -29 -46 -59 -26 -30 -45 -54 -43 -54 2 0 33 9 68 20 36 11 66 18 68 17
1 -2 -6 -17 -16 -34 -26 -41 -81 -47 -232 -22 -97 15 -128 25 -185 57 -95 54
-211 103 -255 109 -51 7 -81 -2 -120 -34 l-32 -27 58 -26 58 -26 -84 -37 c-70
-30 -124 -43 -324 -78 -256 -44 -292 -45 -596 -23 -65 5 -99 3 -142 -10 -82
-24 -171 -107 -100 -93 38 7 71 -8 91 -43 19 -33 29 -36 160 -49 103 -11 139
-29 165 -83 l16 -33 -44 -7 c-46 -7 -83 -28 -124 -72 l-24 -26 74 0 c74 0 74
0 97 -35 21 -34 24 -35 85 -35 65 0 249 19 426 44 l104 14 32 -23 c70 -54 190
-83 375 -92 258 -12 473 44 665 172 90 60 91 61 125 47 18 -7 63 -16 100 -19
66 -6 68 -5 107 30 37 34 94 134 109 191 3 14 7 26 9 26 2 0 22 -9 46 -20 49
-22 115 -26 154 -8 35 16 37 56 5 118 l-18 35 232 1 c188 0 242 4 291 18 72
21 151 73 183 120 l24 35 41 -16 c65 -24 172 -21 231 5 27 12 52 22 57 22 5 0
9 -20 9 -45 0 -25 4 -45 9 -45 12 0 66 139 81 206 8 32 9 116 5 244 -8 227 9
724 31 888 27 207 82 461 140 649 19 61 25 97 22 146 l-3 64 85 7 c208 15 333
85 404 227 20 39 38 93 42 120 8 59 -8 54 219 69 319 21 577 64 996 166 l226
55 221 -20 c122 -12 235 -21 253 -21 30 0 31 2 26 30 l-6 30 68 0 c56 0 83 6
137 31 69 30 69 30 193 23 134 -7 134 -7 88 43 -11 13 -19 25 -16 27 6 6 465
53 634 66 77 5 332 10 567 10 l427 0 253 -119 c441 -207 449 -209 637 -218
101 -5 123 -4 116 7 -6 10 -4 11 11 5 37 -15 130 -35 167 -35 40 0 85 19 106
44 11 14 8 22 -25 55 l-39 39 165 5 c120 3 178 9 213 22 26 9 47 20 47 23 0 3
-12 19 -27 34 l-27 28 95 0 94 1 -40 22 -40 22 100 5 c67 4 110 11 130 22 61
35 61 33 30 70 l-28 33 39 5 39 5 -45 34 c-98 73 -423 283 -560 361 -80 46
-228 135 -330 198 -172 106 -192 123 -296 231 -61 64 -124 131 -139 150 l-29
33 165 -6 c218 -10 514 -31 789 -57 l225 -22 135 -74 c208 -113 325 -157 359
-135 19 13 0 45 -44 72 -20 12 -34 24 -32 26 2 2 71 -16 153 -41 317 -95 407
-80 343 58 -54 114 -175 207 -482 367 -301 157 -341 169 -797 255 l-195 37
-505 252 c-278 139 -568 281 -645 315 -449 204 -774 387 -925 521 -143 127
-206 169 -389 265 -380 197 -636 351 -846 509 -225 168 -390 300 -545 436
-319 280 -919 721 -1160 853 -115 63 -335 121 -619 162 -107 16 -124 21 -255
87 -271 136 -473 213 -721 274 -77 19 -228 63 -335 99 -396 131 -550 151 -915
125 -190 -14 -363 -34 -657 -75 -261 -37 -432 -44 -518 -22 -33 9 -52 22 -76
53 -31 42 -101 195 -111 246 -5 25 -3 27 32 30 l36 3 -60 80 -60 80 45 3 c37
3 44 6 40 20 -35 114 -58 250 -60 357 -2 110 -5 126 -34 195 -27 63 -30 76
-17 83 61 34 69 204 19 399 -13 52 -13 60 1 82 33 50 36 85 15 185 -16 77 -55
229 -107 412 -3 9 5 20 21 27 53 24 46 79 -35 251 -27 57 -49 106 -49 107 0 2
11 4 24 4 67 0 63 64 -18 303 -62 185 -63 187 -40 187 34 0 31 30 -10 126 -19
43 -37 90 -41 102 -7 24 -7 24 20 6 27 -17 28 -17 42 2 17 23 12 66 -22 204
-13 52 -61 275 -105 495 -208 1023 -318 1390 -494 1654 -188 282 -478 470
-835 542 -128 26 -382 34 -471 14z m4974 -12635 c61 -49 76 -67 82 -97 8 -42
-3 -359 -17 -512 -9 -95 -60 -319 -135 -584 -23 -85 -31 -100 -53 -108 -134
-51 -171 -82 -171 -145 0 -25 -2 -26 -37 -20 -190 32 -255 38 -363 32 -63 -3
-134 -8 -157 -12 l-43 -7 0 86 c0 141 78 484 135 597 19 37 32 90 46 188 11
76 26 168 35 207 8 38 26 142 39 232 16 113 31 180 49 218 l25 54 61 -31 c71
-37 136 -42 189 -14 45 24 119 93 138 130 l15 29 44 -91 c39 -81 51 -97 118
-152z"/>
</g>
</svg>
