<?xml version="1.0" standalone="no"?>
<!DOCTYPE svg PUBLIC "-//W3C//DTD SVG 20010904//EN"
 "http://www.w3.org/TR/2001/REC-SVG-20010904/DTD/svg10.dtd">
<svg version="1.0" xmlns="http://www.w3.org/2000/svg"
 width="1536.000000pt" height="1380.000000pt" viewBox="0 0 1536.000000 1380.000000"
 preserveAspectRatio="xMidYMid meet">
<metadata>
Created by potrace 1.16, written by Peter Selinger 2001-2019
</metadata>
<g transform="translate(0.000000,1380.000000) scale(0.100000,-0.100000)"
fill="#000000" stroke="none">
<path d="M9150 13779 c-24 -11 -66 -39 -94 -62 -68 -58 -108 -84 -142 -97 -32
-11 -33 -13 70 76 66 56 -7 32 -96 -32 -75 -55 -135 -77 -210 -78 -36 -1 -69
2 -73 6 -4 3 5 24 19 45 26 38 33 63 18 63 -10 0 -48 -41 -85 -92 -34 -47 -64
-65 -81 -48 -11 12 -6 17 41 46 64 40 -75 5 -145 -36 -18 -11 -38 -18 -43 -15
-15 10 -10 48 11 83 11 17 16 32 12 32 -16 0 -110 -61 -154 -99 -25 -22 -49
-41 -53 -41 -4 0 -4 14 0 30 8 37 -8 40 -43 8 l-23 -23 3 40 c3 37 1 40 -22
40 -18 0 -32 -11 -49 -37 -33 -52 -60 -50 -91 4 l-24 42 -18 -39 c-9 -22 -18
-50 -18 -62 0 -32 -18 -29 -38 7 -13 23 -24 30 -48 30 -34 0 -44 -13 -44 -56
0 -22 -4 -24 -42 -24 -24 0 -56 7 -72 15 -16 9 -31 13 -34 10 -3 -3 0 -28 6
-56 16 -67 15 -71 -7 -64 -12 4 -36 -8 -72 -35 -81 -61 -114 -49 -68 26 11 19
19 44 17 56 -2 19 -15 7 -72 -69 -45 -61 -76 -93 -89 -93 -10 0 -38 14 -62 31
-50 36 -65 32 -65 -17 0 -42 -20 -45 -50 -7 l-21 27 -15 -22 c-17 -24 -53 -29
-72 -10 -9 9 -12 8 -12 -5 0 -36 -30 -78 -60 -83 -25 -5 -29 -12 -35 -48 -17
-117 -25 -124 -70 -70 -30 36 -34 38 -59 26 -32 -14 -60 -58 -87 -139 -11 -35
-25 -63 -30 -63 -17 0 -9 51 16 98 26 48 32 82 16 82 -16 0 -47 -52 -66 -110
-24 -75 -26 -77 -42 -46 -23 43 -53 29 -53 -25 0 -32 -18 -12 -30 32 -21 77
-66 56 -110 -53 -16 -41 -33 -67 -49 -75 -34 -16 -41 -9 -41 45 l0 47 -20 -25
c-11 -14 -30 -56 -41 -93 -17 -54 -25 -67 -38 -62 -9 3 -49 -11 -90 -30 -87
-42 -105 -43 -127 -10 l-17 26 -26 -39 c-14 -21 -43 -59 -63 -84 -46 -55 -66
-100 -74 -172 -7 -55 -7 -56 -40 -56 -18 0 -36 -4 -39 -10 -12 -19 -23 -10
-30 22 l-7 32 -18 -22 c-10 -12 -21 -44 -25 -72 -4 -27 -12 -50 -18 -50 -6 0
-26 14 -44 32 -26 25 -33 28 -33 14 0 -9 5 -26 11 -38 14 -25 4 -35 -17 -17
-14 11 -19 10 -34 -11 -53 -72 -47 -68 -59 -37 -6 16 -12 63 -12 105 l-1 77
-19 -90 c-26 -128 -38 -247 -29 -294 7 -38 6 -41 -16 -41 -30 0 -54 -36 -54
-82 0 -37 -12 -49 -26 -27 -4 6 -12 32 -19 58 l-11 46 -12 -47 c-12 -45 -32
-66 -32 -33 0 8 -4 15 -10 15 -15 0 -12 -40 6 -93 22 -65 15 -76 -27 -39 -36
31 -51 60 -89 164 -12 31 -30 67 -41 80 l-20 23 5 -42 c4 -23 30 -97 60 -165
70 -158 73 -171 49 -166 -10 2 -28 24 -42 52 -20 43 -24 47 -33 32 -6 -10 -8
-41 -5 -67 6 -46 5 -49 -20 -55 -52 -14 -76 23 -99 149 -8 45 -20 93 -26 107
l-10 25 -10 -25 c-11 -28 -5 -68 23 -159 20 -66 26 -166 10 -176 -5 -3 -12 3
-15 13 -6 18 -147 152 -160 152 -14 0 -4 -34 19 -68 52 -76 20 -108 -38 -39
-21 26 -43 47 -48 47 -12 0 -11 -37 1 -45 6 -3 10 -17 10 -31 0 -31 -26 -31
-62 0 l-27 24 120 252 c66 138 134 276 151 307 21 38 27 58 20 65 -14 14 -47
-46 -159 -281 -48 -103 -110 -231 -138 -286 -50 -99 -51 -100 -90 -103 -21 -2
-69 4 -107 14 -55 14 -72 15 -94 5 -15 -6 -27 -10 -28 -9 -1 2 -8 25 -14 53
-7 27 -15 51 -18 54 -10 10 -19 -13 -24 -62 -6 -64 -26 -71 -69 -25 -25 27
-34 31 -48 22 -10 -6 -19 -25 -21 -43 -3 -26 -7 -30 -25 -26 -12 2 -40 6 -62
7 -40 3 -40 3 -45 -36 -5 -37 -7 -39 -57 -52 -71 -18 -111 -40 -218 -117 -95
-68 -183 -117 -211 -117 -17 0 -16 -10 1 -67 11 -35 -29 -30 -57 7 -12 17 -30
30 -40 30 -23 0 -23 -6 4 -57 18 -34 21 -47 12 -60 -12 -19 -43 -22 -81 -9
-21 7 -23 4 -23 -26 0 -41 -15 -63 -95 -148 -34 -36 -64 -72 -67 -80 -4 -11
-14 -6 -41 23 -19 20 -44 37 -55 37 -26 0 -34 -47 -37 -210 -2 -128 -10 -190
-25 -190 -4 0 -38 34 -75 75 -37 41 -71 75 -76 75 -28 0 0 -49 72 -125 44 -47
87 -101 95 -120 14 -33 20 -145 8 -145 -3 0 -17 9 -31 20 -37 29 -40 18 -9
-34 26 -45 33 -80 18 -90 -5 -3 -53 24 -106 59 -54 36 -108 65 -121 65 -30 0
-69 48 -358 444 -121 166 -233 318 -249 339 -29 36 -55 50 -45 23 6 -14 145
-204 415 -565 92 -123 193 -262 225 -310 32 -47 85 -121 118 -163 33 -43 57
-82 54 -88 -16 -26 -48 -5 -115 74 -79 96 -96 110 -85 75 13 -42 43 -84 100
-140 103 -101 46 -82 -74 25 -41 36 -78 66 -83 66 -20 0 27 -63 95 -126 120
-111 139 -161 56 -143 -23 5 -50 14 -60 19 -30 17 -32 -7 -3 -45 l26 -35 -40
0 c-25 0 -73 14 -119 34 -43 19 -88 37 -100 40 -13 3 -32 9 -43 12 -11 3 -20
1 -20 -3 0 -15 72 -51 176 -89 115 -41 174 -73 203 -110 28 -36 26 -46 -6 -33
-16 6 -68 20 -118 30 -49 11 -103 27 -119 35 -16 8 -32 12 -34 9 -13 -13 51
-61 139 -106 92 -46 139 -85 139 -116 0 -9 -24 -1 -76 27 -42 22 -87 40 -101
40 -26 0 -26 0 -7 -21 10 -12 47 -34 81 -49 69 -32 79 -51 33 -70 -22 -9 -30
-19 -30 -37 0 -21 4 -24 20 -19 67 21 64 21 56 -5 -4 -13 -9 -39 -13 -57 -4
-25 -10 -32 -22 -27 -24 10 -161 19 -161 11 0 -13 70 -36 112 -36 l43 -1 -27
-15 c-36 -19 -35 -28 4 -73 l32 -36 -95 -6 c-198 -14 -270 -22 -257 -30 7 -5
84 -9 171 -9 136 0 157 -2 157 -16 0 -25 -20 -56 -71 -111 -27 -28 -49 -57
-49 -62 0 -23 26 -9 60 31 40 46 65 47 76 3 5 -20 -2 -36 -30 -72 -20 -26 -39
-59 -43 -73 -3 -14 -28 -52 -55 -84 -27 -33 -58 -76 -68 -96 -20 -39 -111
-104 -190 -134 -80 -31 -212 -106 -350 -200 -209 -143 -219 -150 -220 -165 0
-19 15 -11 136 75 60 43 147 102 194 132 88 57 267 148 275 140 8 -7 -153
-208 -256 -320 -55 -58 -99 -109 -99 -112 0 -41 178 146 326 341 92 121 133
153 270 212 75 32 93 27 75 -22 -11 -27 -36 -37 -99 -37 -31 0 -42 -4 -39 -12
3 -9 20 -12 48 -10 l44 3 -50 -52 c-79 -81 -411 -387 -795 -734 -690 -621
-1028 -940 -1260 -1186 -74 -79 -206 -216 -292 -305 -208 -214 -270 -312 -285
-454 -5 -54 -4 -59 18 -71 30 -17 126 -16 159 1 39 20 70 52 70 72 0 14 8 18
41 18 72 0 141 52 210 158 34 52 69 89 116 125 38 28 142 123 233 212 325 316
710 626 1298 1044 133 95 311 230 395 300 172 144 287 232 367 283 67 43 200
111 200 102 0 -3 -39 -61 -87 -128 -248 -346 -479 -580 -709 -714 -35 -20 -64
-43 -64 -49 0 -19 6 -17 89 33 257 156 496 406 771 807 45 66 63 83 111 108
32 16 61 29 64 29 3 0 25 -20 50 -44 l45 -45 -77 -102 c-42 -57 -76 -109 -77
-117 -2 -27 22 -24 40 5 26 42 45 55 60 42 11 -9 9 -17 -10 -43 -14 -18 -27
-53 -31 -83 -7 -50 -8 -53 -36 -53 -16 0 -29 -4 -29 -10 0 -5 12 -10 28 -10
58 0 69 -9 76 -56 4 -30 1 -57 -9 -80 -13 -32 -13 -34 5 -34 11 0 27 -12 37
-26 35 -51 62 -74 88 -74 21 0 25 -5 25 -27 0 -16 -4 -35 -9 -42 -7 -11 -3
-21 14 -37 14 -12 30 -43 36 -68 7 -27 22 -54 36 -66 23 -18 24 -20 8 -44 -9
-14 -26 -28 -38 -32 -18 -6 -18 -7 -4 -16 11 -6 17 -22 17 -48 0 -33 3 -40 20
-40 28 0 25 -14 -11 -44 -38 -32 -30 -46 27 -46 24 0 44 -4 44 -8 0 -5 -15
-22 -32 -38 l-33 -29 53 -3 c55 -3 62 -12 37 -46 -22 -29 -18 -39 10 -32 28 7
33 -5 10 -24 -18 -15 -20 -30 -3 -30 6 0 25 -10 42 -23 17 -13 39 -26 49 -30
19 -7 23 -37 6 -54 -6 -6 -9 -23 -7 -39 4 -40 40 -45 63 -10 21 32 35 25 35
-18 0 -19 7 -39 15 -46 11 -9 12 -16 4 -26 -7 -9 -6 -21 5 -42 17 -32 13 -42
-16 -42 -12 0 -18 -5 -15 -12 3 -9 22 -12 61 -10 48 3 56 1 56 -15 0 -23 -10
-37 -34 -50 -17 -9 -15 -11 15 -23 l34 -14 -27 -3 c-25 -4 -27 -8 -25 -43 1
-21 5 -42 9 -45 3 -3 23 1 43 9 47 20 45 20 45 -8 0 -13 -14 -41 -31 -62 l-31
-39 39 -8 c21 -5 53 -11 71 -14 18 -3 31 -10 30 -17 -1 -6 1 -23 5 -38 6 -22
13 -28 35 -28 15 0 42 -9 61 -21 25 -15 43 -19 69 -14 l34 6 -4 -45 c-3 -43
-2 -45 12 -27 8 11 37 31 64 45 l48 26 20 -25 c18 -24 21 -24 48 -10 16 8 31
15 35 15 12 0 3 -25 -17 -49 -13 -14 -16 -20 -8 -13 8 6 38 12 67 12 39 0 55
4 62 18 10 15 14 14 38 -16 32 -37 39 -39 46 -12 9 35 67 4 67 -36 0 -24 1
-24 25 -8 20 13 38 15 86 10 40 -5 65 -3 74 4 28 23 36 1 29 -76 -5 -53 -4
-74 5 -74 15 0 31 43 31 81 0 29 2 30 30 24 24 -5 32 -3 38 12 6 17 13 18 51
10 30 -6 45 -15 48 -28 6 -23 23 -15 23 12 0 17 3 18 20 7 18 -11 23 -10 40
12 11 14 20 32 20 40 0 9 14 0 35 -24 26 -28 41 -37 56 -33 19 5 21 2 15 -36
-3 -23 -8 -76 -11 -117 l-6 -75 20 23 c10 12 22 41 26 65 10 59 32 97 55 97
28 0 25 -27 -10 -79 -17 -24 -30 -47 -30 -51 0 -17 89 26 100 48 16 35 35 21
33 -23 l-3 -38 37 6 c21 4 50 16 65 27 35 26 36 25 40 -7 2 -24 7 -27 28 -24
68 10 75 8 78 -26 2 -18 5 -33 7 -33 12 0 55 53 55 68 0 9 -9 48 -19 85 -25
85 -8 86 32 2 24 -49 30 -56 38 -42 15 26 38 21 57 -13 38 -67 44 -14 7 60
-24 48 -37 107 -15 68 6 -9 39 -34 74 -56 35 -23 73 -52 83 -66 11 -14 23 -22
27 -19 11 11 6 71 -10 118 -12 36 -13 50 -3 61 18 22 27 18 84 -43 30 -32 56
-55 59 -52 3 3 -3 29 -14 57 -21 54 -27 122 -11 122 18 0 33 -30 27 -55 -8
-30 8 -33 43 -9 20 14 22 22 17 56 -5 30 -3 39 6 36 8 -3 14 -26 16 -57 3 -53
4 -53 31 -48 25 5 30 2 45 -31 9 -20 27 -77 41 -126 35 -122 47 -138 42 -56
-3 40 -20 112 -45 185 -34 99 -38 121 -26 123 20 5 49 -22 64 -58 10 -25 37
-46 46 -37 2 2 -4 27 -14 56 -16 51 -16 54 3 67 26 20 39 18 73 -11 51 -43 60
-24 12 25 -16 17 -30 40 -30 51 0 20 0 20 31 -2 27 -19 33 -20 57 -8 15 7 31
15 36 17 8 4 6 -13 -10 -83 l-6 -30 27 35 c14 19 38 57 51 83 28 54 42 56 65
8 17 -35 35 -39 31 -6 -3 27 13 49 28 40 7 -4 18 -21 25 -38 l13 -30 18 28
c12 18 18 46 18 80 0 45 3 51 18 47 10 -2 28 -19 40 -36 27 -38 40 -48 51 -37
5 5 -5 28 -22 51 -34 47 -41 72 -13 47 10 -9 34 -23 53 -31 42 -18 59 -7 59
36 0 15 4 28 8 28 30 0 114 -77 199 -182 61 -76 99 -115 101 -105 5 26 -23 70
-107 166 -77 87 -101 122 -115 168 l-7 23 43 -20 c24 -11 50 -20 59 -20 9 0
28 -9 43 -21 22 -17 26 -18 26 -4 0 9 9 33 20 55 11 22 20 51 20 65 0 19 5 25
23 25 13 0 32 -7 43 -15 10 -8 22 -15 26 -15 19 -1 37 36 43 85 8 61 26 72 47
28 16 -33 38 -42 38 -14 0 26 15 34 30 16 32 -38 54 -6 44 64 l-7 46 22 -19
c31 -28 51 -108 51 -209 0 -78 2 -88 17 -85 11 2 21 18 26 41 5 20 14 37 19
37 6 0 30 -12 54 -27 47 -30 61 -61 22 -48 -13 4 -34 8 -48 9 -20 1 -25 -4
-25 -24 0 -20 5 -25 25 -25 18 0 26 -6 28 -21 3 -19 -6 -23 -83 -40 l-85 -19
62 -20 c55 -18 63 -23 66 -47 3 -21 -1 -28 -15 -28 -29 0 -123 -24 -123 -31 0
-4 14 -19 30 -33 l31 -25 -23 -14 c-13 -8 -40 -20 -60 -27 -60 -18 -46 -31 26
-24 41 4 66 3 70 -4 11 -18 -49 -42 -120 -49 -71 -7 -72 -16 -3 -36 l44 -13
-40 -35 c-87 -75 -111 -103 -93 -107 9 -2 34 8 55 22 42 29 84 33 103 11 14
-17 18 -15 -71 -39 -93 -26 -97 -52 -11 -71 40 -8 40 -16 1 -53 -41 -39 -34
-62 19 -62 21 0 43 -5 50 -12 19 -19 14 -61 -13 -100 -14 -20 -25 -39 -25 -42
0 -13 34 -5 52 11 15 13 21 14 31 4 9 -10 5 -18 -23 -41 l-35 -29 56 -1 c41 0
58 -4 63 -15 4 -12 -3 -15 -33 -15 -49 0 -58 -20 -26 -59 14 -16 25 -34 25
-41 0 -18 -24 -6 -35 18 -11 25 -38 25 -43 1 -1 -8 11 -35 27 -59 31 -47 31
-65 0 -57 -12 3 -19 0 -19 -9 0 -21 -92 -23 -117 -2 -25 20 -13 -16 17 -56 34
-45 38 -58 13 -49 -16 6 -16 5 -4 -10 7 -9 31 -22 53 -28 47 -12 41 -26 -27
-59 l-43 -21 24 -24 c29 -29 30 -39 3 -66 -26 -26 -17 -37 15 -19 27 14 56 8
56 -13 0 -7 -12 -24 -27 -38 l-28 -24 38 -3 c42 -4 49 -19 12 -28 -18 -4 -24
-11 -20 -23 3 -11 -8 -29 -31 -52 -77 -74 -63 -91 26 -34 30 20 61 34 69 33
19 -4 45 -108 32 -129 -8 -14 -5 -18 17 -22 47 -10 132 -42 132 -50 0 -4 -18
-16 -41 -25 -36 -16 -39 -19 -25 -31 9 -7 16 -26 16 -41 0 -19 9 -35 27 -48
l27 -19 -17 -44 c-18 -46 -49 -87 -160 -215 -37 -42 -65 -79 -62 -82 14 -14
135 89 205 173 30 36 59 65 66 65 7 0 13 -18 16 -44 l3 -44 -52 -22 c-29 -12
-53 -25 -53 -30 0 -4 14 -10 30 -13 41 -9 38 -21 -10 -37 -22 -7 -39 -18 -37
-24 2 -6 39 -13 81 -16 l78 -5 -62 -94 c-33 -51 -59 -98 -57 -104 4 -12 46 28
79 74 15 20 19 22 28 9 19 -29 10 -72 -32 -150 -24 -43 -40 -81 -37 -84 12
-12 35 5 46 35 17 44 33 27 33 -34 0 -79 19 -44 22 42 2 43 8 76 14 78 6 2 22
-5 35 -16 22 -18 24 -26 22 -105 -2 -94 8 -108 45 -61 17 21 21 22 26 9 13
-34 5 -110 -24 -226 -36 -141 -35 -175 2 -103 22 43 34 89 64 244 6 31 19 17
33 -34 8 -30 7 -61 -5 -131 -10 -61 -13 -102 -7 -125 9 -33 11 -34 66 -37 31
-2 57 -4 57 -6 0 -2 -7 -23 -15 -46 -18 -52 -18 -50 -1 -50 8 0 29 -18 46 -40
23 -29 39 -40 54 -38 19 3 21 -2 20 -40 -1 -41 1 -43 23 -37 32 8 29 -8 -7
-39 l-31 -25 23 -15 c13 -8 51 -20 86 -27 73 -14 78 -27 30 -76 -17 -18 -29
-36 -25 -40 16 -15 113 -15 152 1 31 13 40 14 47 4 12 -19 10 -30 -13 -67 -23
-38 -20 -48 10 -31 16 8 21 8 21 -1 0 -25 -88 -95 -179 -144 -92 -49 -178
-114 -153 -115 16 0 74 29 150 76 l57 35 -70 -66 c-155 -146 -647 -461 -1020
-654 -276 -142 -353 -175 -497 -212 -45 -11 -143 -43 -217 -70 -74 -27 -156
-54 -181 -60 -25 -6 -148 -14 -275 -19 -141 -6 -259 -15 -305 -25 -184 -40
-385 -123 -531 -221 -77 -52 -225 -186 -261 -237 l-21 -30 37 7 c21 4 93 34
160 66 66 33 143 64 170 71 48 12 48 12 73 -20 55 -71 131 -80 357 -41 77 13
163 21 215 20 75 -2 98 2 176 30 149 54 343 54 630 0 l110 -21 0 -77 c0 -77
10 -105 50 -157 16 -20 16 -20 31 0 8 11 23 49 34 86 l20 67 45 6 c45 7 83 0
187 -35 72 -24 104 -24 170 1 71 27 136 83 257 222 102 117 169 176 235 203
48 20 49 20 42 -22 -18 -112 -18 -123 -8 -123 22 0 121 110 162 179 55 92 112
227 144 337 21 73 32 93 59 114 17 14 87 76 154 139 128 119 219 193 266 217
l27 15 0 -61 c0 -66 15 -74 26 -14 5 26 10 34 21 29 12 -4 14 0 9 17 -4 13 -9
39 -12 58 -5 35 -5 35 93 95 54 32 207 132 340 221 270 180 259 176 283 84 20
-80 31 -110 41 -110 14 0 11 51 -6 106 -19 63 -19 118 0 134 29 24 45 -5 45
-81 0 -38 4 -69 9 -69 16 0 20 28 14 82 l-6 53 20 -24 c13 -16 30 -24 49 -23
23 0 34 -7 52 -34 42 -64 58 -36 17 31 -22 36 -34 95 -19 95 20 0 48 -28 72
-73 l27 -52 5 89 c3 50 10 91 16 93 18 6 45 -33 64 -93 23 -76 38 -80 42 -12
2 43 6 53 21 52 23 -2 22 24 -3 61 -11 17 -20 38 -20 47 0 26 26 11 49 -28 20
-34 41 -45 41 -21 0 6 16 35 36 62 27 38 34 57 30 78 -8 41 21 48 49 12 13
-15 28 -24 34 -21 17 11 13 31 -9 51 -20 18 -27 45 -11 45 5 0 14 -7 21 -15 7
-8 19 -15 27 -15 17 0 11 23 -18 82 -17 33 -26 78 -15 78 2 0 16 -7 32 -14 45
-24 49 -7 8 35 -21 21 -35 41 -32 44 11 11 87 -15 117 -41 16 -13 32 -38 36
-54 9 -40 39 -40 60 0 9 17 22 30 30 30 21 0 19 -10 -6 -37 -20 -20 -20 -23
-5 -29 9 -4 35 2 57 12 74 33 94 -14 44 -103 -17 -31 -20 -43 -10 -43 22 0 65
59 65 91 0 31 3 32 35 19 13 -5 26 -3 37 7 11 9 18 11 23 4 10 -18 -10 -43
-71 -85 -31 -23 -60 -47 -62 -55 -9 -27 61 -2 98 34 20 19 41 35 47 35 20 0
24 -35 8 -80 -18 -50 -19 -80 -5 -80 35 0 102 56 118 100 l10 25 7 -27 c11
-44 -1 -70 -61 -139 -65 -72 -57 -95 10 -30 45 45 56 44 56 -2 0 -24 -3 -28
-20 -24 -34 9 -23 -20 20 -54 27 -22 40 -40 40 -57 0 -19 -4 -23 -17 -17 -34
14 -63 17 -63 7 0 -18 53 -53 73 -48 37 9 12 -29 -40 -64 -35 -22 -50 -37 -43
-44 28 -28 -3 -67 -100 -129 -30 -19 -66 -47 -80 -62 -23 -26 -19 -25 60 16
57 29 104 62 142 101 60 60 70 61 70 3 0 -66 -32 -102 -292 -325 -216 -186
-349 -285 -615 -462 -161 -106 -255 -177 -348 -261 -146 -131 -224 -177 -339
-201 -96 -20 -140 -20 -347 0 -416 40 -674 -18 -864 -196 -42 -39 -94 -98
-117 -132 -27 -40 -66 -80 -119 -119 -44 -33 -92 -74 -107 -92 -32 -38 -67
-111 -54 -115 4 -2 48 17 97 41 157 78 279 117 370 117 40 0 42 -2 45 -32 2
-25 13 -39 43 -60 39 -26 45 -27 170 -28 72 0 229 5 350 10 121 5 361 14 533
21 380 13 370 15 396 -87 9 -37 18 -70 21 -72 11 -11 153 21 285 63 77 25 159
47 182 50 75 11 88 15 88 31 0 38 52 107 153 204 128 122 137 136 205 293 29
68 75 152 109 199 99 139 299 335 583 572 307 256 532 471 634 606 l72 95 22
-25 22 -25 20 24 c11 13 20 29 20 37 0 8 4 14 9 14 15 0 21 -29 14 -75 -7 -52
8 -60 27 -15 7 17 15 30 19 30 19 -1 32 -21 40 -64 5 -26 11 -50 15 -53 12
-12 29 16 41 69 l12 53 52 -54 c29 -29 55 -51 58 -48 3 3 0 29 -6 57 -13 61
-14 100 -2 100 4 0 28 -16 52 -35 51 -40 97 -54 110 -34 5 8 6 31 2 53 -5 33
-4 38 13 34 12 -2 23 -18 30 -43 12 -42 13 -41 27 30 4 18 5 18 14 -4 6 -16
12 -20 17 -13 4 6 0 25 -9 41 -19 39 -7 45 38 21 l37 -20 0 30 c0 40 13 38 39
-6 20 -34 41 -38 41 -8 0 9 -14 35 -31 60 -16 24 -27 49 -24 54 12 19 35 10
41 -16 5 -18 10 -22 17 -15 16 16 37 13 37 -5 0 -32 25 -6 28 30 3 36 4 37 39
30 24 -4 34 -3 30 4 -4 5 -1 12 7 15 15 6 45 -12 89 -52 l29 -26 -7 40 c-4 22
-18 66 -32 99 -13 32 -22 60 -19 63 2 2 15 -1 28 -8 12 -7 41 -16 63 -20 22
-4 55 -10 73 -14 32 -8 33 -7 26 20 -6 24 -4 27 10 22 31 -12 12 17 -22 33
-29 14 -31 17 -16 31 14 14 14 19 -2 52 -10 20 -15 39 -12 42 3 3 35 -4 72
-16 36 -12 69 -19 73 -16 9 10 -28 87 -50 102 -11 7 -16 18 -12 25 9 14 42 4
83 -27 22 -17 37 -22 44 -15 6 6 -1 17 -21 31 -39 28 -42 61 -5 61 16 0 37 11
52 28 15 16 35 33 45 38 17 10 16 13 -7 47 -15 22 -21 37 -13 37 7 0 18 9 25
20 10 16 16 18 32 10 29 -15 33 -12 27 18 -5 24 -3 28 16 28 22 -1 25 11 15
69 -3 18 3 20 55 23 31 2 57 6 57 10 -1 4 -18 42 -38 84 l-38 78 48 16 c52 17
62 38 23 48 -14 4 -25 13 -25 21 0 21 20 18 47 -7 13 -12 25 -19 28 -16 7 7
-21 95 -40 124 -20 31 -12 44 25 44 l30 0 -15 32 c-8 18 -19 52 -25 75 -11 43
-40 73 -72 73 -22 0 -22 2 1 48 41 83 36 98 -23 67 -16 -9 -30 -14 -30 -13 -1
2 -37 50 -81 108 -94 127 -125 188 -125 253 0 49 19 109 40 122 6 4 19 0 29
-9 26 -24 29 -21 23 33 -4 43 1 58 34 120 21 39 43 71 50 71 6 0 14 -14 18
-31 10 -52 26 -21 26 50 0 54 4 74 20 92 l20 24 6 -23 c6 -20 11 -14 40 45 18
37 58 95 88 128 51 56 55 58 56 34 0 -15 -16 -50 -35 -79 -44 -65 -44 -80 -2
-48 26 20 76 103 111 183 6 13 46 -33 46 -53 0 -9 -18 -46 -40 -83 -39 -66
-49 -99 -31 -99 5 0 21 13 34 30 22 25 36 56 73 160 4 12 9 10 24 -8 l19 -23
5 23 c3 13 12 53 21 91 30 137 85 206 140 177 14 -7 27 -11 29 -9 3 3 0 24 -6
48 -10 39 -9 46 7 57 10 8 27 14 37 14 15 0 16 4 8 26 -15 40 -12 96 10 159
11 32 20 69 20 82 0 15 5 23 13 20 7 -2 12 -24 12 -58 0 -77 19 -63 25 18 l6
68 17 -37 c20 -43 35 -55 43 -34 3 8 -11 45 -30 82 -39 73 -43 91 -23 117 14
20 32 11 45 -23 6 -17 11 9 15 96 7 119 21 194 36 194 13 0 29 -23 37 -54 9
-37 24 -15 24 37 0 34 2 38 20 32 16 -5 20 -2 20 19 0 14 -9 48 -20 76 -11 28
-20 62 -20 76 l0 25 28 -21 c36 -29 41 -8 13 46 -24 45 -26 63 -8 88 12 16 14
16 31 -3 11 -12 22 -21 26 -21 4 0 10 111 14 248 9 323 15 357 49 271 10 -25
21 -39 29 -37 23 8 21 38 -5 76 -30 46 -42 82 -28 82 6 0 11 -7 11 -15 0 -20
34 -19 54 1 19 19 20 51 2 125 -11 48 -11 62 1 99 17 51 90 170 104 170 12 0
29 -44 29 -74 0 -13 6 -29 14 -35 20 -17 41 124 41 276 0 67 3 119 7 117 5 -3
17 -22 28 -43 19 -38 60 -62 60 -36 0 7 -20 40 -44 73 -53 71 -71 106 -79 150
-6 30 5 44 18 22 10 -16 25 -12 25 8 0 9 -15 54 -34 100 -22 54 -30 85 -23 89
6 4 12 2 14 -4 2 -6 11 -19 19 -29 15 -18 15 -18 10 6 -3 14 -14 97 -25 186
-22 170 -45 262 -85 332 -14 23 -23 42 -20 42 2 0 27 -16 55 -35 28 -19 57
-35 65 -35 38 0 -5 98 -73 166 -27 27 -60 67 -73 89 -13 22 -32 50 -43 63 -19
20 -19 22 -2 22 22 0 82 -61 153 -154 60 -81 66 -70 18 31 -69 143 -243 371
-297 388 -21 7 -23 13 -11 33 6 8 22 10 55 6 41 -6 47 -10 47 -31 0 -26 29
-86 57 -119 23 -26 103 -84 116 -84 6 0 8 39 5 103 -5 105 -18 148 -60 194
-20 21 -20 21 2 28 28 9 21 29 -41 126 -50 79 -69 129 -51 129 6 0 23 -15 37
-34 14 -19 33 -37 41 -40 21 -8 -3 43 -60 127 -44 66 -58 107 -36 107 6 0 19
-14 28 -31 9 -18 27 -43 40 -58 l22 -26 -20 55 c-12 30 -73 141 -136 246 -62
105 -114 194 -114 198 0 3 23 -12 51 -34 54 -43 69 -48 69 -26 0 19 -70 81
-122 107 l-43 22 28 10 c31 10 93 -3 212 -46 46 -17 71 -22 74 -15 7 21 -40
48 -84 48 -37 0 -47 5 -65 30 -11 16 -77 78 -146 136 -80 69 -121 111 -115
117 14 14 53 1 97 -34 47 -37 94 -63 94 -51 0 5 -60 53 -132 107 -73 54 -164
123 -202 154 -65 53 -156 153 -156 172 0 20 41 6 106 -36 45 -30 70 -41 73
-33 7 20 -66 74 -155 114 -46 21 -84 41 -84 46 0 4 19 8 43 10 78 6 58 31
-108 134 -169 105 -254 173 -219 173 12 1 49 -19 81 -43 70 -51 103 -70 103
-58 0 16 -55 60 -190 153 -149 102 -225 163 -235 187 -11 29 12 36 48 13 41
-25 47 -26 47 -6 0 14 -16 24 -63 39 -10 3 -16 10 -12 16 4 6 15 6 31 -1 22
-8 25 -7 20 7 -3 8 -6 18 -6 20 0 2 -7 4 -15 4 -8 0 -15 5 -15 11 0 6 8 9 18
6 9 -3 28 -9 42 -13 l25 -7 -20 22 c-28 32 -85 59 -184 88 -112 32 -174 67
-207 115 -15 21 -42 52 -61 68 -54 48 -12 34 63 -20 74 -54 90 -61 75 -31 -13
24 -57 58 -191 149 -174 117 -195 158 -46 87 41 -19 85 -35 98 -35 l23 0 -25
20 c-14 11 -83 45 -155 77 -139 62 -225 113 -265 158 l-25 27 25 -7 c37 -11
154 -67 247 -119 45 -25 84 -42 87 -37 3 5 0 13 -7 19 -24 19 -263 140 -312
158 -27 10 -56 24 -63 31 -7 7 -45 32 -83 55 -55 32 -67 43 -55 50 9 5 36 1
73 -12 65 -23 77 -24 68 -10 -10 16 -93 55 -170 80 -103 33 -150 64 -206 136
-28 35 -65 75 -82 89 -55 43 -5 28 54 -16 101 -76 153 -90 89 -24 -18 19 -65
51 -104 71 -39 21 -84 48 -101 62 -29 24 -29 25 -5 18 14 -4 38 -17 53 -28 22
-15 31 -17 43 -7 14 11 53 9 114 -6 24 -6 24 -6 -5 19 -16 14 -75 42 -130 61
-212 77 -276 108 -258 126 7 7 31 2 73 -15 35 -14 73 -26 84 -26 28 1 -78 55
-224 115 -126 51 -324 145 -354 167 -17 14 -16 16 20 38 37 23 38 24 15 28
-13 2 -36 -5 -51 -17 -30 -22 -44 -15 -52 24 -3 15 -11 20 -36 20 -17 0 -32 3
-32 7 0 13 60 19 117 13 43 -4 54 -3 41 5 -9 5 -80 14 -157 20 -102 6 -153 15
-185 29 -39 17 -66 44 -66 67 0 4 34 4 75 0 50 -5 75 -3 75 4 0 5 -8 10 -19
10 -53 0 -335 33 -389 45 -69 16 -122 40 -122 55 0 19 48 21 101 6 61 -18 79
-20 79 -6 0 26 -54 42 -172 52 -112 9 -168 21 -154 35 3 3 33 13 67 22 34 9
64 22 67 29 6 20 -58 14 -138 -13 -84 -28 -130 -32 -130 -11 0 21 15 27 68 32
101 10 45 14 -164 11 -190 -2 -226 0 -271 16 -80 28 -81 48 -4 62 80 14 114
26 103 37 -16 16 -215 22 -351 9 -128 -12 -157 -9 -103 10 18 6 32 15 32 20 0
21 -36 21 -72 2 -31 -17 -38 -19 -38 -7 0 9 27 27 63 44 64 29 103 60 76 60
-7 0 -61 -22 -119 -50 -127 -60 -175 -69 -256 -45 -56 16 -58 18 -39 32 11 8
53 30 93 49 39 18 72 36 72 40 0 14 -120 -6 -235 -39 -66 -19 -138 -37 -160
-40 l-40 -6 23 19 c12 10 51 28 86 40 35 11 72 28 82 36 36 29 -54 9 -176 -39
-63 -25 -124 -47 -136 -49 -39 -6 -29 15 14 30 23 7 42 18 42 23 0 21 -71 5
-165 -36 -54 -24 -103 -41 -107 -39 -15 10 -8 20 27 37 37 18 48 47 17 47 -10
0 -43 -18 -73 -40 -53 -41 -94 -58 -106 -46 -10 10 38 55 92 86 51 29 92 66
84 74 -3 3 -24 -4 -49 -15z m-6053 -3034 c-21 -77 -53 -165 -60 -165 -9 0 -4
106 10 193 l6 39 23 -29 c13 -15 22 -32 21 -38z m11249 -30 c51 -27 60 -35 40
-35 -31 0 -137 50 -130 62 8 13 21 10 90 -27z m-11451 -597 c44 -30 82 -62 83
-72 4 -20 -27 -96 -38 -96 -7 0 -117 142 -163 210 -38 55 -12 46 118 -42z
m12251 -1233 c3 -25 4 -48 1 -51 -3 -3 -17 12 -31 33 -18 25 -26 51 -26 78 l1
40 24 -27 c13 -16 27 -47 31 -73z m-12316 -264 c14 -40 14 -43 -4 -57 -11 -8
-30 -14 -43 -14 -17 0 -23 -6 -23 -21 0 -11 -4 -18 -9 -14 -6 3 -36 -4 -67
-15 -32 -11 -59 -18 -61 -16 -7 7 120 150 135 152 9 2 20 10 25 19 14 25 31
13 47 -34z m12338 -165 c41 -44 79 -106 65 -106 -16 1 -103 70 -119 95 -16 24
-14 55 4 55 5 0 28 -20 50 -44z"/>
</g>
</svg>
