<?xml version="1.0" standalone="no"?>
<!DOCTYPE svg PUBLIC "-//W3C//DTD SVG 20010904//EN"
 "http://www.w3.org/TR/2001/REC-SVG-20010904/DTD/svg10.dtd">
<svg version="1.0" xmlns="http://www.w3.org/2000/svg"
 width="1230.000000pt" height="1536.000000pt" viewBox="0 0 1230.000000 1536.000000"
 preserveAspectRatio="xMidYMid meet">
<metadata>
Created by potrace 1.16, written by Peter Selinger 2001-2019
</metadata>
<g transform="translate(0.000000,1536.000000) scale(0.100000,-0.100000)"
fill="#000000" stroke="none">
<path d="M3432 15344 c-138 -20 -304 -64 -617 -164 -154 -49 -336 -105 -405
-126 -193 -56 -254 -94 -443 -272 -215 -201 -381 -281 -767 -367 -191 -43
-347 -89 -510 -150 -405 -151 -730 -358 -684 -433 42 -66 257 -125 869 -237
662 -121 892 -200 1050 -360 64 -65 119 -163 150 -270 27 -95 42 -123 94 -178
79 -85 86 -103 84 -247 -3 -360 -109 -903 -238 -1230 -58 -144 -93 -273 -122
-435 -14 -79 -17 -158 -18 -380 0 -313 5 -355 75 -620 22 -82 73 -287 114
-455 85 -345 172 -640 276 -940 106 -301 279 -814 359 -1065 142 -442 308
-809 421 -930 64 -68 142 -177 430 -605 284 -422 462 -670 643 -895 205 -255
381 -533 502 -790 119 -252 134 -346 77 -490 -58 -147 -198 -342 -407 -565
-197 -211 -350 -410 -415 -540 -70 -141 -145 -195 -292 -211 -151 -16 -219
-28 -298 -55 -139 -45 -196 -94 -133 -111 44 -12 1252 -8 1503 6 124 6 241 15
260 19 32 7 35 11 38 48 2 33 -3 48 -32 86 -38 50 -121 98 -168 98 -34 0 -95
24 -121 48 -54 49 -94 195 -84 307 11 112 94 297 222 491 92 140 184 238 290
309 101 67 148 118 315 340 169 226 235 285 319 285 139 0 1364 -531 1492
-647 21 -19 50 -59 65 -89 23 -47 26 -62 20 -111 -14 -123 -96 -242 -326 -476
-219 -224 -301 -288 -406 -316 -22 -6 -121 -20 -220 -31 -279 -32 -340 -56
-455 -177 -135 -142 -118 -172 106 -193 169 -17 1043 -25 1220 -11 180 13 219
23 262 66 43 43 44 92 3 197 -78 200 -55 389 62 512 38 39 50 46 83 46 33 0
45 -7 85 -48 25 -26 77 -102 115 -167 152 -265 224 -357 468 -595 303 -296
396 -420 832 -1110 493 -781 584 -883 871 -979 155 -52 273 -72 459 -78 347
-11 585 66 782 251 119 112 190 136 294 101 65 -22 111 -64 180 -165 89 -131
158 -191 250 -218 119 -35 176 -28 237 31 94 91 66 236 -130 682 -163 369
-233 658 -183 755 12 24 25 31 72 40 91 18 103 22 109 31 11 18 -322 762 -428
954 -39 72 -119 211 -178 310 -174 291 -311 580 -415 875 -157 443 -225 626
-295 795 -95 231 -166 437 -271 785 -102 337 -174 619 -188 739 -15 119 -37
213 -111 470 -80 280 -155 572 -245 961 -84 361 -146 601 -206 792 -54 175
-95 351 -119 515 -50 336 -104 550 -184 723 -30 63 -97 230 -150 372 -149 397
-287 700 -475 1036 -301 540 -624 959 -921 1194 -202 160 -469 318 -562 333
-64 10 -129 32 -262 87 -309 131 -422 214 -511 378 -171 312 -376 547 -815
935 -223 196 -533 501 -744 728 -220 239 -597 519 -915 681 -249 126 -430 158
-689 120z"/>
</g>
</svg>
