<?xml version="1.0" standalone="no"?>
<!DOCTYPE svg PUBLIC "-//W3C//DTD SVG 20010904//EN"
 "http://www.w3.org/TR/2001/REC-SVG-20010904/DTD/svg10.dtd">
<svg version="1.0" xmlns="http://www.w3.org/2000/svg"
 width="1536.000000pt" height="1363.000000pt" viewBox="0 0 1536.000000 1363.000000"
 preserveAspectRatio="xMidYMid meet">
<metadata>
Created by potrace 1.16, written by Peter Selinger 2001-2019
</metadata>
<g transform="translate(0.000000,1363.000000) scale(0.100000,-0.100000)"
fill="#000000" stroke="none">
<path d="M2695 13623 c-85 -8 -294 -45 -394 -69 -435 -107 -836 -298 -1201
-572 -75 -56 -183 -155 -310 -283 -209 -210 -273 -268 -445 -401 -137 -106
-283 -256 -314 -322 -24 -52 -39 -173 -27 -220 9 -36 33 -33 96 9 l52 35 261
0 260 0 176 -51 c243 -70 513 -162 656 -223 351 -151 638 -392 710 -596 55
-157 -29 -391 -290 -805 -104 -164 -188 -319 -332 -610 -118 -238 -149 -322
-228 -610 -136 -494 -145 -688 -55 -1148 60 -300 135 -522 296 -871 66 -143
387 -753 477 -906 27 -47 83 -146 124 -220 85 -153 250 -416 458 -730 237
-357 319 -458 465 -568 41 -31 120 -98 175 -149 55 -50 130 -114 166 -141 37
-27 123 -97 192 -155 227 -191 335 -265 829 -561 466 -280 774 -454 1013 -576
116 -59 217 -109 225 -112 10 -3 14 -16 12 -37 -3 -44 27 -82 130 -166 103
-82 140 -101 303 -155 72 -23 182 -65 245 -92 219 -95 253 -108 487 -184 206
-66 233 -77 217 -88 -11 -7 -307 -171 -659 -363 -352 -193 -683 -374 -735
-403 -60 -33 -102 -64 -115 -83 -25 -39 -113 -86 -411 -221 -536 -243 -923
-374 -1178 -397 -151 -14 -571 -5 -711 16 -314 47 -448 24 -658 -115 -114 -75
-160 -121 -155 -154 4 -27 35 -25 184 15 61 16 127 29 147 29 35 0 36 -1 26
-24 -16 -34 -4 -70 28 -85 14 -7 120 -19 235 -26 162 -11 254 -24 411 -55 233
-47 348 -61 435 -53 34 3 62 3 62 0 0 -3 -5 -17 -11 -31 -14 -29 -5 -71 15
-79 8 -3 47 6 88 20 l73 26 49 -31 c56 -36 100 -40 216 -21 104 16 324 74 472
124 303 101 395 150 556 297 145 132 256 173 457 166 l120 -4 98 -53 c102 -55
118 -58 222 -46 34 4 80 2 105 -4 24 -5 46 -8 48 -6 19 19 -79 156 -131 184
-15 8 -29 23 -33 33 -5 17 -85 82 -139 113 -14 9 0 24 97 102 223 179 358 267
616 400 92 47 249 133 349 189 100 57 289 157 420 223 131 66 281 148 333 183
112 75 213 171 260 251 37 61 47 65 103 42 19 -8 54 -19 77 -24 39 -9 45 -7
66 16 21 23 28 24 106 21 86 -3 108 3 108 28 0 10 12 14 38 14 20 0 71 6 112
14 41 8 77 13 81 11 10 -7 350 -35 422 -35 l67 0 0 30 0 30 88 1 c48 0 105 3
127 7 35 7 40 11 40 34 -1 25 2 26 74 32 41 4 83 12 94 18 14 7 298 35 390 38
4 0 7 11 7 24 0 14 5 28 10 31 6 4 70 11 142 16 72 6 140 15 150 20 10 5 18
21 18 34 0 29 12 36 104 60 59 15 70 22 80 47 9 24 33 39 136 89 134 65 156
81 202 147 l30 43 80 -3 80 -3 77 -215 c86 -239 107 -288 210 -506 46 -97 74
-169 77 -200 7 -58 -15 -168 -49 -252 -67 -168 -278 -397 -459 -500 -119 -68
-302 -109 -548 -122 -102 -5 -182 -15 -208 -24 -86 -31 -214 -125 -326 -239
-173 -178 -213 -240 -183 -281 14 -19 16 -19 88 16 41 20 103 50 139 67 36 16
83 45 105 64 l39 34 51 -23 c48 -22 66 -23 450 -33 485 -13 568 -6 765 64 136
49 223 101 319 192 132 124 166 181 266 458 23 64 70 111 119 120 58 11 83 -6
118 -81 30 -65 31 -69 25 -173 -3 -58 -14 -134 -23 -169 -14 -57 -15 -65 0
-86 21 -33 105 -56 204 -56 104 0 125 9 158 66 47 80 47 165 2 320 -21 73 -21
76 -4 163 16 87 16 89 -5 146 -19 51 -48 98 -157 256 -21 31 -59 128 -113 290
-45 134 -95 277 -111 317 -17 40 -28 78 -25 86 5 13 198 26 383 26 97 0 124
11 124 50 0 27 3 30 33 30 17 0 39 5 47 10 23 14 -19 51 -108 97 l-75 38 -211
0 c-172 0 -225 -4 -289 -19 -76 -19 -77 -19 -98 0 -98 88 -366 550 -336 580 2
3 42 -5 88 -18 70 -18 111 -22 244 -23 181 0 194 4 243 75 l27 39 127 1 c118
0 129 2 154 23 25 22 26 26 16 56 -13 38 -14 37 79 45 82 6 146 28 166 55 11
17 25 21 66 21 59 0 92 17 101 54 5 20 14 25 58 31 37 5 62 15 81 34 28 26 30
26 160 23 110 -3 140 -7 187 -27 71 -30 838 -292 909 -310 59 -16 85 -9 96 26
8 25 -24 76 -154 242 -51 65 -91 120 -89 121 9 9 316 -72 474 -125 172 -57
355 -99 433 -99 45 0 81 24 81 54 0 56 -177 274 -539 666 -322 347 -530 551
-866 851 -220 196 -1315 1267 -1347 1318 -10 15 -72 72 -139 127 -212 173
-321 265 -414 349 -248 224 -941 764 -1331 1038 -357 250 -763 507 -1079 682
-294 164 -664 332 -850 388 -27 8 -104 32 -170 52 -66 20 -313 86 -550 146
-700 177 -1300 339 -1710 461 -265 78 -374 133 -609 300 -361 260 -483 383
-644 653 -85 144 -200 379 -234 480 -15 44 -68 229 -118 410 -186 671 -210
743 -315 961 -78 161 -131 228 -346 439 -255 250 -479 425 -597 467 -84 29
-271 65 -402 77 -109 10 -317 12 -405 4z"/>
</g>
</svg>
