<?xml version="1.0" standalone="no"?>
<!DOCTYPE svg PUBLIC "-//W3C//DTD SVG 20010904//EN"
 "http://www.w3.org/TR/2001/REC-SVG-20010904/DTD/svg10.dtd">
<svg version="1.0" xmlns="http://www.w3.org/2000/svg"
 width="1125.000000pt" height="1536.000000pt" viewBox="0 0 1125.000000 1536.000000"
 preserveAspectRatio="xMidYMid meet">
<metadata>
Created by potrace 1.16, written by Peter Selinger 2001-2019
</metadata>
<g transform="translate(0.000000,1536.000000) scale(0.100000,-0.100000)"
fill="#000000" stroke="none">
<path d="M2999 15356 c-2 -3 -34 -7 -69 -10 -115 -9 -153 -17 -240 -48 -87
-32 -119 -48 -155 -79 -11 -9 -38 -20 -61 -24 -33 -5 -41 -3 -41 9 0 9 5 16
10 16 6 0 7 3 3 7 -3 4 4 13 16 21 21 12 19 13 -21 7 -45 -6 -101 -34 -183
-93 -45 -31 -48 -32 -48 -13 0 12 -6 21 -15 21 -21 0 -129 -60 -168 -92 -17
-16 -41 -28 -52 -27 -19 0 -18 1 3 11 24 12 28 23 11 33 -14 9 -85 -41 -116
-82 -24 -31 -53 -44 -53 -24 0 5 -7 11 -15 15 -14 5 -51 -28 -90 -80 -12 -16
-17 -17 -35 -6 -28 17 -51 2 -111 -67 -35 -41 -47 -49 -68 -45 -21 4 -31 -2
-51 -32 -13 -20 -36 -41 -50 -47 -14 -6 -40 -25 -59 -41 -23 -21 -32 -25 -28
-13 4 10 -8 3 -30 -17 l-36 -36 -151 7 c-498 20 -916 -148 -1065 -427 -27 -50
-39 -90 -28 -90 2 0 19 7 37 16 59 30 196 30 355 0 162 -29 313 -46 426 -46
44 0 87 -4 97 -10 24 -14 75 -34 88 -35 6 0 19 -7 29 -15 9 -8 29 -16 44 -18
14 -2 34 -10 43 -19 10 -9 18 -13 18 -8 0 8 80 -61 130 -112 14 -13 41 -39 60
-56 19 -18 55 -51 79 -74 24 -24 47 -43 50 -43 4 0 26 -18 49 -41 23 -22 47
-37 52 -34 6 4 18 -8 28 -25 9 -18 34 -50 55 -72 20 -22 49 -61 64 -86 14 -26
34 -56 43 -67 26 -31 72 -116 67 -122 -3 -3 1 -22 8 -43 9 -24 11 -60 8 -100
-6 -59 -5 -62 14 -56 29 9 29 6 67 -377 3 -29 1 -45 -4 -42 -6 4 -10 -39 -10
-112 0 -79 -4 -123 -12 -131 -9 -9 -9 -12 1 -12 10 0 9 -6 -3 -25 -9 -14 -21
-62 -27 -108 -5 -45 -21 -154 -33 -242 -13 -88 -24 -167 -24 -175 0 -21 -20
-211 -30 -290 -5 -36 -5 -66 0 -68 4 -2 8 -8 8 -13 0 -6 -4 -7 -10 -4 -5 3
-10 0 -10 -9 0 -8 6 -16 13 -19 9 -3 9 -7 0 -18 -19 -24 -28 -96 -13 -114 9
-11 10 -18 1 -29 -8 -10 -9 -26 -2 -55 5 -24 5 -41 0 -41 -15 0 -10 -22 9 -37
16 -14 16 -14 -3 -9 -19 6 -19 5 -2 -8 14 -11 16 -23 12 -62 -11 -95 -14 -184
-7 -184 5 0 9 -26 9 -57 3 -115 14 -258 23 -278 4 -11 13 -47 20 -80 7 -33 16
-64 20 -70 4 -5 16 -36 26 -67 10 -32 21 -58 25 -58 8 0 20 -40 25 -85 4 -27
8 -41 30 -100 4 -11 9 -28 11 -38 7 -38 174 -387 185 -387 4 0 8 -5 8 -10 0
-6 11 -28 24 -49 14 -21 22 -42 19 -45 -4 -3 -2 -6 4 -6 6 0 13 -8 17 -17 3
-10 15 -31 25 -48 11 -16 27 -44 36 -62 9 -17 25 -39 36 -49 10 -9 19 -21 19
-26 0 -5 13 -23 30 -41 16 -18 30 -38 30 -45 0 -7 7 -15 15 -18 8 -4 15 -12
15 -19 0 -7 6 -15 14 -18 7 -3 22 -23 33 -44 12 -22 37 -57 57 -79 20 -21 36
-42 36 -46 0 -4 16 -23 37 -43 20 -19 32 -35 28 -35 -5 0 4 -14 20 -30 16 -16
34 -30 40 -30 6 0 18 -12 28 -27 15 -26 34 -48 108 -130 16 -18 29 -35 29 -38
0 -10 38 -43 44 -38 3 3 10 -5 15 -18 5 -13 95 -109 200 -213 105 -105 191
-190 191 -191 0 -1 20 -24 45 -51 25 -27 45 -52 45 -56 0 -5 5 -8 10 -8 13 0
50 -37 50 -50 0 -5 7 -10 15 -10 8 0 15 -4 15 -9 0 -15 74 -81 98 -87 12 -4
22 -9 22 -13 0 -4 12 -14 28 -21 15 -8 37 -23 49 -33 22 -19 22 -19 17 4 -10
47 24 -10 46 -77 12 -35 30 -74 41 -88 10 -13 19 -27 19 -31 0 -13 73 -125 81
-125 4 0 10 -8 13 -18 3 -9 16 -22 28 -27 13 -6 31 -28 42 -50 10 -22 36 -52
57 -67 22 -15 39 -35 39 -43 0 -8 5 -14 12 -13 15 4 60 -62 55 -81 -1 -9 4
-22 13 -29 13 -11 13 -12 0 -6 -8 4 0 -7 18 -25 17 -18 32 -41 32 -51 0 -10 5
-22 10 -25 6 -3 10 -13 10 -21 0 -9 14 -27 30 -41 17 -13 30 -31 30 -39 0 -9
5 -12 10 -9 6 3 10 3 10 -2 0 -4 33 -43 73 -86 39 -42 83 -91 97 -109 27 -35
59 -115 65 -164 1 -17 8 -48 14 -70 10 -36 8 -45 -35 -134 -25 -52 -55 -108
-67 -125 -12 -16 -35 -55 -52 -86 -89 -167 -155 -285 -214 -382 -36 -59 -74
-122 -83 -140 -9 -17 -21 -36 -25 -42 -14 -17 -139 -229 -146 -246 -8 -24
-152 -253 -206 -329 -65 -93 -108 -137 -167 -176 -29 -18 -57 -42 -63 -52 -6
-11 -29 -27 -52 -36 -41 -17 -65 -33 -133 -89 -19 -15 -53 -34 -76 -42 -24 -8
-64 -28 -89 -43 -25 -15 -68 -38 -96 -50 -104 -48 -103 -46 -125 -102 -5 -14
-14 -32 -19 -40 -52 -82 -90 -210 -63 -210 5 0 62 32 128 71 65 40 148 85 184
101 36 16 74 33 85 39 50 24 136 40 207 39 42 -1 87 4 99 10 18 10 24 9 31 -4
5 -9 17 -16 27 -16 10 0 29 -13 43 -29 15 -16 30 -30 35 -32 4 -2 15 -20 25
-40 10 -22 29 -42 51 -52 22 -11 37 -26 41 -42 4 -14 17 -30 29 -36 37 -18 64
-93 72 -199 4 -52 10 -99 14 -105 3 -5 7 -39 7 -75 1 -72 26 -145 55 -160 26
-14 55 -12 73 5 8 8 17 15 20 15 10 0 6 -53 -9 -115 -8 -32 -13 -61 -11 -63 2
-2 21 12 41 30 76 66 84 141 29 281 -33 86 -35 98 -31 177 3 61 0 91 -10 106
-8 12 -15 53 -16 94 -2 70 -3 74 -34 94 -18 12 -38 33 -44 49 -6 15 -15 27
-20 27 -11 0 -43 49 -36 56 3 3 19 -2 36 -10 16 -9 45 -16 64 -16 19 0 46 -9
60 -20 14 -11 34 -20 45 -20 11 0 39 -20 64 -45 51 -54 102 -68 143 -41 26 17
32 45 15 77 -9 17 -7 19 18 19 50 0 100 -28 127 -70 32 -51 48 -52 39 -2 -14
78 -67 137 -147 163 -23 7 -52 23 -64 36 -12 13 -33 23 -46 23 -13 0 -36 9
-50 20 -14 11 -36 20 -49 20 -13 0 -28 4 -33 9 -21 21 -126 71 -149 71 -13 0
-29 7 -36 15 -7 8 -30 20 -51 25 l-39 11 30 80 c16 44 41 102 56 127 15 26 53
97 84 157 108 213 484 857 532 911 10 11 18 24 18 29 0 10 93 146 146 215 19
25 52 81 74 126 21 44 53 98 71 120 69 87 93 161 80 246 -6 34 -8 64 -6 67 8
8 53 -40 65 -70 7 -16 18 -29 24 -29 14 0 66 -78 66 -99 0 -8 3 -11 7 -7 4 3
13 -4 20 -16 7 -13 12 -17 13 -10 0 15 35 -3 63 -33 11 -11 24 -19 31 -17 7 1
21 -7 31 -18 10 -11 25 -20 34 -20 16 0 88 -34 104 -50 5 -4 -6 -34 -22 -67
-17 -33 -31 -63 -31 -67 0 -3 -34 -79 -76 -169 -41 -89 -89 -195 -106 -236
-47 -111 -266 -543 -289 -567 -10 -11 -19 -25 -19 -32 0 -6 -27 -39 -60 -74
-33 -34 -60 -67 -61 -72 -1 -22 -96 -130 -129 -148 -19 -11 -47 -32 -61 -48
-15 -15 -36 -31 -46 -34 -32 -10 -77 -61 -97 -111 -10 -25 -16 -49 -12 -52 3
-4 84 17 179 45 201 61 274 76 339 70 40 -4 54 -12 96 -54 62 -62 85 -108 113
-220 26 -103 50 -134 103 -134 25 0 40 7 55 26 12 15 21 33 21 40 0 8 4 14 10
14 11 0 30 -64 30 -102 0 -16 4 -28 8 -28 16 0 32 50 32 96 0 52 -9 72 -57
132 -19 23 -31 42 -27 42 4 0 -4 12 -18 28 -36 37 -99 147 -110 191 -23 90
-24 85 8 76 16 -4 56 -11 89 -16 168 -24 198 -45 267 -186 44 -90 53 -118 56
-173 4 -87 8 -102 32 -128 27 -28 78 -29 114 -1 14 11 26 29 26 40 0 13 7 19
23 19 51 0 97 -62 97 -132 l1 -33 19 24 c27 31 25 75 -4 138 -20 41 -33 56
-62 68 -72 30 -136 122 -138 198 0 26 -8 53 -18 63 -9 11 -28 45 -43 77 -18
41 -37 65 -61 79 -19 11 -34 24 -34 29 0 5 -19 19 -41 31 -23 13 -52 29 -65
36 -13 7 -24 17 -24 22 0 5 -17 12 -37 15 -21 4 -69 13 -108 22 -38 8 -80 17
-92 19 -20 4 -23 11 -23 47 0 23 12 74 26 112 14 39 32 91 40 118 7 26 24 69
38 95 13 26 41 88 61 137 66 160 146 339 170 380 12 22 44 87 70 145 26 58 52
110 56 116 6 7 32 -11 79 -57 39 -37 80 -71 93 -75 12 -3 30 -14 41 -23 10 -9
20 -15 22 -13 2 1 5 2 7 1 1 -1 13 -2 27 -3 29 -1 52 -14 46 -25 -3 -4 1 -8 9
-8 11 0 12 4 4 13 -16 20 94 13 118 -7 10 -9 24 -14 31 -12 7 3 22 -3 33 -13
18 -16 19 -16 13 -1 -4 13 -1 17 14 17 12 0 24 -5 27 -10 4 -6 15 -8 26 -5 14
5 27 -2 45 -24 26 -32 84 -50 107 -34 11 7 32 9 47 3 26 -10 40 -7 36 8 -17
57 -17 69 0 76 9 3 22 2 28 -3 13 -11 15 27 2 48 -4 7 -6 15 -3 18 18 17 59
-128 87 -307 4 -25 25 -115 48 -200 23 -85 49 -198 57 -250 9 -52 36 -158 60
-235 45 -145 52 -172 86 -315 10 -47 33 -143 50 -215 17 -71 52 -195 79 -275
26 -80 75 -228 108 -330 59 -180 133 -384 246 -680 31 -80 90 -213 131 -297
66 -133 82 -158 130 -199 39 -33 58 -57 65 -84 33 -123 192 -462 356 -760 53
-96 128 -236 167 -310 95 -183 137 -255 192 -328 71 -95 230 -257 321 -328 69
-54 87 -74 112 -127 16 -34 39 -72 51 -84 11 -12 21 -26 21 -32 0 -5 4 -11 10
-13 5 -1 38 -44 72 -95 136 -199 280 -351 373 -397 33 -16 91 -47 129 -69 38
-22 96 -50 129 -63 63 -25 100 -51 92 -65 -10 -15 57 -52 97 -54 22 -1 44 -9
49 -16 7 -12 9 -11 9 1 1 11 6 8 20 -9 11 -13 20 -18 20 -11 0 8 7 10 18 5 28
-11 82 -14 82 -4 0 5 7 9 15 9 8 0 15 -6 15 -12 0 -9 3 -9 9 1 5 8 16 11 24 8
9 -3 18 1 21 9 3 8 10 14 15 14 13 0 118 -66 126 -80 3 -5 17 -10 30 -10 13 0
26 -4 29 -9 20 -32 221 -27 273 6 15 10 37 12 80 8 69 -8 150 11 237 55 32 16
65 30 73 30 27 0 149 79 186 119 78 86 117 213 117 379 0 75 4 110 14 121 15
18 56 148 56 179 0 11 -6 35 -13 53 -10 24 -13 71 -11 159 3 93 -1 155 -17
245 -11 66 -22 131 -24 145 -2 14 -5 27 -6 30 -1 3 -3 10 -4 15 -2 6 -4 12 -5
15 -1 3 -4 16 -6 30 -2 13 -9 27 -15 30 -5 4 -7 14 -4 22 4 9 2 19 -4 23 -6 3
-11 15 -11 25 0 11 -15 66 -34 122 -19 57 -36 110 -38 118 -2 8 -7 18 -11 21
-5 4 -33 74 -61 156 -64 181 -252 569 -280 576 -13 4 -17 12 -13 27 6 22 -16
74 -26 63 -4 -3 -7 -1 -7 5 0 7 -6 12 -14 12 -8 0 -17 7 -20 16 -9 22 -8 24
10 24 9 0 14 6 12 12 -3 7 -15 13 -28 13 -13 0 -25 6 -27 13 -3 6 0 12 6 12 6
0 11 7 11 15 0 9 -6 12 -16 8 -12 -4 -15 1 -12 23 2 20 -1 29 -12 29 -9 0 -15
10 -15 24 0 15 -8 27 -21 32 -16 5 -20 14 -17 31 3 16 -6 34 -31 62 -20 21
-36 44 -36 50 0 20 -61 96 -76 96 -8 0 -14 9 -14 20 0 11 -7 20 -15 20 -8 0
-15 6 -15 13 0 7 -20 33 -44 58 -24 26 -52 61 -62 80 -18 33 -20 39 -23 67 0
6 -8 12 -16 12 -8 0 -14 3 -13 8 3 12 -24 62 -34 62 -4 0 -8 7 -8 15 0 8 -4
15 -8 15 -4 0 -13 12 -20 28 -23 50 -37 72 -44 72 -5 0 -8 5 -8 11 0 7 -16 34
-35 60 -19 27 -35 53 -35 58 0 5 -4 11 -8 13 -4 2 -29 40 -55 85 -27 45 -61
96 -77 115 -17 18 -32 41 -36 51 -3 9 -9 17 -13 17 -5 0 -14 14 -21 30 -7 17
-16 30 -21 30 -5 0 -9 5 -9 10 0 6 -5 16 -10 23 -6 7 -34 48 -63 92 -100 152
-190 280 -224 320 -48 56 -49 58 -72 104 -12 22 -26 41 -31 41 -6 0 -10 7 -10
15 0 8 -4 15 -10 15 -5 0 -10 5 -10 10 0 6 -33 53 -72 106 -40 53 -82 111 -93
128 -10 17 -24 36 -30 42 -5 6 -18 22 -27 35 -95 133 -144 198 -166 218 -15
13 -20 20 -12 16 8 -3 6 1 -4 9 -11 9 -16 16 -10 16 5 0 4 4 -1 8 -28 19 -265
356 -265 375 0 6 -17 33 -38 61 -21 28 -48 67 -59 86 -12 19 -40 53 -63 75
-22 22 -61 70 -86 108 -25 37 -51 73 -58 80 -7 6 -30 37 -51 67 -21 30 -66 93
-99 140 -68 97 -166 278 -166 307 0 11 -3 23 -7 27 -4 3 -8 12 -9 19 -51 297
-69 377 -110 486 -14 36 -27 73 -29 81 -14 61 -120 362 -140 398 -29 52 -29
52 -12 52 17 0 97 58 117 85 8 11 26 45 39 75 39 87 32 248 -15 373 -8 20 -14
56 -14 79 0 22 -6 46 -13 52 -7 6 -21 38 -31 71 -20 67 -144 338 -158 343 -4
2 -6 8 -3 13 4 5 -7 28 -23 51 -16 24 -50 84 -76 133 -44 86 -147 252 -164
264 -10 8 -53 62 -72 91 -8 13 -38 51 -65 84 -71 86 -135 173 -135 186 0 5 -4
10 -9 10 -5 0 -14 12 -20 28 -6 15 -34 49 -61 76 -27 26 -59 63 -72 82 -13 19
-28 34 -35 34 -6 0 -15 9 -18 20 -3 11 -10 20 -15 20 -11 0 -69 58 -64 63 3 2
-14 21 -36 41 -22 20 -38 36 -34 36 6 0 -299 342 -357 399 -159 158 -264 252
-284 257 -14 3 -25 10 -25 15 0 5 -4 9 -10 9 -9 0 -56 33 -133 93 -28 21 -61
72 -62 92 0 14 -67 105 -77 105 -4 0 -8 6 -8 13 0 6 -39 53 -87 102 -47 50
-85 93 -85 97 1 4 -22 26 -51 49 -28 22 -63 52 -77 65 -152 149 -248 234 -262
234 -4 0 -8 6 -8 13 0 8 -17 22 -37 33 -20 10 -48 31 -63 46 -15 15 -30 25
-33 21 -4 -3 -7 -1 -7 5 0 7 -9 12 -20 12 -10 0 -23 6 -27 14 -4 7 -25 19 -45
25 -21 7 -38 16 -38 20 0 4 -24 15 -52 25 -29 11 -62 27 -74 37 -11 11 -25 19
-32 19 -6 0 -37 26 -69 58 -32 31 -87 82 -122 112 -35 30 -75 67 -89 83 -14
15 -29 27 -34 27 -12 0 -73 45 -115 84 -18 16 -33 26 -33 22 0 -5 -12 4 -27
19 -16 15 -47 36 -70 47 -24 11 -43 24 -43 29 0 5 -7 5 -17 2 -10 -4 -14 -2
-10 4 4 6 -8 17 -26 24 -66 27 -139 88 -198 164 -33 43 -78 99 -99 124 -44 51
-54 78 -15 41 33 -31 32 -18 -4 33 -16 23 -35 60 -41 82 -17 56 -40 102 -72
144 -15 20 -31 41 -35 46 -5 6 -17 21 -28 34 -19 22 -19 23 -1 37 21 15 18 21
-65 131 -18 24 -29 46 -24 50 4 5 10 2 12 -4 8 -23 23 -13 23 15 0 15 -11 44
-25 64 -14 21 -30 49 -35 64 -9 22 -8 25 5 20 8 -3 15 -2 15 2 0 17 -43 118
-61 143 -11 15 -26 45 -35 66 -15 38 -15 38 5 16 18 -22 19 -22 24 -3 3 10 -6
39 -19 62 -14 24 -32 59 -40 78 -9 19 -27 50 -41 68 -28 38 -25 49 9 32 19
-10 21 -10 11 1 -7 7 -13 19 -13 27 0 8 -11 27 -25 44 -14 16 -25 37 -25 47 0
9 -18 34 -40 56 -46 46 -55 73 -10 30 17 -16 30 -25 30 -21 0 5 6 4 13 -2 10
-9 12 -4 9 24 -4 29 -19 48 -88 112 -47 42 -91 87 -99 99 -15 22 -15 22 12 12
15 -6 43 -20 61 -31 28 -17 36 -18 43 -7 5 8 3 20 -5 29 -7 8 -16 23 -19 33
-4 9 -11 17 -17 17 -5 0 -16 15 -24 34 -10 24 -29 42 -58 58 -39 21 -41 23
-18 26 14 1 50 -6 80 -17 30 -11 58 -17 63 -14 5 3 -7 19 -26 37 -19 17 -44
50 -56 74 l-21 42 56 0 57 0 -19 21 c-10 12 -31 27 -46 35 -16 8 -28 21 -28
29 0 12 17 9 81 -15 45 -16 86 -27 91 -24 4 3 -3 19 -17 36 -14 16 -25 34 -25
39 0 9 34 4 78 -12 47 -18 53 -12 30 29 -12 20 -27 40 -33 44 -20 15 4 8 71
-21 38 -16 89 -32 113 -36 42 -7 43 -6 36 16 -4 13 -18 35 -31 50 -13 14 -24
29 -24 33 0 5 28 5 63 2 90 -10 108 -9 120 3 14 14 0 41 -29 56 -47 25 -48 27
-14 41 18 8 37 11 43 7 6 -3 7 -1 3 5 -5 8 0 12 13 12 12 0 21 5 21 11 0 6 7
9 15 5 12 -4 15 3 15 32 0 56 -37 86 -166 133 -59 21 -109 39 -111 39 -2 0 -3
3 -3 8 0 4 23 8 51 9 57 3 119 20 119 33 0 18 -33 40 -83 56 -69 21 -306 30
-419 15 -72 -10 -89 -9 -114 4 -16 8 -24 15 -19 15 13 0 -17 20 -31 20 -6 0
-13 -2 -15 -4z"/>
<path d="M6440 6172 c0 -12 19 -26 26 -19 2 2 -2 10 -11 17 -9 8 -15 8 -15 2z"/>
<path d="M4607 4200 c-21 -4 -54 -20 -75 -37 -46 -37 -50 -72 -27 -224 20
-138 51 -201 124 -251 35 -25 66 -38 86 -38 45 0 49 10 12 30 -17 9 -44 35
-60 56 -50 71 -63 234 -18 234 40 0 56 36 61 141 l5 99 -35 -1 c-19 -1 -52 -5
-73 -9z"/>
<path d="M3159 3392 c-24 -16 -65 -53 -90 -83 l-46 -54 24 -45 c51 -95 135
-150 231 -150 28 0 52 3 52 6 0 11 -45 43 -61 44 -43 1 -100 77 -114 153 -6
33 -5 37 13 37 38 0 67 71 44 107 -6 10 -19 6 -53 -15z"/>
</g>
</svg>
