<?xml version="1.0" standalone="no"?>
<!DOCTYPE svg PUBLIC "-//W3C//DTD SVG 20010904//EN"
 "http://www.w3.org/TR/2001/REC-SVG-20010904/DTD/svg10.dtd">
<svg version="1.0" xmlns="http://www.w3.org/2000/svg"
 width="1536.000000pt" height="1171.000000pt" viewBox="0 0 1536.000000 1171.000000"
 preserveAspectRatio="xMidYMid meet">
<metadata>
Created by potrace 1.16, written by Peter Selinger 2001-2019
</metadata>
<g transform="translate(0.000000,1171.000000) scale(0.100000,-0.100000)"
fill="#000000" stroke="none">
<path d="M7380 11700 c-146 -25 -408 -107 -597 -188 -76 -33 -205 -85 -288
-117 -82 -32 -190 -73 -240 -92 -123 -48 -135 -56 -135 -96 0 -33 -1 -34 -102
-71 -159 -59 -382 -154 -498 -214 -146 -74 -291 -173 -557 -378 -328 -254
-371 -291 -646 -563 -224 -222 -252 -253 -283 -317 -19 -39 -34 -78 -34 -86 0
-8 13 -27 28 -41 25 -24 32 -26 56 -17 15 5 30 10 32 10 3 0 -27 -35 -66 -78
-39 -43 -86 -100 -104 -127 -31 -45 -43 -53 -192 -122 -270 -127 -563 -257
-699 -312 -71 -29 -181 -77 -243 -108 -251 -122 -694 -454 -808 -606 -48 -65
-52 -88 -15 -97 22 -5 18 -13 -84 -165 -144 -215 -212 -338 -246 -445 -34
-106 -37 -150 -11 -150 10 0 74 50 142 111 120 107 210 182 294 245 37 27 39
28 27 5 -7 -13 -36 -60 -65 -105 -173 -268 -271 -497 -376 -876 -87 -318 -108
-442 -95 -574 8 -91 30 -121 81 -113 l31 5 6 -196 c4 -156 9 -210 25 -262 14
-45 22 -108 26 -206 5 -140 13 -180 83 -432 l18 -63 -33 -127 c-17 -70 -68
-264 -112 -432 -168 -640 -242 -1059 -266 -1511 l-7 -126 -186 -141 c-102 -77
-262 -199 -356 -271 -93 -72 -250 -191 -349 -263 -315 -231 -536 -423 -536
-465 0 -22 47 -34 157 -40 99 -6 102 -7 97 -28 -13 -52 68 -62 241 -30 69 13
90 14 93 5 10 -30 43 -49 97 -55 56 -7 71 -6 195 15 201 34 542 195 919 433
177 111 606 375 741 455 90 53 166 92 179 92 6 0 21 -16 34 -35 14 -20 55 -62
93 -95 74 -64 179 -110 252 -110 36 0 48 -8 141 -94 72 -67 117 -100 149 -111
91 -32 128 -53 207 -120 97 -81 115 -90 184 -99 65 -8 129 -40 196 -95 28 -23
75 -50 105 -61 89 -33 99 -41 130 -104 55 -111 64 -181 65 -481 0 -148 4 -276
8 -282 6 -9 40 -13 112 -13 81 0 107 -3 119 -16 58 -57 183 -291 192 -358 5
-34 14 -53 35 -70 27 -23 28 -26 22 -95 -6 -68 -5 -71 15 -71 43 0 99 125 107
235 1 22 8 69 14 105 7 35 9 82 6 105 -10 60 -55 226 -70 255 -7 14 -55 73
-107 132 -92 105 -94 108 -151 257 -53 139 -58 159 -68 278 -14 164 -8 258 17
279 36 29 127 65 391 154 251 86 406 127 623 165 52 10 122 26 154 38 72 24
70 25 116 -100 33 -93 55 -203 66 -335 7 -85 6 -88 -21 -120 -26 -30 -27 -37
-23 -103 4 -46 21 -116 51 -205 25 -74 50 -162 57 -194 11 -54 18 -65 95 -143
63 -64 89 -84 106 -81 44 6 43 29 -5 112 -57 102 -63 135 -37 228 11 40 23
101 27 135 5 48 17 80 49 135 51 87 195 230 261 259 72 32 84 87 25 122 -22
13 -52 17 -119 17 l-90 0 -36 42 c-79 92 -106 184 -105 363 0 152 11 192 57
220 255 154 578 527 1044 1200 396 574 739 1092 895 1355 284 479 281 473 387
727 89 213 138 368 171 550 45 241 32 576 -28 778 l-24 80 31 8 c17 5 166 7
331 5 l300 -3 180 -136 c99 -74 220 -166 269 -203 49 -37 143 -104 210 -149
150 -100 329 -229 506 -362 363 -274 741 -531 1045 -710 429 -253 613 -352
781 -420 126 -51 155 -54 204 -21 22 14 44 26 50 26 19 0 31 51 20 85 -23 70
-274 421 -565 791 -294 373 -621 781 -726 905 -329 388 -624 735 -803 944
-215 250 -502 565 -515 565 -12 0 -34 57 -27 68 3 6 22 99 42 208 75 414 54
820 -62 1169 -41 124 -88 224 -107 226 -6 1 -18 2 -26 3 -8 0 -29 26 -46 56
-17 30 -71 125 -120 210 -114 201 -159 266 -284 405 -78 87 -112 117 -138 124
-26 7 -80 53 -197 168 -256 252 -464 409 -539 406 -23 -1 -70 10 -115 29 -279
111 -517 178 -633 178 -42 0 -96 7 -119 15 -45 16 -106 18 -180 5z"/>
<path d="M15115 101 c13 -13 236 -104 241 -98 3 2 -30 19 -73 36 -129 55 -178
73 -168 62z"/>
</g>
</svg>
