<?xml version="1.0" standalone="no"?>
<!DOCTYPE svg PUBLIC "-//W3C//DTD SVG 20010904//EN"
 "http://www.w3.org/TR/2001/REC-SVG-20010904/DTD/svg10.dtd">
<svg version="1.0" xmlns="http://www.w3.org/2000/svg"
 width="759.000000pt" height="1536.000000pt" viewBox="0 0 759.000000 1536.000000"
 preserveAspectRatio="xMidYMid meet">
<metadata>
Created by potrace 1.16, written by Peter Selinger 2001-2019
</metadata>
<g transform="translate(0.000000,1536.000000) scale(0.100000,-0.100000)"
fill="#000000" stroke="none">
<path d="M2150 15306 c0 -41 9 -73 36 -132 149 -322 193 -402 370 -673 97
-148 144 -240 144 -283 0 -4 -14 -8 -31 -8 -26 0 -46 17 -136 110 -177 185
-542 514 -742 668 -79 61 -99 72 -132 72 l-39 0 0 -42 c0 -68 74 -206 171
-318 152 -176 439 -531 439 -543 -1 -52 -62 -45 -149 16 -369 260 -558 382
-792 512 -126 71 -149 80 -172 72 -15 -5 -27 -13 -27 -18 0 -20 60 -126 106
-189 50 -68 250 -273 466 -476 113 -107 126 -122 121 -147 -3 -15 -9 -27 -14
-27 -5 0 -105 44 -221 99 -264 122 -283 130 -443 186 -157 56 -217 71 -301 80
l-64 7 0 -28 c0 -22 9 -35 34 -52 19 -13 83 -68 142 -123 60 -55 150 -127 199
-161 50 -33 137 -95 195 -138 58 -42 153 -111 211 -153 136 -97 140 -107 50
-107 -57 0 -82 6 -160 40 -135 59 -264 102 -553 185 -282 82 -416 106 -466 86
-28 -12 -30 -15 -20 -43 6 -16 16 -31 22 -33 6 -2 30 -9 54 -15 36 -9 42 -14
42 -38 0 -23 15 -36 103 -94 108 -70 297 -178 435 -247 75 -38 102 -64 102
-98 0 -12 -132 10 -290 47 -151 36 -364 78 -483 95 -32 5 -52 3 -62 -5 -30
-25 -16 -56 66 -149 l81 -91 61 0 c99 0 101 -7 23 -96 -37 -42 -77 -96 -88
-119 l-20 -41 50 -100 c27 -54 53 -113 56 -131 8 -35 -8 -76 -43 -107 -17 -16
-21 -31 -21 -83 0 -60 3 -68 49 -136 97 -144 98 -154 26 -242 -68 -84 -65
-105 39 -260 l83 -125 -42 -81 c-41 -79 -42 -83 -31 -127 12 -46 12 -46 -24
-82 -20 -20 -49 -66 -64 -102 l-28 -66 71 -127 c39 -70 71 -129 71 -132 0 -2
-18 -28 -40 -57 -34 -47 -41 -65 -52 -141 l-12 -88 24 -16 c76 -49 139 -128
124 -154 -4 -7 -25 -35 -46 -63 -31 -41 -38 -59 -38 -95 0 -67 53 -128 145
-165 l70 -29 3 -94 3 -93 49 -64 c42 -56 47 -69 40 -93 -11 -40 -29 -71 -40
-71 -6 0 -10 -34 -10 -78 l0 -78 61 -53 61 -54 -7 -109 -7 -108 42 -55 43 -55
-7 -76 -7 -76 48 -57 c27 -31 53 -63 59 -71 9 -11 8 -37 -1 -100 -9 -60 -9
-90 -2 -102 10 -15 72 -52 202 -119 67 -35 69 -55 10 -112 l-47 -45 16 -56
c18 -61 12 -57 126 -77 74 -12 133 -35 128 -48 -1 -5 -34 -33 -73 -63 -65 -50
-70 -57 -73 -96 -3 -37 2 -48 33 -85 20 -23 50 -71 68 -106 25 -51 38 -67 67
-78 50 -21 150 -94 191 -140 40 -44 96 -170 105 -235 4 -29 1 -56 -9 -81 -14
-32 -20 -37 -49 -37 -49 0 -203 23 -598 89 -392 66 -542 86 -564 78 -8 -3 -24
-24 -36 -47 -19 -37 -20 -45 -8 -106 l12 -66 -98 -92 -98 -91 11 -125 c7 -69
14 -140 17 -157 5 -31 1 -35 -51 -68 -46 -30 -55 -40 -55 -65 0 -23 -8 -33
-42 -52 l-43 -23 -5 -75 c-5 -65 -11 -85 -48 -149 l-43 -74 21 -22 c11 -12 20
-24 20 -27 0 -3 -23 -23 -50 -44 -44 -34 -50 -42 -50 -76 0 -35 4 -41 55 -74
48 -32 55 -41 55 -69 0 -27 -11 -43 -67 -96 -62 -57 -72 -72 -105 -158 -42
-106 -44 -89 27 -181 19 -25 35 -52 35 -60 1 -31 20 -43 80 -51 51 -7 72 -17
119 -54 54 -41 61 -43 88 -33 23 9 51 8 118 -3 87 -14 89 -14 100 -48 13 -39
26 -45 115 -55 35 -4 127 -28 205 -54 133 -43 147 -46 275 -50 l135 -4 67 -49
c61 -44 73 -49 122 -49 52 0 58 3 118 54 47 39 68 52 79 45 12 -6 32 9 79 56
47 47 72 65 91 65 21 0 30 8 44 41 16 34 30 46 88 75 38 19 88 53 111 75 40
36 47 39 102 39 l59 0 33 -51 c34 -51 34 -51 22 -113 -12 -57 -11 -65 13 -121
l25 -60 -39 -71 -39 -71 55 -79 c30 -43 55 -85 55 -93 0 -8 -14 -39 -31 -69
l-30 -54 45 -47 c24 -27 53 -66 65 -88 17 -35 18 -45 8 -78 -10 -34 -9 -39 12
-56 l23 -19 -14 -102 -15 -103 53 -56 54 -56 0 -91 0 -92 101 -51 101 -50 -6
-42 c-17 -132 -18 -193 -1 -233 16 -42 16 -42 -14 -103 -29 -57 -30 -63 -19
-110 l11 -49 75 -28 74 -27 -6 -71 c-4 -54 -2 -81 12 -115 15 -38 24 -46 76
-67 33 -13 70 -34 83 -46 26 -24 43 -75 43 -128 1 -62 35 -88 150 -114 55 -12
102 -25 105 -28 3 -3 15 -38 26 -79 18 -64 27 -81 76 -131 l56 -57 -6 -104
c-9 -145 5 -187 73 -216 56 -24 54 -18 70 -176 l10 -110 91 -88 91 -88 -7
-102 c-7 -102 -7 -102 28 -178 45 -100 68 -110 158 -71 l61 26 19 -23 c26 -32
28 -234 3 -270 -19 -27 -21 -117 -4 -180 10 -39 13 -41 50 -41 30 0 40 4 45
21 12 35 299 411 353 461 81 75 97 64 80 -53 -9 -70 -30 -144 -77 -271 -12
-32 -21 -74 -21 -94 0 -25 -9 -48 -30 -74 -24 -31 -30 -47 -30 -88 0 -39 -4
-52 -21 -63 -17 -12 -23 -34 -36 -131 -8 -64 -12 -133 -9 -153 8 -43 70 -117
92 -108 18 7 40 48 65 122 13 37 31 65 54 84 20 16 42 44 50 64 8 19 66 116
128 216 63 100 131 214 152 252 126 231 315 515 344 515 19 0 -19 -179 -90
-427 -32 -114 -87 -334 -120 -488 -60 -277 -61 -281 -56 -400 7 -150 10 -158
51 -150 17 4 36 12 43 19 7 6 109 209 226 451 133 272 221 441 230 443 10 2
18 -5 21 -20 22 -104 23 -121 9 -185 -19 -93 -40 -291 -47 -448 -6 -127 -6
-131 18 -160 l24 -29 32 49 c45 71 122 236 226 482 85 202 91 213 128 234 62
35 66 23 66 -216 0 -209 7 -257 40 -275 30 -16 37 -12 54 33 10 23 32 67 51
97 18 30 67 138 109 240 42 101 84 192 94 201 15 16 24 16 84 4 l67 -12 59 66
c99 112 142 185 221 375 34 81 48 137 82 329 49 281 52 287 156 306 63 12 73
17 140 79 l72 67 17 114 c13 96 14 129 4 210 -21 170 -48 287 -88 383 -29 69
-36 98 -29 109 13 20 -89 290 -168 449 -65 130 -101 243 -171 530 -69 286 -77
309 -196 579 -99 224 -156 323 -271 466 -53 65 -250 454 -287 564 -12 36 -30
82 -41 104 -11 21 -36 82 -55 135 -20 53 -42 113 -49 133 -8 20 -41 144 -74
276 -51 200 -61 254 -61 325 l0 85 42 19 c24 10 63 34 87 53 24 18 60 40 80
48 20 8 50 27 66 43 47 44 467 166 805 234 154 31 172 33 275 25 165 -12 323
-29 340 -36 9 -3 24 -21 34 -41 l18 -36 8 87 7 87 -50 62 c-79 99 -99 114
-242 179 -116 52 -144 70 -200 124 l-65 64 -179 56 c-170 53 -492 146 -676
196 -129 34 -391 159 -471 225 -228 186 -474 534 -640 904 -52 116 -212 587
-250 735 -11 44 -31 107 -44 140 -32 83 -143 462 -198 680 -50 193 -88 458
-107 730 -6 83 -15 179 -21 215 -34 219 -110 548 -153 670 -133 367 -146 411
-146 485 0 57 -11 110 -49 246 -69 243 -165 535 -216 659 -24 58 -70 170 -101
250 -31 80 -105 248 -165 374 -60 125 -109 232 -109 236 0 9 -276 421 -345
515 -28 39 -75 98 -104 133 -48 57 -55 62 -92 62 -36 0 -39 -2 -35 -22 3 -13
10 -63 17 -113 9 -68 25 -123 67 -225 57 -142 102 -266 102 -284 0 -6 -5 -18
-10 -26 -13 -21 -80 45 -186 185 -167 218 -279 354 -487 588 -205 230 -212
237 -249 237 l-38 0 0 -54z"/>
</g>
</svg>
