<?xml version="1.0" standalone="no"?>
<!DOCTYPE svg PUBLIC "-//W3C//DTD SVG 20010904//EN"
 "http://www.w3.org/TR/2001/REC-SVG-20010904/DTD/svg10.dtd">
<svg version="1.0" xmlns="http://www.w3.org/2000/svg"
 width="686.000000pt" height="1536.000000pt" viewBox="0 0 686.000000 1536.000000"
 preserveAspectRatio="xMidYMid meet">
<metadata>
Created by potrace 1.16, written by Peter Selinger 2001-2019
</metadata>
<g transform="translate(0.000000,1536.000000) scale(0.100000,-0.100000)"
fill="#000000" stroke="none">
<path d="M2650 15345 c-170 -28 -326 -81 -438 -147 -31 -18 -91 -67 -133 -109
-89 -88 -146 -193 -174 -322 -25 -115 -7 -243 40 -287 25 -23 25 -24 6 -44
-30 -32 -41 -71 -41 -146 0 -55 6 -81 26 -123 l26 -53 -38 -75 -39 -74 0 -135
c0 -116 3 -145 24 -205 33 -99 103 -242 144 -295 l34 -45 5 -185 c3 -141 8
-192 20 -215 9 -18 18 -72 23 -133 l7 -102 -45 -93 c-116 -239 -341 -1073
-391 -1452 -37 -281 -38 -569 -1 -736 28 -123 84 -326 111 -398 14 -38 45 -92
72 -125 26 -32 56 -69 66 -82 27 -32 34 -102 35 -324 2 -411 29 -842 76 -1227
35 -284 34 -293 -23 -293 -9 0 -73 -24 -142 -52 -103 -43 -134 -61 -175 -103
-28 -27 -61 -72 -74 -98 -17 -34 -28 -46 -40 -43 -127 38 -1321 335 -1369 342
l-50 6 -21 -68 c-51 -177 -174 -654 -169 -659 12 -11 271 -80 813 -214 612
-153 630 -158 633 -182 11 -103 26 -113 69 -48 l27 41 17 -92 c22 -114 44
-155 84 -155 24 0 38 12 77 60 27 33 53 76 58 96 l10 37 468 -118 c465 -117
533 -137 547 -160 4 -7 12 -127 16 -267 5 -140 15 -297 24 -348 10 -67 14
-159 13 -331 -2 -204 0 -249 16 -309 33 -125 117 -324 173 -407 58 -88 72
-135 53 -176 -18 -38 -26 -269 -11 -329 30 -118 168 -344 235 -384 l33 -19 6
-283 c4 -155 14 -363 22 -462 25 -305 15 -1542 -16 -2035 -17 -265 -22 -645
-10 -748 12 -107 35 -154 83 -171 17 -6 40 -18 49 -27 38 -34 105 7 147 91 51
104 142 443 187 695 40 225 43 231 44 105 3 -291 42 -767 75 -908 19 -83 53
-172 71 -187 44 -37 104 78 139 270 53 286 75 511 101 1020 3 69 12 181 20
250 8 69 16 193 20 275 3 83 11 184 16 225 14 99 15 120 6 153 -7 27 -7 27 31
21 34 -5 44 -2 74 25 19 17 48 60 66 98 50 110 56 207 48 874 -4 316 -4 582
-1 591 6 15 11 15 47 -4 78 -41 131 -21 174 63 29 58 36 111 55 434 l12 210
38 27 c99 71 175 365 194 758 5 97 12 147 26 178 40 94 89 316 89 408 0 23 4
45 9 49 5 3 345 -79 756 -181 410 -102 748 -185 750 -182 11 11 179 707 172
714 -2 2 -205 56 -453 119 -546 141 -968 252 -1011 266 -18 6 -33 14 -33 18 0
5 17 46 39 92 86 187 176 476 251 809 41 184 58 296 70 475 14 209 29 351 41
399 7 27 27 54 63 87 71 64 105 134 160 320 l46 156 0 159 c0 191 -16 643 -30
879 -16 256 -36 455 -75 741 -19 143 -43 337 -55 432 -46 395 -120 621 -245
752 -112 116 -184 248 -370 680 -54 124 -153 349 -220 500 -67 151 -159 372
-205 490 -130 342 -273 620 -420 820 -75 101 -234 259 -380 377 -261 211 -494
330 -831 427 -260 74 -388 88 -549 61z m-197 -7806 c32 -66 65 -123 73 -126 9
-3 23 1 31 10 14 13 14 29 5 118 -6 57 -10 105 -8 106 2 2 31 -60 65 -138 34
-78 60 -144 57 -146 -7 -8 -178 38 -217 58 -20 10 -46 33 -58 51 -11 18 -41
57 -66 86 -25 29 -45 57 -45 61 0 10 68 40 90 40 9 0 37 -45 73 -120z m373
-188 c5 -24 3 -31 -9 -31 -39 0 -47 11 -47 69 0 32 3 61 8 65 8 9 39 -57 48
-103z"/>
</g>
</svg>
