<?xml version="1.0" standalone="no"?>
<!DOCTYPE svg PUBLIC "-//W3C//DTD SVG 20010904//EN"
 "http://www.w3.org/TR/2001/REC-SVG-20010904/DTD/svg10.dtd">
<svg version="1.0" xmlns="http://www.w3.org/2000/svg"
 width="1534.000000pt" height="1536.000000pt" viewBox="0 0 1534.000000 1536.000000"
 preserveAspectRatio="xMidYMid meet">
<metadata>
Created by potrace 1.16, written by Peter Selinger 2001-2019
</metadata>
<g transform="translate(0.000000,1536.000000) scale(0.100000,-0.100000)"
fill="#000000" stroke="none">
<path d="M5360 15213 l-565 -144 -415 -20 -415 -20 -176 -49 c-237 -66 -624
-221 -834 -335 -147 -80 -169 -96 -265 -190 -210 -205 -437 -408 -525 -470
l-90 -63 -170 -37 c-355 -77 -1201 -286 -1342 -331 -153 -48 -257 -96 -451
-207 l-112 -64 35 -45 34 -46 123 -22 c68 -12 140 -26 162 -30 23 -5 203 1
460 16 231 13 482 27 556 30 150 7 604 -8 922 -32 l206 -15 234 -78 c128 -43
317 -102 418 -131 l185 -51 273 -171 c183 -115 277 -179 286 -197 7 -14 30
-77 51 -140 l38 -114 -7 -141 c-5 -98 -16 -187 -38 -291 l-32 -150 -117 -147
c-111 -140 -127 -156 -320 -311 -112 -90 -314 -246 -449 -347 -135 -100 -294
-224 -355 -275 -60 -50 -319 -242 -575 -426 l-466 -334 -218 -235 c-121 -129
-314 -344 -430 -478 -204 -235 -215 -250 -340 -460 l-128 -217 -54 -190 -54
-190 0 -176 c0 -167 2 -184 39 -350 l39 -174 189 -394 190 -393 269 -251 269
-250 253 -124 c139 -68 367 -186 505 -262 l252 -139 470 -101 c259 -55 704
-143 990 -195 l520 -95 590 -51 590 -50 440 0 c336 0 594 7 1090 30 1226 56
1751 81 2150 100 l400 18 745 147 c410 80 846 166 970 190 237 47 610 108 617
101 4 -4 -101 -284 -109 -290 -62 -55 -602 -436 -787 -556 -240 -156 -258
-170 -346 -267 -73 -81 -94 -110 -99 -140 -3 -21 -18 -162 -32 -315 l-26 -276
36 -314 c20 -172 45 -455 56 -628 32 -491 89 -907 209 -1515 98 -492 100 -502
149 -605 48 -103 51 -106 123 -156 41 -28 118 -74 171 -102 88 -47 102 -52
162 -52 36 0 66 4 66 8 0 5 9 59 20 120 11 62 33 211 48 331 l28 219 97 153
c54 85 138 207 188 271 l92 118 -16 237 -16 238 -76 225 c-66 198 -89 288
-189 745 l-114 520 -7 195 -7 195 87 265 c72 218 101 291 163 410 l76 145 411
415 412 415 32 90 c18 50 35 95 39 101 4 6 56 22 115 36 l109 25 9 -24 c5 -13
34 -55 65 -94 l57 -70 -77 -357 -78 -357 -134 -285 c-97 -206 -148 -327 -182
-437 l-48 -152 23 -272 24 -273 105 -420 c58 -232 148 -621 199 -866 52 -245
110 -519 130 -610 20 -91 72 -390 116 -665 l81 -500 75 -165 c63 -139 87 -180
150 -258 42 -51 79 -90 83 -85 5 4 37 102 73 218 59 189 71 241 116 525 l51
315 0 263 0 262 -61 328 c-33 180 -107 532 -164 782 -57 250 -121 535 -142
633 l-39 179 23 261 c38 446 54 548 193 1182 141 640 230 1070 230 1103 0 12
-14 56 -31 99 -22 57 -47 97 -91 146 l-61 68 94 87 c52 48 123 114 158 148
l64 61 -22 122 c-12 67 -19 127 -14 134 4 7 41 56 82 110 l76 99 161 -8 162
-7 87 118 87 117 -84 87 c-46 47 -107 111 -136 141 l-52 56 137 146 c129 136
142 154 197 264 l59 119 164 145 c161 142 166 146 271 187 61 23 101 44 92 47
-8 3 -90 25 -181 49 l-166 45 -274 -9 c-261 -8 -279 -10 -382 -39 -59 -16
-114 -30 -122 -30 -8 0 -156 94 -328 208 l-312 209 -385 97 c-276 70 -493 133
-767 222 -376 123 -398 131 -1290 510 -499 212 -951 403 -1003 424 -81 32
-169 52 -600 133 -420 80 -597 108 -1053 167 l-548 72 -442 -36 c-431 -35
-450 -37 -787 -101 -191 -36 -475 -99 -635 -140 -318 -81 -429 -100 -670 -114
l-160 -10 -25 32 c-14 17 -25 34 -25 38 0 4 21 33 46 65 41 53 65 70 235 167
105 60 333 206 514 331 l325 223 113 144 c275 351 240 290 353 616 l101 288 9
135 c16 241 -2 410 -86 810 l-72 345 -122 180 c-78 116 -173 239 -268 348
-107 122 -160 191 -195 256 l-48 89 67 61 c37 34 72 61 78 61 6 0 108 -26 227
-58 l217 -59 63 20 c35 10 68 23 75 29 6 5 59 96 117 203 l106 194 -46 123
c-26 68 -52 128 -58 135 -22 23 -957 377 -985 372 -3 -1 -260 -66 -571 -146z"/>
</g>
</svg>
