<?xml version="1.0" standalone="no"?>
<!DOCTYPE svg PUBLIC "-//W3C//DTD SVG 20010904//EN"
 "http://www.w3.org/TR/2001/REC-SVG-20010904/DTD/svg10.dtd">
<svg version="1.0" xmlns="http://www.w3.org/2000/svg"
 width="1536.000000pt" height="1264.000000pt" viewBox="0 0 1536.000000 1264.000000"
 preserveAspectRatio="xMidYMid meet">
<metadata>
Created by potrace 1.16, written by Peter Selinger 2001-2019
</metadata>
<g transform="translate(0.000000,1264.000000) scale(0.100000,-0.100000)"
fill="#000000" stroke="none">
<path d="M8996 12575 c-65 -8 -128 -16 -139 -19 -11 -3 -36 2 -55 10 -19 7
-49 14 -66 14 -71 0 -250 -70 -321 -125 -52 -41 -198 -125 -216 -125 -8 0 -36
-8 -63 -19 -34 -13 -58 -16 -77 -11 -21 6 -51 0 -116 -22 -48 -17 -112 -32
-141 -34 -28 -1 -62 -8 -75 -16 -12 -8 -49 -17 -82 -21 -35 -3 -88 -18 -128
-36 -52 -23 -78 -30 -105 -25 -47 7 -156 -44 -230 -107 -72 -62 -107 -88 -128
-96 -11 -4 -39 -21 -64 -38 -25 -17 -70 -42 -100 -54 -30 -13 -78 -34 -105
-47 -28 -13 -58 -24 -66 -24 -9 0 -22 -7 -29 -14 -6 -8 -31 -25 -55 -36 -26
-12 -53 -36 -66 -56 -23 -39 -84 -84 -112 -84 -10 0 -39 -22 -66 -50 -34 -35
-56 -50 -75 -50 -20 0 -32 -10 -52 -42 -37 -60 -63 -79 -97 -72 -33 7 -50 -6
-84 -59 -16 -25 -33 -40 -53 -44 -33 -6 -38 -11 -71 -73 -29 -54 -35 -59 -74
-60 -26 -1 -36 -11 -79 -77 -27 -41 -61 -104 -76 -139 -15 -35 -30 -67 -34
-71 -4 -4 -28 -8 -52 -8 -44 0 -45 -1 -73 -55 -66 -125 -88 -178 -100 -235
-17 -84 -59 -165 -95 -185 -25 -13 -33 -28 -47 -84 -9 -37 -24 -73 -31 -79
-23 -19 -78 -158 -89 -223 -6 -32 -13 -106 -17 -163 -6 -92 -9 -105 -29 -119
-19 -12 -23 -24 -23 -68 0 -42 -4 -56 -21 -68 -20 -14 -21 -18 -11 -125 12
-128 8 -149 -24 -157 -24 -6 -24 -8 -24 -129 0 -113 -2 -125 -24 -158 -14 -20
-26 -53 -28 -74 -2 -31 -7 -39 -27 -41 -22 -3 -23 -7 -19 -54 5 -45 3 -51 -18
-60 -20 -9 -24 -19 -24 -57 -1 -51 -29 -142 -52 -169 -9 -9 -19 -28 -23 -42
-4 -13 -18 -33 -31 -43 -13 -10 -24 -27 -24 -37 0 -9 -7 -23 -15 -30 -8 -7
-15 -34 -17 -68 -3 -50 -6 -57 -25 -60 -24 -4 -46 -33 -56 -73 -17 -68 -225
-209 -308 -209 -11 0 -23 -10 -28 -24 -7 -16 -38 -37 -105 -70 -52 -25 -102
-46 -110 -46 -8 0 -46 -11 -83 -25 -94 -36 -332 -52 -437 -31 -39 8 -96 18
-126 22 -67 8 -181 57 -235 99 -22 18 -54 39 -71 48 -17 9 -36 23 -43 31 -8 9
-23 16 -36 16 -23 0 -55 28 -55 48 0 16 -77 173 -95 192 -8 9 -25 45 -39 81
-13 35 -32 82 -41 104 -17 37 -32 145 -39 275 -2 30 -9 86 -16 124 -15 82 1
206 31 245 21 26 24 57 10 93 -5 13 -11 42 -12 63 -4 34 -1 40 16 40 15 0 20
7 20 29 1 16 9 34 20 42 18 14 18 17 -19 88 -45 88 -44 120 4 85 16 -13 35
-38 42 -56 7 -18 18 -33 25 -33 20 0 16 10 -27 75 -22 33 -40 66 -40 73 0 19
21 14 47 -10 l23 -21 0 21 c0 12 -16 39 -35 61 -37 40 -44 65 -22 74 16 6 77
-39 77 -58 0 -7 7 -18 15 -25 12 -10 15 -9 15 4 0 19 -63 106 -86 119 -16 9
-19 43 -5 51 16 10 35 -3 60 -39 29 -43 43 -44 58 -4 15 38 9 50 -52 119 -44
50 -59 100 -35 115 13 8 58 -23 65 -46 7 -22 35 -26 35 -5 0 13 -57 66 -72 66
-11 0 -48 85 -48 109 0 33 30 25 67 -19 19 -22 39 -40 45 -40 11 0 -27 65 -55
93 -21 21 -19 64 2 59 8 -2 20 -1 28 2 11 5 11 11 -3 38 -9 18 -24 38 -31 44
-12 8 -13 18 -3 52 17 66 8 115 -28 156 -18 20 -32 41 -32 46 0 6 -9 10 -21
10 -28 0 -59 18 -59 34 0 8 10 20 23 29 21 14 22 15 6 58 -14 39 -20 44 -48
45 -17 1 -33 3 -36 5 -5 6 -10 108 -4 112 2 2 15 8 29 14 l25 11 -33 7 c-18 4
-35 12 -38 17 -9 15 17 38 42 38 13 0 24 5 24 10 0 13 -7 13 -69 -1 -52 -11
-91 -1 -91 24 0 7 32 29 71 50 l70 38 -3 47 c-3 54 -7 55 -98 27 -85 -26 -105
-28 -118 -12 -10 11 -8 19 6 38 10 13 26 42 36 64 10 22 21 44 24 49 2 4 -8 5
-24 2 -20 -4 -39 0 -63 15 l-34 20 34 35 c22 23 30 37 23 44 -7 7 -18 4 -34
-10 -13 -11 -28 -20 -33 -20 -6 0 -21 -10 -34 -22 -22 -20 -25 -21 -40 -6 -14
15 -14 19 6 51 11 19 21 42 21 51 0 14 -6 13 -43 -9 -46 -26 -81 -32 -92 -15
-3 6 -20 10 -37 10 l-31 0 6 60 c7 60 2 90 -14 90 -5 0 -26 -15 -46 -34 -38
-33 -64 -44 -158 -66 -27 -6 -57 -18 -66 -26 -8 -8 -26 -14 -40 -14 -13 -1
-35 -7 -49 -15 -31 -18 -67 -19 -72 -3 -6 17 -39 1 -45 -22 -5 -19 -49 -50
-71 -50 -6 0 -13 11 -16 25 -8 32 -23 32 -53 -1 -31 -34 -49 -26 -45 20 4 45
-16 48 -61 10 -25 -21 -37 -25 -68 -20 -23 4 -40 2 -45 -5 -3 -6 -21 -17 -40
-25 -23 -9 -36 -24 -45 -49 -14 -38 -36 -49 -85 -43 -28 3 -29 5 -27 56 2 51
8 62 47 102 20 20 20 20 -3 20 -22 0 -28 -10 -75 -123 -14 -34 -17 -36 -40
-26 -13 6 -27 20 -29 31 -4 15 -11 18 -29 13 -38 -12 -45 -23 -63 -90 -22 -78
-36 -93 -70 -75 -22 12 -26 11 -45 -11 -28 -33 -57 -96 -65 -144 -10 -60 -34
-105 -56 -105 -14 0 -19 7 -19 29 0 22 -6 32 -22 37 -36 11 -50 -20 -45 -99 4
-65 3 -70 -24 -98 -26 -27 -29 -36 -29 -96 0 -37 4 -80 9 -97 5 -17 17 -62 26
-101 17 -74 54 -156 86 -191 28 -30 25 -54 -7 -54 -33 0 -84 53 -84 88 0 19
-3 23 -11 15 -30 -30 36 -132 111 -174 22 -13 40 -28 40 -35 0 -7 -22 -43 -50
-79 -27 -36 -55 -75 -61 -88 -14 -26 -74 -98 -184 -222 -44 -49 -89 -101 -100
-114 -61 -73 -272 -261 -294 -261 -5 0 -26 -20 -47 -45 -32 -40 -37 -53 -41
-113 -5 -62 -3 -70 24 -104 37 -49 57 -54 132 -28 69 23 264 119 270 133 4 10
108 57 126 57 6 0 20 9 29 19 10 11 32 25 49 32 18 7 84 47 147 89 180 120
223 147 253 161 15 7 27 16 27 20 0 4 26 21 57 37 115 59 128 66 145 74 35 16
99 9 128 -14 15 -13 41 -30 57 -39 17 -10 39 -36 52 -63 13 -25 29 -46 37 -46
10 0 14 -12 14 -38 0 -25 9 -50 25 -72 14 -19 25 -45 25 -59 0 -14 11 -46 25
-70 14 -23 25 -54 25 -66 0 -13 4 -35 10 -49 6 -17 6 -62 0 -128 -16 -164 -14
-359 4 -553 16 -173 23 -214 51 -280 7 -16 18 -43 25 -60 7 -16 18 -43 26 -60
8 -16 20 -50 28 -75 13 -42 96 -179 149 -245 13 -16 30 -41 37 -55 7 -14 29
-44 49 -66 20 -23 56 -75 80 -115 24 -41 55 -87 67 -102 13 -16 24 -35 24 -42
0 -7 11 -27 25 -43 14 -17 25 -36 25 -43 0 -8 28 -36 62 -64 34 -27 90 -75
123 -106 79 -73 109 -93 196 -130 85 -36 149 -77 149 -94 0 -16 22 -25 61 -25
15 0 45 -9 66 -19 73 -37 108 -50 148 -54 22 -3 81 -10 130 -16 50 -7 122 -16
160 -21 41 -5 103 -5 150 0 44 5 179 11 300 14 121 2 231 8 245 14 14 5 52 13
84 17 32 4 68 10 80 15 12 4 59 20 106 35 47 14 94 31 104 37 28 15 125 45
366 114 30 9 70 22 88 30 18 8 44 14 58 14 14 0 44 11 67 24 23 14 62 31 87
40 63 21 239 64 275 68 22 2 31 9 33 25 2 15 21 31 61 52 58 30 165 97 211
132 14 11 49 38 79 61 46 35 75 47 185 76 171 45 168 44 187 29 9 -7 42 -52
74 -100 31 -49 64 -91 72 -94 8 -3 26 0 40 6 23 11 28 8 69 -36 24 -27 44 -52
44 -56 0 -16 65 -102 100 -132 19 -16 69 -64 111 -105 42 -41 94 -91 115 -111
21 -19 58 -56 80 -82 36 -41 45 -46 71 -41 25 5 37 0 68 -29 48 -44 69 -50 96
-26 16 14 26 16 40 9 30 -17 56 -11 74 16 15 24 18 25 38 10 36 -26 95 -56
111 -56 8 0 24 16 35 36 l22 36 63 -5 c35 -3 73 -10 84 -16 31 -17 52 -13 93
15 55 38 82 30 91 -26 4 -25 15 -90 24 -145 24 -150 28 -363 9 -514 -9 -69
-20 -214 -25 -321 -6 -134 -15 -225 -30 -290 -30 -134 -43 -235 -41 -305 2
-46 -4 -73 -23 -115 -14 -30 -41 -93 -61 -140 -20 -47 -45 -104 -56 -128 -11
-24 -27 -62 -36 -85 -9 -23 -33 -64 -52 -92 -61 -85 -71 -139 -52 -300 8 -68
7 -73 -31 -165 -22 -52 -53 -123 -69 -157 -16 -34 -29 -69 -29 -78 0 -9 -21
-60 -46 -113 -25 -53 -64 -135 -86 -182 -22 -47 -55 -110 -74 -141 -19 -31
-34 -64 -34 -73 0 -9 -11 -38 -24 -64 -12 -26 -26 -62 -30 -81 -8 -41 -88
-215 -139 -299 -20 -34 -48 -86 -61 -115 -12 -29 -44 -72 -69 -97 -26 -25 -47
-49 -47 -53 0 -8 -66 -111 -140 -222 -11 -16 -37 -55 -57 -85 -20 -30 -52 -76
-72 -102 -20 -25 -65 -88 -101 -139 -36 -52 -83 -114 -105 -140 -37 -43 -55
-69 -95 -139 -9 -14 -32 -46 -52 -71 -19 -24 -39 -54 -42 -66 -4 -11 -13 -24
-21 -26 -7 -3 -26 -27 -41 -54 -15 -26 -34 -56 -43 -67 -9 -10 -29 -45 -46
-79 -23 -46 -40 -66 -70 -82 -24 -13 -47 -37 -57 -57 -9 -20 -31 -47 -47 -61
-32 -26 -151 -161 -151 -170 0 -3 -21 -25 -46 -49 -81 -76 -89 -84 -105 -114
-9 -18 -34 -39 -61 -51 -24 -12 -62 -42 -83 -69 -64 -78 -112 -123 -137 -128
-13 -3 -50 -10 -83 -17 -33 -6 -82 -21 -110 -32 -60 -24 -138 -35 -310 -43
-81 -4 -136 -10 -145 -18 -17 -14 -88 -36 -116 -36 -19 0 -104 -30 -160 -57
-18 -8 -54 -42 -80 -75 -27 -33 -61 -75 -77 -93 -27 -33 -36 -65 -17 -65 6 0
43 12 83 26 70 26 80 27 302 27 169 1 241 -3 270 -12 38 -14 144 -12 469 4
132 7 145 11 202 65 l53 50 58 -6 c51 -5 66 -2 123 25 36 18 74 37 85 43 11 6
29 16 40 23 108 59 184 111 204 138 27 36 89 67 136 67 23 0 42 14 95 70 46
50 72 70 90 70 29 1 51 13 109 60 44 36 134 161 146 202 3 13 10 32 15 43 5
11 16 43 24 70 9 28 53 106 99 174 124 185 281 449 362 606 26 50 59 105 73
124 55 69 82 107 92 126 5 11 46 74 90 140 44 66 85 131 90 144 6 13 23 42 38
65 16 22 46 68 67 101 21 33 46 72 56 86 9 14 42 75 72 135 30 60 78 147 106
193 28 46 51 88 51 93 0 22 141 206 210 277 20 20 62 59 94 86 93 80 167 189
234 346 16 38 30 52 78 79 33 18 105 62 162 98 114 72 149 112 171 202 18 68
17 192 -1 251 -9 32 -13 105 -11 268 1 220 2 225 24 242 21 15 22 21 14 85 -5
38 -8 112 -7 164 1 52 2 137 2 189 0 77 4 108 25 168 15 40 23 78 20 84 -36
58 -12 373 35 466 16 31 22 65 25 140 4 101 8 118 41 191 13 29 27 44 44 48
42 9 70 23 74 36 30 114 107 285 133 295 7 3 23 -1 36 -10 37 -24 118 -31 162
-13 49 21 74 20 110 -4 44 -29 63 -25 107 23 74 79 93 97 106 97 29 0 52 -22
63 -60 12 -38 31 -56 50 -44 5 3 9 12 9 20 0 9 6 14 14 12 17 -4 156 -189 180
-240 10 -20 33 -49 52 -63 19 -14 34 -30 34 -35 0 -5 9 -20 21 -32 49 -55 111
-140 144 -201 20 -36 52 -83 71 -104 20 -21 44 -54 54 -73 10 -19 39 -62 64
-95 26 -32 63 -93 84 -135 20 -41 42 -79 49 -83 20 -13 55 -100 54 -134 0 -22
6 -36 19 -43 17 -9 28 -37 59 -150 5 -16 18 -27 38 -32 25 -6 39 -22 67 -73
20 -36 36 -73 36 -82 0 -9 7 -25 17 -35 14 -15 14 -24 5 -57 -7 -21 -12 -51
-12 -68 0 -36 36 -139 61 -174 10 -15 19 -30 19 -34 0 -3 14 -26 30 -50 29
-42 30 -51 36 -172 3 -70 8 -131 11 -136 2 -4 8 -44 13 -90 4 -45 20 -132 35
-192 14 -61 30 -128 35 -150 5 -22 12 -98 15 -169 4 -71 11 -152 16 -180 6
-28 14 -141 19 -251 4 -111 15 -239 24 -286 23 -124 40 -320 37 -434 -1 -60 2
-112 9 -130 9 -21 12 -110 11 -295 -1 -174 4 -332 15 -460 16 -192 16 -197 -6
-375 -12 -99 -25 -227 -29 -285 -6 -88 -12 -114 -36 -158 -24 -44 -28 -63 -27
-122 1 -63 0 -70 -18 -70 -26 0 -52 -28 -45 -50 3 -11 -6 -35 -24 -61 -16 -24
-39 -65 -52 -91 -13 -27 -27 -48 -32 -48 -5 0 -39 -29 -75 -64 -58 -56 -80
-68 -165 -100 -53 -20 -121 -41 -150 -47 -28 -6 -68 -15 -88 -20 -20 -5 -47
-9 -61 -9 -14 0 -33 -9 -43 -20 -15 -17 -31 -20 -95 -20 -81 0 -161 -12 -248
-37 -43 -12 -68 -29 -139 -98 -82 -79 -87 -86 -77 -112 14 -40 55 -45 217 -27
187 21 284 12 376 -36 37 -18 55 -21 104 -17 69 6 80 -6 48 -52 -12 -16 -21
-43 -21 -60 0 -26 4 -31 25 -31 27 0 72 17 96 37 8 7 68 26 133 43 106 27 128
29 219 24 98 -6 103 -5 137 19 52 38 139 77 171 77 43 0 76 19 90 52 7 18 42
53 85 84 82 61 104 87 104 125 0 27 18 55 82 126 20 23 40 54 44 70 4 15 30
65 58 111 28 46 58 95 66 110 12 21 15 68 17 207 1 142 6 199 22 272 25 111
26 190 5 298 -11 55 -15 125 -13 225 2 80 0 165 -4 190 -3 25 -9 167 -12 315
-16 709 -22 869 -39 920 -14 44 -16 112 -14 550 2 742 0 1092 -8 1170 -6 62
-3 80 20 144 33 92 37 230 7 313 -10 29 -24 73 -30 98 -14 49 -14 49 -95 193
-63 113 -72 136 -86 237 -16 106 -49 242 -64 260 -18 20 -37 67 -71 175 -16
50 -37 106 -46 125 -28 59 -120 340 -140 425 -10 44 -22 96 -28 115 -9 32 -26
94 -51 190 -14 52 -12 90 4 90 8 0 34 -17 60 -38 32 -26 63 -42 104 -51 54
-12 62 -11 98 7 47 24 69 48 78 85 7 30 33 35 81 17 34 -13 58 0 75 40 11 26
18 30 50 30 56 0 91 51 97 144 2 33 6 62 9 65 2 3 19 -1 37 -7 50 -18 91 -15
112 8 29 32 81 26 177 -20 67 -32 90 -39 119 -34 50 8 70 45 69 126 -2 118 18
221 43 226 32 6 64 -24 71 -66 6 -42 28 -68 46 -57 6 4 8 15 5 26 -10 31 21
34 59 5 19 -14 41 -26 49 -26 35 0 88 -93 86 -152 -2 -90 23 -241 47 -286 30
-56 38 -62 89 -62 28 0 53 9 84 30 52 36 72 37 137 9 47 -20 51 -25 99 -122
l50 -102 -2 -117 c0 -64 -6 -133 -13 -153 -10 -31 -9 -39 4 -54 19 -21 20 -50
4 -86 -10 -23 -9 -33 11 -71 24 -44 24 -44 7 -112 -28 -110 -35 -144 -40 -204
-4 -51 -2 -60 17 -73 21 -15 21 -16 5 -67 -33 -106 -37 -131 -28 -149 14 -26
12 -43 -7 -65 -24 -26 -55 -73 -72 -106 -19 -37 -3 -82 31 -86 23 -3 26 -8 31
-60 4 -52 2 -61 -30 -110 -19 -29 -60 -83 -92 -120 -96 -111 -114 -173 -55
-188 55 -14 141 54 259 204 22 28 46 53 54 57 26 11 30 -10 11 -54 -11 -24
-20 -48 -20 -54 0 -6 -20 -36 -43 -66 -24 -31 -50 -67 -57 -81 -7 -14 -21 -34
-30 -45 -33 -37 -93 -157 -107 -214 -22 -89 -23 -86 22 -83 22 2 47 9 55 16 8
7 40 26 70 40 69 34 79 44 153 136 57 72 140 228 178 335 10 28 25 51 34 53
14 3 15 -6 9 -75 -8 -100 -41 -186 -110 -285 -30 -43 -58 -86 -61 -95 -4 -10
-25 -46 -47 -80 -82 -123 -130 -222 -120 -246 8 -23 61 -26 97 -6 18 10 42 22
53 28 12 5 43 35 70 65 43 50 84 73 84 46 0 -6 -13 -34 -30 -63 -41 -73 -40
-111 5 -135 15 -7 29 -6 54 4 18 8 70 23 115 34 88 21 116 43 158 125 11 22
26 47 33 55 8 8 29 44 47 80 39 76 60 85 100 43 23 -24 28 -41 35 -107 5 -50
13 -81 21 -84 28 -9 150 156 200 270 18 42 68 118 105 158 18 20 43 86 52 137
3 23 13 47 21 54 24 20 81 109 110 173 16 34 36 62 50 68 15 7 29 27 38 57 35
108 41 121 59 121 15 0 17 -6 11 -50 l-7 -50 32 0 c37 0 47 18 81 150 12 47
24 91 26 98 2 7 20 12 43 12 46 0 71 20 71 57 0 24 2 25 38 20 20 -4 42 -3 48
1 7 4 13 68 17 167 6 157 31 435 45 502 13 60 39 33 41 -43 1 -18 7 -34 15
-37 23 -9 64 37 71 79 4 22 20 77 35 124 55 166 63 286 25 377 -9 21 -18 56
-20 78 -2 22 -11 73 -20 114 -13 57 -15 89 -9 135 9 58 10 61 39 64 39 5 65
29 65 60 0 39 -30 213 -45 257 -7 22 -30 75 -50 117 -24 52 -42 111 -55 185
-22 121 -45 198 -88 293 -16 36 -36 84 -43 108 -10 34 -18 44 -43 50 -35 9
-45 37 -51 135 -4 64 -20 123 -40 147 -14 17 -59 130 -69 175 -20 81 -133 282
-193 343 -7 7 -13 24 -13 37 0 13 -4 27 -10 30 -5 3 -10 19 -10 34 0 15 -11
49 -24 77 -13 27 -33 69 -45 94 -18 40 -37 68 -129 191 -15 20 -60 62 -99 94
-40 31 -73 61 -73 66 0 4 -21 22 -46 40 -25 17 -85 70 -132 118 -48 48 -118
112 -157 142 -73 58 -126 114 -184 194 -19 25 -49 54 -66 63 -54 28 -118 73
-155 107 -70 65 -205 161 -315 225 -22 13 -81 56 -132 96 -82 66 -140 99 -268
155 -22 9 -61 27 -86 38 -25 12 -52 21 -60 21 -34 0 -225 72 -281 106 -35 20
-88 52 -120 71 -31 18 -63 33 -72 33 -19 0 -95 34 -246 110 -63 31 -133 63
-155 69 -61 19 -241 109 -277 139 -28 23 -41 27 -102 28 -81 2 -148 17 -166
39 -7 9 -10 27 -7 45 9 40 -6 46 -138 55 -120 7 -141 14 -155 51 -8 20 -16 24
-52 24 -23 0 -55 4 -72 10 -17 5 -60 17 -96 26 -36 8 -81 20 -100 25 -99 26
-196 39 -295 39 -152 0 -157 2 -150 54 10 61 -4 69 -93 54 -55 -9 -88 -9 -147
0 -54 8 -82 9 -96 1 -22 -12 -42 -7 -118 29 -79 37 -211 71 -336 87 -132 17
-210 17 -369 0z"/>
<path d="M2350 11472 c0 -10 -5 -23 -12 -30 -6 -6 -8 -15 -4 -19 8 -9 45 35
46 55 0 6 -7 12 -15 12 -8 0 -15 -8 -15 -18z"/>
</g>
</svg>
